{"glyphs":{"0":{"ha":974,"x_min":77,"x_max":897,"o":"m 487 -19 q 269 46 361 -19 q 127 227 177 111 q 77 494 77 342 q 129 755 77 643 q 273 930 181 867 q 487 992 365 992 q 702 929 610 992 q 845 755 794 867 q 897 494 897 643 q 847 227 897 342 q 706 46 797 111 q 487 -19 614 -19 m 487 117 q 622 159 565 117 q 709 284 678 201 q 740 494 740 368 q 670 767 740 677 q 487 856 600 856 q 306 767 378 856 q 233 494 233 678 q 265 285 233 369 q 353 159 296 201 q 487 117 410 117 z "},"1":{"ha":478,"x_min":53,"x_max":357,"o":"m 208 0 l 208 756 q 136 710 168 726 q 73 686 104 694 l 53 821 q 126 854 88 831 q 197 909 165 878 q 247 972 230 940 l 357 972 l 357 0 l 208 0 z "},"2":{"ha":731,"x_min":72,"x_max":658,"o":"m 72 1 l 333 399 q 410 524 379 470 q 457 622 442 578 q 472 706 472 665 q 434 812 472 773 q 331 851 397 851 q 201 818 260 851 q 95 738 143 785 l 76 893 q 199 965 131 937 q 354 992 268 992 q 502 957 442 992 q 592 861 562 921 q 622 728 622 801 q 606 610 622 667 q 554 489 589 553 q 465 342 519 425 l 331 140 l 658 140 l 658 1 l 72 1 z "},"3":{"ha":750,"x_min":52,"x_max":667,"o":"m 328 -19 q 175 1 245 -19 q 52 49 105 22 l 89 183 q 201 134 142 154 q 329 114 260 114 q 463 155 414 114 q 511 268 511 197 q 460 390 511 346 q 303 433 409 433 l 226 433 l 226 573 l 303 573 q 433 612 386 573 q 480 719 480 651 q 441 823 480 787 q 331 858 403 858 q 220 838 272 858 q 117 785 168 817 l 94 929 q 208 974 144 957 q 349 992 272 992 q 505 959 441 992 q 602 869 569 926 q 635 738 635 813 q 582 579 635 644 q 436 492 529 514 l 435 524 q 605 442 542 505 q 667 271 667 378 q 624 114 667 179 q 503 15 580 49 q 328 -19 426 -19 z "},"4":{"ha":828,"x_min":20,"x_max":776,"o":"m 501 0 l 501 239 l 20 239 l 544 972 l 651 972 l 651 365 l 776 365 l 776 239 l 651 239 l 651 0 l 501 0 m 231 319 l 203 365 l 501 365 l 501 791 l 535 747 l 231 319 z "},"5":{"ha":749,"x_min":69,"x_max":683,"o":"m 339 -19 q 191 2 260 -19 q 69 56 122 22 l 106 195 q 211 146 157 166 q 333 126 266 126 q 474 173 421 126 q 526 302 526 221 q 468 440 526 392 q 310 488 410 488 q 214 482 260 488 q 120 464 167 475 l 181 972 l 639 972 l 631 827 l 300 827 l 265 538 l 219 597 q 288 608 252 604 q 361 613 323 613 q 533 574 460 613 q 644 465 605 535 q 683 302 683 395 q 638 131 683 203 q 515 20 593 59 q 339 -19 438 -19 z "},"6":{"ha":785,"x_min":78,"x_max":726,"o":"m 407 -19 q 231 26 305 -19 q 117 153 157 72 q 78 342 78 234 q 117 559 78 458 q 221 744 156 660 q 362 890 285 828 q 515 992 439 953 l 619 901 q 513 838 567 876 q 407 751 458 800 q 314 643 356 702 q 249 517 273 584 q 225 375 225 449 l 178 444 q 279 546 213 508 q 439 584 344 584 q 587 546 522 584 q 689 441 652 508 q 726 290 726 375 q 686 129 726 199 q 575 20 647 60 q 407 -19 503 -19 m 408 108 q 532 160 484 108 q 579 285 579 211 q 532 407 579 358 q 408 456 484 456 q 283 407 331 456 q 235 284 235 358 q 283 159 235 209 q 408 108 331 108 z "},"7":{"ha":703,"x_min":58,"x_max":690,"o":"m 117 0 l 497 893 l 539 830 l 58 830 l 58 972 l 690 972 l 276 0 l 117 0 z "},"8":{"ha":840,"x_min":81,"x_max":760,"o":"m 420 -19 q 239 18 315 -19 q 122 124 163 56 q 81 278 81 191 q 124 434 81 367 q 242 539 166 501 q 420 576 319 576 q 598 539 522 576 q 717 434 674 501 q 760 278 760 367 q 718 124 760 191 q 600 18 676 56 q 420 -19 524 -19 m 420 114 q 561 160 511 114 q 612 283 612 207 q 561 409 612 359 q 420 459 511 459 q 279 409 329 459 q 229 283 229 359 q 279 160 229 207 q 420 114 329 114 m 420 474 q 272 507 338 474 q 165 597 205 540 q 126 729 126 654 q 156 853 126 793 q 250 953 185 914 q 420 992 315 992 q 589 953 525 992 q 681 853 652 914 q 710 729 710 793 q 674 597 710 654 q 573 507 638 540 q 420 474 508 474 m 420 592 q 531 632 494 592 q 567 728 567 673 q 531 826 567 789 q 420 864 494 864 q 307 826 347 864 q 267 728 267 789 q 307 632 267 673 q 420 592 347 592 z "},"9":{"ha":785,"x_min":63,"x_max":711,"o":"m 288 0 l 184 90 q 285 151 233 115 q 387 235 338 188 q 477 339 437 282 q 540 460 517 395 q 564 597 564 526 l 610 528 q 511 426 576 465 q 350 388 445 388 q 202 426 267 388 q 100 531 137 465 q 63 682 63 597 q 102 843 63 774 q 214 952 142 913 q 382 992 286 992 q 558 946 484 992 q 672 819 632 901 q 711 630 711 738 q 673 420 711 518 q 573 241 635 322 q 436 99 510 160 q 288 0 362 38 m 381 519 q 505 567 457 519 q 552 688 552 616 q 505 812 552 763 q 381 861 457 861 q 258 811 306 861 q 210 688 210 761 q 258 567 210 616 q 381 519 306 519 z "},"A":{"ha":861,"x_min":8,"x_max":853,"o":"m 637 249 l 224 249 l 224 384 l 637 384 l 637 249 m 410 824 l 451 824 l 160 0 l 8 0 l 355 972 l 506 972 l 853 0 l 701 0 l 410 824 z "},"Á":{"ha":861,"x_min":8,"x_max":853,"o":"m 637 249 l 224 249 l 224 384 l 637 384 l 637 249 m 410 824 l 451 824 l 160 0 l 8 0 l 355 972 l 506 972 l 853 0 l 701 0 l 410 824 m 299 1058 l 299 1145 l 564 1277 l 564 1139 l 299 1058 z "},"Ă":{"ha":861,"x_min":8,"x_max":853,"o":"m 637 249 l 224 249 l 224 384 l 637 384 l 637 249 m 410 824 l 451 824 l 160 0 l 8 0 l 355 972 l 506 972 l 853 0 l 701 0 l 410 824 m 431 1062 q 316 1086 363 1062 q 247 1150 270 1110 q 223 1236 223 1190 l 337 1236 q 364 1173 337 1194 q 431 1151 390 1151 q 498 1173 471 1151 q 524 1236 524 1194 l 638 1236 q 615 1150 638 1190 q 545 1086 591 1110 q 431 1062 499 1062 z "},"Ắ":{"ha":861,"x_min":8,"x_max":853,"o":"m 637 249 l 224 249 l 224 384 l 637 384 l 637 249 m 410 824 l 451 824 l 160 0 l 8 0 l 355 972 l 506 972 l 853 0 l 701 0 l 410 824 m 431 1062 q 316 1086 363 1062 q 247 1150 270 1110 q 223 1236 223 1190 l 337 1236 q 364 1173 337 1194 q 431 1151 390 1151 q 498 1173 471 1151 q 524 1236 524 1194 l 638 1236 q 615 1150 638 1190 q 545 1086 591 1110 q 431 1062 499 1062 m 299 1298 l 299 1385 l 564 1517 l 564 1378 l 299 1298 z "},"Ặ":{"ha":861,"x_min":8,"x_max":853,"o":"m 637 249 l 224 249 l 224 384 l 637 384 l 637 249 m 410 824 l 451 824 l 160 0 l 8 0 l 355 972 l 506 972 l 853 0 l 701 0 l 410 824 m 431 1092 q 316 1118 363 1092 q 247 1185 270 1144 q 223 1276 223 1227 l 337 1276 q 364 1212 337 1234 q 431 1190 390 1190 q 498 1212 471 1190 q 524 1276 524 1234 l 638 1276 q 615 1185 638 1227 q 545 1118 591 1144 q 431 1092 499 1092 z "},"Ằ":{"ha":861,"x_min":8,"x_max":853,"o":"m 637 249 l 224 249 l 224 384 l 637 384 l 637 249 m 410 824 l 451 824 l 160 0 l 8 0 l 355 972 l 506 972 l 853 0 l 701 0 l 410 824 m 431 1060 q 316 1085 363 1060 q 247 1149 270 1109 q 223 1235 223 1188 l 337 1235 q 364 1172 337 1193 q 431 1150 390 1150 q 498 1172 471 1150 q 524 1235 524 1193 l 638 1235 q 615 1149 638 1188 q 545 1085 591 1109 q 431 1060 499 1060 m 563 1297 l 297 1377 l 297 1516 l 563 1384 l 563 1297 z "},"Ẳ":{"ha":861,"x_min":8,"x_max":853,"o":"m 637 249 l 224 249 l 224 384 l 637 384 l 637 249 m 410 824 l 451 824 l 160 0 l 8 0 l 355 972 l 506 972 l 853 0 l 701 0 l 410 824 m 431 1062 q 316 1086 363 1062 q 247 1150 270 1110 q 223 1236 223 1190 l 337 1236 q 364 1173 337 1194 q 431 1151 390 1151 q 498 1173 471 1151 q 524 1236 524 1194 l 638 1236 q 615 1150 638 1190 q 545 1086 591 1110 q 431 1062 499 1062 m 441 1258 l 427 1315 q 464 1335 451 1323 q 477 1367 477 1347 q 463 1398 477 1388 q 422 1408 448 1408 q 379 1401 401 1408 q 336 1382 358 1394 l 313 1459 q 364 1478 336 1472 q 424 1485 392 1485 q 521 1457 481 1485 q 561 1375 561 1428 q 532 1300 561 1328 q 441 1258 503 1271 z "},"Ẵ":{"ha":861,"x_min":8,"x_max":853,"o":"m 637 249 l 224 249 l 224 384 l 637 384 l 637 249 m 410 824 l 451 824 l 160 0 l 8 0 l 355 972 l 506 972 l 853 0 l 701 0 l 410 824 m 431 1062 q 316 1086 363 1062 q 247 1150 270 1110 q 223 1236 223 1190 l 337 1236 q 364 1173 337 1194 q 431 1151 390 1151 q 498 1173 471 1151 q 524 1236 524 1194 l 638 1236 q 615 1150 638 1190 q 545 1086 591 1110 q 431 1062 499 1062 m 548 1302 q 481 1317 516 1302 q 413 1345 446 1331 q 353 1360 380 1360 q 307 1310 307 1360 l 210 1310 q 237 1416 210 1380 q 313 1452 263 1452 q 380 1438 345 1452 q 448 1409 415 1424 q 508 1394 481 1394 q 554 1444 554 1394 l 651 1444 q 625 1339 651 1376 q 548 1302 599 1302 z "},"Â":{"ha":861,"x_min":8,"x_max":853,"o":"m 637 249 l 224 249 l 224 384 l 637 384 l 637 249 m 410 824 l 451 824 l 160 0 l 8 0 l 355 972 l 506 972 l 853 0 l 701 0 l 410 824 m 251 1042 l 251 1134 l 431 1260 l 610 1134 l 610 1042 l 431 1137 l 251 1042 z "},"Ấ":{"ha":861,"x_min":8,"x_max":853,"o":"m 637 249 l 224 249 l 224 384 l 637 384 l 637 249 m 410 824 l 451 824 l 160 0 l 8 0 l 355 972 l 506 972 l 853 0 l 701 0 l 410 824 m 251 1042 l 251 1134 l 431 1260 l 610 1134 l 610 1042 l 431 1137 l 251 1042 m 535 1247 l 627 1415 l 773 1415 l 635 1247 l 535 1247 z "},"Ậ":{"ha":861,"x_min":8,"x_max":853,"o":"m 637 249 l 224 249 l 224 384 l 637 384 l 637 249 m 410 824 l 451 824 l 160 0 l 8 0 l 355 972 l 506 972 l 853 0 l 701 0 l 410 824 m 251 1064 l 251 1159 l 431 1313 l 610 1159 l 610 1064 l 431 1176 l 251 1064 z "},"Ầ":{"ha":861,"x_min":8,"x_max":853,"o":"m 637 249 l 224 249 l 224 384 l 637 384 l 637 249 m 410 824 l 451 824 l 160 0 l 8 0 l 355 972 l 506 972 l 853 0 l 701 0 l 410 824 m 251 1042 l 251 1134 l 431 1260 l 610 1134 l 610 1042 l 431 1137 l 251 1042 m 560 1247 l 442 1415 l 581 1415 l 656 1247 l 560 1247 z "},"Ẩ":{"ha":861,"x_min":8,"x_max":853,"o":"m 637 249 l 224 249 l 224 384 l 637 384 l 637 249 m 410 824 l 451 824 l 160 0 l 8 0 l 355 972 l 506 972 l 853 0 l 701 0 l 410 824 m 251 1042 l 251 1134 l 431 1260 l 610 1134 l 610 1042 l 431 1137 l 251 1042 m 564 1211 l 550 1269 q 588 1289 575 1277 q 600 1321 600 1301 q 585 1352 600 1342 q 545 1363 571 1363 q 502 1355 524 1363 q 459 1336 481 1348 l 435 1413 q 487 1433 459 1426 q 547 1440 515 1440 q 644 1411 604 1440 q 684 1329 684 1383 q 656 1253 684 1282 q 564 1211 627 1225 z "},"Ẫ":{"ha":861,"x_min":8,"x_max":853,"o":"m 637 249 l 224 249 l 224 384 l 637 384 l 637 249 m 410 824 l 451 824 l 160 0 l 8 0 l 355 972 l 506 972 l 853 0 l 701 0 l 410 824 m 251 1042 l 251 1134 l 431 1260 l 610 1134 l 610 1042 l 431 1137 l 251 1042 m 548 1314 q 481 1328 516 1314 q 413 1357 446 1343 q 353 1372 380 1372 q 307 1322 307 1372 l 210 1322 q 237 1428 210 1392 q 313 1464 263 1464 q 380 1450 345 1464 q 448 1421 415 1435 q 508 1406 481 1406 q 554 1456 554 1406 l 651 1456 q 625 1351 651 1388 q 548 1314 599 1314 z "},"Ȁ":{"ha":861,"x_min":8,"x_max":853,"o":"m 637 249 l 224 249 l 224 384 l 637 384 l 637 249 m 410 824 l 451 824 l 160 0 l 8 0 l 355 972 l 506 972 l 853 0 l 701 0 l 410 824 m 579 1094 l 480 1094 l 353 1305 l 499 1305 l 579 1094 m 381 1094 l 281 1094 l 147 1305 l 292 1305 l 381 1094 z "},"Ä":{"ha":861,"x_min":8,"x_max":853,"o":"m 637 249 l 224 249 l 224 384 l 637 384 l 637 249 m 410 824 l 451 824 l 160 0 l 8 0 l 355 972 l 506 972 l 853 0 l 701 0 l 410 824 m 232 1097 l 232 1207 l 357 1207 l 357 1097 l 232 1097 m 504 1097 l 504 1207 l 629 1207 l 629 1097 l 504 1097 z "},"Ạ":{"ha":861,"x_min":8,"x_max":853,"o":"m 637 249 l 224 249 l 224 384 l 637 384 l 637 249 m 410 824 l 451 824 l 160 0 l 8 0 l 355 972 l 506 972 l 853 0 l 701 0 l 410 824 z "},"À":{"ha":861,"x_min":8,"x_max":853,"o":"m 637 249 l 224 249 l 224 384 l 637 384 l 637 249 m 410 824 l 451 824 l 160 0 l 8 0 l 355 972 l 506 972 l 853 0 l 701 0 l 410 824 m 563 1058 l 297 1139 l 297 1277 l 563 1145 l 563 1058 z "},"Ả":{"ha":861,"x_min":8,"x_max":853,"o":"m 637 249 l 224 249 l 224 384 l 637 384 l 637 249 m 410 824 l 451 824 l 160 0 l 8 0 l 355 972 l 506 972 l 853 0 l 701 0 l 410 824 m 427 1056 l 413 1114 q 450 1134 438 1122 q 463 1165 463 1146 q 449 1197 463 1187 q 408 1207 434 1207 q 365 1200 387 1207 q 322 1181 344 1192 l 299 1258 q 350 1277 322 1270 q 410 1284 378 1284 q 507 1256 467 1284 q 547 1174 547 1227 q 518 1098 547 1126 q 427 1056 490 1069 z "},"Ȃ":{"ha":861,"x_min":8,"x_max":853,"o":"m 637 249 l 224 249 l 224 384 l 637 384 l 637 249 m 410 824 l 451 824 l 160 0 l 8 0 l 355 972 l 506 972 l 853 0 l 701 0 l 410 824 m 431 1257 q 545 1233 499 1257 q 615 1169 591 1208 q 638 1083 638 1129 l 524 1083 q 498 1146 524 1125 q 431 1167 471 1167 q 364 1146 390 1167 q 337 1083 337 1125 l 223 1083 q 247 1169 223 1129 q 316 1233 270 1208 q 431 1257 363 1257 z "},"Ā":{"ha":861,"x_min":8,"x_max":853,"o":"m 637 249 l 224 249 l 224 384 l 637 384 l 637 249 m 410 824 l 451 824 l 160 0 l 8 0 l 355 972 l 506 972 l 853 0 l 701 0 l 410 824 m 206 1101 l 206 1201 l 655 1201 l 655 1101 l 206 1101 z "},"Ą":{"ha":861,"x_min":8,"x_max":885,"o":"m 637 249 l 224 249 l 224 384 l 637 384 l 637 249 m 410 824 l 451 824 l 160 0 l 8 0 l 355 972 l 506 972 l 853 0 l 701 0 l 410 824 m 740 0 l 819 0 q 741 -72 771 -37 q 711 -146 711 -108 q 730 -197 711 -180 q 778 -214 748 -214 q 823 -208 802 -214 q 864 -192 844 -202 l 885 -264 q 836 -283 865 -274 q 768 -291 806 -291 q 668 -260 709 -291 q 627 -170 627 -228 q 664 -70 627 -115 q 740 0 700 -25 z "},"Å":{"ha":861,"x_min":8,"x_max":853,"o":"m 637 249 l 224 249 l 224 384 l 637 384 l 637 249 m 410 824 l 451 824 l 160 0 l 8 0 l 355 972 l 506 972 l 853 0 l 701 0 l 410 824 m 431 1049 q 323 1090 361 1049 q 285 1185 285 1131 q 323 1280 285 1238 q 431 1321 361 1321 q 539 1280 501 1321 q 576 1185 576 1238 q 539 1090 576 1131 q 431 1049 501 1049 m 431 1115 q 480 1134 459 1115 q 501 1185 501 1153 q 480 1235 501 1215 q 431 1254 460 1254 q 381 1235 402 1254 q 360 1185 360 1215 q 381 1134 360 1153 q 431 1115 402 1115 z "},"Ǻ":{"ha":861,"x_min":8,"x_max":853,"o":"m 637 249 l 224 249 l 224 384 l 637 384 l 637 249 m 410 824 l 451 824 l 160 0 l 8 0 l 355 972 l 506 972 l 853 0 l 701 0 l 410 824 m 431 1049 q 323 1090 361 1049 q 285 1185 285 1131 q 323 1280 285 1238 q 431 1321 361 1321 q 539 1280 501 1321 q 576 1185 576 1238 q 539 1090 576 1131 q 431 1049 501 1049 m 431 1115 q 480 1134 459 1115 q 501 1185 501 1153 q 480 1235 501 1215 q 431 1254 460 1254 q 381 1235 402 1254 q 360 1185 360 1215 q 381 1134 360 1153 q 431 1115 402 1115 m 299 1363 l 299 1449 l 564 1581 l 564 1443 l 299 1363 z "},"Ã":{"ha":861,"x_min":8,"x_max":853,"o":"m 637 249 l 224 249 l 224 384 l 637 384 l 637 249 m 410 824 l 451 824 l 160 0 l 8 0 l 355 972 l 506 972 l 853 0 l 701 0 l 410 824 m 548 1088 q 481 1103 516 1088 q 413 1132 446 1117 q 353 1146 380 1146 q 307 1097 307 1146 l 210 1097 q 237 1202 210 1166 q 313 1238 263 1238 q 380 1224 345 1238 q 448 1195 415 1210 q 508 1181 481 1181 q 554 1230 554 1181 l 651 1230 q 625 1125 651 1162 q 548 1088 599 1088 z "},"Æ":{"ha":1203,"x_min":-12,"x_max":1153,"o":"m -12 0 l 463 972 l 1140 972 l 1140 830 l 716 830 l 716 578 l 1043 578 l 1043 437 l 716 437 l 716 142 l 1153 142 l 1153 0 l 547 0 l 547 826 l 141 0 l -12 0 m 228 244 l 228 390 l 569 390 l 569 244 l 228 244 z "},"Ǽ":{"ha":1203,"x_min":-12,"x_max":1153,"o":"m -12 0 l 463 972 l 1140 972 l 1140 830 l 716 830 l 716 578 l 1043 578 l 1043 437 l 716 437 l 716 142 l 1153 142 l 1153 0 l 547 0 l 547 826 l 141 0 l -12 0 m 228 244 l 228 390 l 569 390 l 569 244 l 228 244 m 669 1058 l 669 1145 l 935 1277 l 935 1139 l 669 1058 z "},"B":{"ha":847,"x_min":109,"x_max":805,"o":"m 109 0 l 109 972 l 442 972 q 648 913 576 972 q 720 736 720 853 q 683 593 720 653 q 573 511 647 533 l 585 538 q 749 453 692 518 q 805 277 805 388 q 722 74 805 148 q 492 0 638 0 l 109 0 m 260 136 l 475 136 q 598 172 552 136 q 644 288 644 208 q 597 408 644 374 q 475 442 549 442 l 260 442 l 260 136 m 260 578 l 421 578 q 528 605 489 578 q 567 707 567 633 q 528 809 567 782 q 421 837 489 837 l 260 837 l 260 578 z "},"C":{"ha":851,"x_min":52,"x_max":808,"o":"m 546 -19 q 290 43 401 -19 q 115 219 178 106 q 52 486 52 333 q 116 753 52 640 q 294 929 181 867 q 551 992 407 992 q 692 976 626 992 q 808 935 758 960 l 791 792 q 679 834 739 817 q 550 851 619 851 q 367 802 440 851 q 255 672 293 754 q 217 486 217 590 q 255 300 217 383 q 365 170 292 218 q 547 122 438 122 q 677 137 618 122 q 791 179 735 153 l 808 37 q 689 -3 754 13 q 546 -19 623 -19 z "},"Ć":{"ha":851,"x_min":52,"x_max":808,"o":"m 546 -19 q 290 43 401 -19 q 115 219 178 106 q 52 486 52 333 q 116 753 52 640 q 294 929 181 867 q 551 992 407 992 q 692 976 626 992 q 808 935 758 960 l 791 792 q 679 834 739 817 q 550 851 619 851 q 367 802 440 851 q 255 672 293 754 q 217 486 217 590 q 255 300 217 383 q 365 170 292 218 q 547 122 438 122 q 677 137 618 122 q 791 179 735 153 l 808 37 q 689 -3 754 13 q 546 -19 623 -19 m 388 1058 l 388 1145 l 653 1277 l 653 1139 l 388 1058 z "},"Č":{"ha":851,"x_min":52,"x_max":808,"o":"m 546 -19 q 290 43 401 -19 q 115 219 178 106 q 52 486 52 333 q 116 753 52 640 q 294 929 181 867 q 551 992 407 992 q 692 976 626 992 q 808 935 758 960 l 791 792 q 679 834 739 817 q 550 851 619 851 q 367 802 440 851 q 255 672 293 754 q 217 486 217 590 q 255 300 217 383 q 365 170 292 218 q 547 122 438 122 q 677 137 618 122 q 791 179 735 153 l 808 37 q 689 -3 754 13 q 546 -19 623 -19 z "},"Ç":{"ha":851,"x_min":52,"x_max":808,"o":"m 546 -19 q 290 43 401 -19 q 115 219 178 106 q 52 486 52 333 q 116 753 52 640 q 294 929 181 867 q 551 992 407 992 q 692 976 626 992 q 808 935 758 960 l 791 792 q 679 834 739 817 q 550 851 619 851 q 367 802 440 851 q 255 672 293 754 q 217 486 217 590 q 255 300 217 383 q 365 170 292 218 q 547 122 438 122 q 677 137 618 122 q 791 179 735 153 l 808 37 q 689 -3 754 13 q 546 -19 623 -19 m 533 -110 l 483 -89 q 516 -79 499 -83 q 551 -75 532 -75 q 642 -106 609 -75 q 676 -191 676 -137 q 632 -288 676 -255 q 524 -322 588 -322 q 461 -314 488 -322 q 414 -295 433 -306 l 437 -222 q 480 -239 458 -232 q 526 -245 501 -245 q 574 -232 556 -245 q 592 -195 592 -219 q 574 -156 592 -170 q 522 -142 557 -142 q 491 -145 506 -142 q 457 -153 475 -147 l 494 0 l 567 0 l 533 -110 z "},"Ḉ":{"ha":851,"x_min":52,"x_max":808,"o":"m 546 -19 q 290 43 401 -19 q 115 219 178 106 q 52 486 52 333 q 116 753 52 640 q 294 929 181 867 q 551 992 407 992 q 692 976 626 992 q 808 935 758 960 l 791 792 q 679 834 739 817 q 550 851 619 851 q 367 802 440 851 q 255 672 293 754 q 217 486 217 590 q 255 300 217 383 q 365 170 292 218 q 547 122 438 122 q 677 137 618 122 q 791 179 735 153 l 808 37 q 689 -3 754 13 q 546 -19 623 -19 m 533 -110 l 483 -89 q 516 -79 499 -83 q 551 -75 532 -75 q 642 -106 609 -75 q 676 -191 676 -137 q 632 -288 676 -255 q 524 -322 588 -322 q 461 -314 488 -322 q 414 -295 433 -306 l 437 -222 q 480 -239 458 -232 q 526 -245 501 -245 q 574 -232 556 -245 q 592 -195 592 -219 q 574 -156 592 -170 q 522 -142 557 -142 q 491 -145 506 -142 q 457 -153 475 -147 l 494 0 l 567 0 l 533 -110 m 388 1058 l 388 1145 l 653 1277 l 653 1139 l 388 1058 z "},"Ĉ":{"ha":851,"x_min":52,"x_max":808,"o":"m 546 -19 q 290 43 401 -19 q 115 219 178 106 q 52 486 52 333 q 116 753 52 640 q 294 929 181 867 q 551 992 407 992 q 692 976 626 992 q 808 935 758 960 l 791 792 q 679 834 739 817 q 550 851 619 851 q 367 802 440 851 q 255 672 293 754 q 217 486 217 590 q 255 300 217 383 q 365 170 292 218 q 547 122 438 122 q 677 137 618 122 q 791 179 735 153 l 808 37 q 689 -3 754 13 q 546 -19 623 -19 m 341 1042 l 341 1134 l 520 1260 l 699 1134 l 699 1042 l 520 1137 l 341 1042 z "},"Ċ":{"ha":851,"x_min":52,"x_max":808,"o":"m 546 -19 q 290 43 401 -19 q 115 219 178 106 q 52 486 52 333 q 116 753 52 640 q 294 929 181 867 q 551 992 407 992 q 692 976 626 992 q 808 935 758 960 l 791 792 q 679 834 739 817 q 550 851 619 851 q 367 802 440 851 q 255 672 293 754 q 217 486 217 590 q 255 300 217 383 q 365 170 292 218 q 547 122 438 122 q 677 137 618 122 q 791 179 735 153 l 808 37 q 689 -3 754 13 q 546 -19 623 -19 m 451 1099 l 451 1228 l 589 1228 l 589 1099 l 451 1099 z "},"D":{"ha":1006,"x_min":109,"x_max":952,"o":"m 109 0 l 109 972 l 471 972 q 720 915 611 972 q 890 748 828 857 q 952 486 952 640 q 890 224 952 333 q 720 58 828 115 q 471 0 611 0 l 109 0 m 260 136 l 471 136 q 645 180 575 136 q 751 302 715 223 q 787 486 787 381 q 751 670 787 592 q 645 793 715 749 q 471 836 575 836 l 260 836 l 260 136 z "},"Ǆ":{"ha":1741,"x_min":109,"x_max":1731,"o":"m 109 0 l 109 972 l 471 972 q 720 915 611 972 q 890 748 828 857 q 952 486 952 640 q 890 224 952 333 q 720 58 828 115 q 471 0 611 0 l 109 0 m 260 136 l 471 136 q 645 180 575 136 q 751 302 715 223 q 787 486 787 381 q 751 670 787 592 q 645 793 715 749 q 471 836 575 836 l 260 836 l 260 136 z "},"Ð":{"ha":1014,"x_min":28,"x_max":960,"o":"m 122 0 l 122 433 l 28 433 l 28 555 l 122 555 l 122 972 l 481 972 q 729 915 621 972 q 899 748 837 857 q 960 486 960 640 q 899 224 960 333 q 729 58 837 115 q 481 0 621 0 l 122 0 m 269 142 l 481 142 q 717 236 638 142 q 797 486 797 329 q 717 738 797 644 q 481 831 638 831 l 269 831 l 269 555 l 448 555 l 448 433 l 269 433 l 269 142 z "},"Ď":{"ha":1006,"x_min":109,"x_max":952,"o":"m 109 0 l 109 972 l 471 972 q 720 915 611 972 q 890 748 828 857 q 952 486 952 640 q 890 224 952 333 q 720 58 828 115 q 471 0 611 0 l 109 0 m 260 136 l 471 136 q 645 180 575 136 q 751 302 715 223 q 787 486 787 381 q 751 670 787 592 q 645 793 715 749 q 471 836 575 836 l 260 836 l 260 136 z "},"Đ":{"ha":1014,"x_min":28,"x_max":960,"o":"m 122 0 l 122 433 l 28 433 l 28 555 l 122 555 l 122 972 l 481 972 q 729 915 621 972 q 899 748 837 857 q 960 486 960 640 q 899 224 960 333 q 729 58 837 115 q 481 0 621 0 l 122 0 m 269 142 l 481 142 q 717 236 638 142 q 797 486 797 329 q 717 738 797 644 q 481 831 638 831 l 269 831 l 269 555 l 448 555 l 448 433 l 269 433 l 269 142 z "},"Ḍ":{"ha":1006,"x_min":109,"x_max":952,"o":"m 109 0 l 109 972 l 471 972 q 720 915 611 972 q 890 748 828 857 q 952 486 952 640 q 890 224 952 333 q 720 58 828 115 q 471 0 611 0 l 109 0 m 260 136 l 471 136 q 645 180 575 136 q 751 302 715 223 q 787 486 787 381 q 751 670 787 592 q 645 793 715 749 q 471 836 575 836 l 260 836 l 260 136 z "},"Ḏ":{"ha":1006,"x_min":109,"x_max":952,"o":"m 109 0 l 109 972 l 471 972 q 720 915 611 972 q 890 748 828 857 q 952 486 952 640 q 890 224 952 333 q 720 58 828 115 q 471 0 611 0 l 109 0 m 260 136 l 471 136 q 645 180 575 136 q 751 302 715 223 q 787 486 787 381 q 751 670 787 592 q 645 793 715 749 q 471 836 575 836 l 260 836 l 260 136 z "},"ǅ":{"ha":1652,"x_min":109,"x_max":1622,"o":"m 109 0 l 109 972 l 471 972 q 720 915 611 972 q 890 748 828 857 q 952 486 952 640 q 890 224 952 333 q 720 58 828 115 q 471 0 611 0 l 109 0 m 260 136 l 471 136 q 645 180 575 136 q 751 302 715 223 q 787 486 787 381 q 751 670 787 592 q 645 793 715 749 q 471 836 575 836 l 260 836 l 260 136 z "},"E":{"ha":778,"x_min":109,"x_max":728,"o":"m 109 0 l 109 972 l 715 972 l 715 831 l 263 831 l 263 578 l 619 578 l 619 437 l 263 437 l 263 142 l 728 142 l 728 0 l 109 0 z "},"É":{"ha":778,"x_min":109,"x_max":728,"o":"m 109 0 l 109 972 l 715 972 l 715 831 l 263 831 l 263 578 l 619 578 l 619 437 l 263 437 l 263 142 l 728 142 l 728 0 l 109 0 m 294 1058 l 294 1145 l 560 1277 l 560 1139 l 294 1058 z "},"Ĕ":{"ha":778,"x_min":109,"x_max":728,"o":"m 109 0 l 109 972 l 715 972 l 715 831 l 263 831 l 263 578 l 619 578 l 619 437 l 263 437 l 263 142 l 728 142 l 728 0 l 109 0 m 426 1062 q 312 1086 358 1062 q 242 1150 266 1110 q 219 1236 219 1190 l 333 1236 q 359 1173 333 1194 q 426 1151 386 1151 q 493 1173 467 1151 q 520 1236 520 1194 l 634 1236 q 610 1150 634 1190 q 541 1086 587 1110 q 426 1062 494 1062 z "},"Ě":{"ha":778,"x_min":109,"x_max":728,"o":"m 109 0 l 109 972 l 715 972 l 715 831 l 263 831 l 263 578 l 619 578 l 619 437 l 263 437 l 263 142 l 728 142 l 728 0 l 109 0 z "},"Ḝ":{"ha":778,"x_min":109,"x_max":728,"o":"m 109 0 l 109 972 l 715 972 l 715 831 l 263 831 l 263 578 l 619 578 l 619 437 l 263 437 l 263 142 l 728 142 l 728 0 l 109 0 m 435 -110 l 385 -89 q 418 -79 402 -83 q 453 -75 435 -75 q 545 -106 512 -75 q 578 -191 578 -137 q 535 -288 578 -255 q 427 -322 491 -322 q 364 -314 391 -322 q 317 -295 336 -306 l 340 -222 q 383 -239 361 -232 q 428 -245 404 -245 q 476 -232 458 -245 q 494 -195 494 -219 q 477 -156 494 -170 q 424 -142 460 -142 q 393 -145 409 -142 q 360 -153 378 -147 l 397 0 l 469 0 l 435 -110 m 426 1062 q 312 1086 358 1062 q 242 1150 266 1110 q 219 1236 219 1190 l 333 1236 q 359 1173 333 1194 q 426 1151 386 1151 q 493 1173 467 1151 q 520 1236 520 1194 l 634 1236 q 610 1150 634 1190 q 541 1086 587 1110 q 426 1062 494 1062 z "},"Ê":{"ha":778,"x_min":109,"x_max":728,"o":"m 109 0 l 109 972 l 715 972 l 715 831 l 263 831 l 263 578 l 619 578 l 619 437 l 263 437 l 263 142 l 728 142 l 728 0 l 109 0 m 247 1042 l 247 1134 l 426 1260 l 606 1134 l 606 1042 l 426 1137 l 247 1042 z "},"Ế":{"ha":778,"x_min":109,"x_max":769,"o":"m 109 0 l 109 972 l 715 972 l 715 831 l 263 831 l 263 578 l 619 578 l 619 437 l 263 437 l 263 142 l 728 142 l 728 0 l 109 0 m 247 1042 l 247 1134 l 426 1260 l 606 1134 l 606 1042 l 426 1137 l 247 1042 m 531 1247 l 623 1415 l 769 1415 l 631 1247 l 531 1247 z "},"Ệ":{"ha":778,"x_min":109,"x_max":728,"o":"m 109 0 l 109 972 l 715 972 l 715 831 l 263 831 l 263 578 l 619 578 l 619 437 l 263 437 l 263 142 l 728 142 l 728 0 l 109 0 m 247 1042 l 247 1134 l 426 1260 l 606 1134 l 606 1042 l 426 1137 l 247 1042 z "},"Ề":{"ha":778,"x_min":109,"x_max":728,"o":"m 109 0 l 109 972 l 715 972 l 715 831 l 263 831 l 263 578 l 619 578 l 619 437 l 263 437 l 263 142 l 728 142 l 728 0 l 109 0 m 247 1042 l 247 1134 l 426 1260 l 606 1134 l 606 1042 l 426 1137 l 247 1042 m 556 1247 l 438 1415 l 576 1415 l 651 1247 l 556 1247 z "},"Ể":{"ha":778,"x_min":109,"x_max":728,"o":"m 109 0 l 109 972 l 715 972 l 715 831 l 263 831 l 263 578 l 619 578 l 619 437 l 263 437 l 263 142 l 728 142 l 728 0 l 109 0 m 247 1042 l 247 1134 l 426 1260 l 606 1134 l 606 1042 l 426 1137 l 247 1042 m 560 1211 l 546 1269 q 583 1289 571 1277 q 596 1321 596 1301 q 581 1352 596 1342 q 541 1363 567 1363 q 498 1355 520 1363 q 455 1336 476 1348 l 431 1413 q 483 1433 455 1426 q 542 1440 511 1440 q 640 1411 600 1440 q 680 1329 680 1383 q 651 1253 680 1282 q 560 1211 623 1225 z "},"Ễ":{"ha":778,"x_min":109,"x_max":728,"o":"m 109 0 l 109 972 l 715 972 l 715 831 l 263 831 l 263 578 l 619 578 l 619 437 l 263 437 l 263 142 l 728 142 l 728 0 l 109 0 m 247 1042 l 247 1134 l 426 1260 l 606 1134 l 606 1042 l 426 1137 l 247 1042 m 544 1314 q 477 1328 512 1314 q 409 1357 442 1343 q 349 1372 376 1372 q 303 1322 303 1372 l 206 1322 q 233 1428 206 1392 q 309 1464 259 1464 q 376 1450 341 1464 q 444 1421 411 1435 q 503 1406 477 1406 q 550 1456 550 1406 l 647 1456 q 620 1351 647 1388 q 544 1314 594 1314 z "},"Ȅ":{"ha":778,"x_min":109,"x_max":728,"o":"m 109 0 l 109 972 l 715 972 l 715 831 l 263 831 l 263 578 l 619 578 l 619 437 l 263 437 l 263 142 l 728 142 l 728 0 l 109 0 m 575 1094 l 476 1094 l 349 1305 l 495 1305 l 575 1094 m 376 1094 l 277 1094 l 142 1305 l 288 1305 l 376 1094 z "},"Ë":{"ha":778,"x_min":109,"x_max":728,"o":"m 109 0 l 109 972 l 715 972 l 715 831 l 263 831 l 263 578 l 619 578 l 619 437 l 263 437 l 263 142 l 728 142 l 728 0 l 109 0 m 228 1097 l 228 1207 l 353 1207 l 353 1097 l 228 1097 m 500 1097 l 500 1207 l 625 1207 l 625 1097 l 500 1097 z "},"Ė":{"ha":778,"x_min":109,"x_max":728,"o":"m 109 0 l 109 972 l 715 972 l 715 831 l 263 831 l 263 578 l 619 578 l 619 437 l 263 437 l 263 142 l 728 142 l 728 0 l 109 0 m 358 1099 l 358 1228 l 495 1228 l 495 1099 l 358 1099 z "},"Ẹ":{"ha":778,"x_min":109,"x_max":728,"o":"m 109 0 l 109 972 l 715 972 l 715 831 l 263 831 l 263 578 l 619 578 l 619 437 l 263 437 l 263 142 l 728 142 l 728 0 l 109 0 z "},"È":{"ha":778,"x_min":109,"x_max":728,"o":"m 109 0 l 109 972 l 715 972 l 715 831 l 263 831 l 263 578 l 619 578 l 619 437 l 263 437 l 263 142 l 728 142 l 728 0 l 109 0 m 558 1058 l 293 1139 l 293 1277 l 558 1145 l 558 1058 z "},"Ẻ":{"ha":778,"x_min":109,"x_max":728,"o":"m 109 0 l 109 972 l 715 972 l 715 831 l 263 831 l 263 578 l 619 578 l 619 437 l 263 437 l 263 142 l 728 142 l 728 0 l 109 0 m 423 1056 l 409 1114 q 446 1134 433 1122 q 459 1165 459 1146 q 444 1197 459 1187 q 404 1207 430 1207 q 361 1200 383 1207 q 318 1181 340 1192 l 294 1258 q 346 1277 318 1270 q 406 1284 374 1284 q 503 1256 463 1284 q 543 1174 543 1227 q 514 1098 543 1126 q 423 1056 485 1069 z "},"Ȇ":{"ha":778,"x_min":109,"x_max":728,"o":"m 109 0 l 109 972 l 715 972 l 715 831 l 263 831 l 263 578 l 619 578 l 619 437 l 263 437 l 263 142 l 728 142 l 728 0 l 109 0 m 426 1257 q 541 1233 494 1257 q 610 1169 587 1208 q 634 1083 634 1129 l 520 1083 q 493 1146 520 1125 q 426 1167 467 1167 q 359 1146 386 1167 q 333 1083 333 1125 l 219 1083 q 242 1169 219 1129 q 312 1233 266 1208 q 426 1257 358 1257 z "},"Ē":{"ha":778,"x_min":109,"x_max":728,"o":"m 109 0 l 109 972 l 715 972 l 715 831 l 263 831 l 263 578 l 619 578 l 619 437 l 263 437 l 263 142 l 728 142 l 728 0 l 109 0 m 202 1101 l 202 1201 l 651 1201 l 651 1101 l 202 1101 z "},"Ḗ":{"ha":778,"x_min":109,"x_max":728,"o":"m 109 0 l 109 972 l 715 972 l 715 831 l 263 831 l 263 578 l 619 578 l 619 437 l 263 437 l 263 142 l 728 142 l 728 0 l 109 0 m 202 1101 l 202 1201 l 651 1201 l 651 1101 l 202 1101 m 294 1297 l 294 1384 l 560 1516 l 560 1378 l 294 1297 z "},"Ḕ":{"ha":778,"x_min":109,"x_max":728,"o":"m 109 0 l 109 972 l 715 972 l 715 831 l 263 831 l 263 578 l 619 578 l 619 437 l 263 437 l 263 142 l 728 142 l 728 0 l 109 0 m 202 1101 l 202 1201 l 651 1201 l 651 1101 l 202 1101 m 558 1297 l 293 1378 l 293 1516 l 558 1384 l 558 1297 z "},"Ę":{"ha":778,"x_min":109,"x_max":794,"o":"m 109 0 l 109 972 l 715 972 l 715 831 l 263 831 l 263 578 l 619 578 l 619 437 l 263 437 l 263 142 l 728 142 l 728 0 l 109 0 m 649 0 l 728 0 q 650 -72 680 -37 q 620 -146 620 -108 q 639 -197 620 -180 q 687 -214 657 -214 q 732 -208 711 -214 q 773 -192 753 -202 l 794 -264 q 745 -283 774 -274 q 677 -291 715 -291 q 577 -260 618 -291 q 536 -170 536 -228 q 573 -70 536 -115 q 649 0 609 -25 z "},"Ẽ":{"ha":778,"x_min":109,"x_max":728,"o":"m 109 0 l 109 972 l 715 972 l 715 831 l 263 831 l 263 578 l 619 578 l 619 437 l 263 437 l 263 142 l 728 142 l 728 0 l 109 0 m 544 1088 q 477 1103 512 1088 q 409 1132 442 1117 q 349 1146 376 1146 q 303 1097 303 1146 l 206 1097 q 233 1202 206 1166 q 309 1238 259 1238 q 376 1224 341 1238 q 444 1195 411 1210 q 503 1181 477 1181 q 550 1230 550 1181 l 647 1230 q 620 1125 647 1162 q 544 1088 594 1088 z "},"F":{"ha":728,"x_min":109,"x_max":705,"o":"m 109 0 l 109 972 l 705 972 l 705 831 l 260 831 l 260 578 l 603 578 l 603 437 l 260 437 l 260 0 l 109 0 z "},"G":{"ha":928,"x_min":52,"x_max":860,"o":"m 534 -19 q 282 43 391 -19 q 113 219 174 106 q 52 488 52 333 q 117 754 52 640 q 296 930 182 867 q 557 992 410 992 q 706 975 635 992 q 828 935 776 959 l 813 797 q 694 835 758 820 q 559 851 631 851 q 366 802 442 851 q 254 672 290 754 q 217 488 217 590 q 255 299 217 382 q 367 169 292 217 q 558 122 443 122 q 631 127 590 122 q 709 144 672 132 l 709 356 l 564 356 l 564 488 l 860 488 l 860 54 q 722 2 806 24 q 534 -19 638 -19 z "},"Ğ":{"ha":928,"x_min":52,"x_max":860,"o":"m 534 -19 q 282 43 391 -19 q 113 219 174 106 q 52 488 52 333 q 117 754 52 640 q 296 930 182 867 q 557 992 410 992 q 706 975 635 992 q 828 935 776 959 l 813 797 q 694 835 758 820 q 559 851 631 851 q 366 802 442 851 q 254 672 290 754 q 217 488 217 590 q 255 299 217 382 q 367 169 292 217 q 558 122 443 122 q 631 127 590 122 q 709 144 672 132 l 709 356 l 564 356 l 564 488 l 860 488 l 860 54 q 722 2 806 24 q 534 -19 638 -19 m 558 1062 q 444 1086 490 1062 q 374 1150 398 1110 q 351 1236 351 1190 l 465 1236 q 491 1173 465 1194 q 558 1151 518 1151 q 625 1173 599 1151 q 652 1236 652 1194 l 766 1236 q 742 1150 766 1190 q 673 1086 719 1110 q 558 1062 626 1062 z "},"Ǧ":{"ha":928,"x_min":52,"x_max":860,"o":"m 534 -19 q 282 43 391 -19 q 113 219 174 106 q 52 488 52 333 q 117 754 52 640 q 296 930 182 867 q 557 992 410 992 q 706 975 635 992 q 828 935 776 959 l 813 797 q 694 835 758 820 q 559 851 631 851 q 366 802 442 851 q 254 672 290 754 q 217 488 217 590 q 255 299 217 382 q 367 169 292 217 q 558 122 443 122 q 631 127 590 122 q 709 144 672 132 l 709 356 l 564 356 l 564 488 l 860 488 l 860 54 q 722 2 806 24 q 534 -19 638 -19 z "},"Ĝ":{"ha":928,"x_min":52,"x_max":860,"o":"m 534 -19 q 282 43 391 -19 q 113 219 174 106 q 52 488 52 333 q 117 754 52 640 q 296 930 182 867 q 557 992 410 992 q 706 975 635 992 q 828 935 776 959 l 813 797 q 694 835 758 820 q 559 851 631 851 q 366 802 442 851 q 254 672 290 754 q 217 488 217 590 q 255 299 217 382 q 367 169 292 217 q 558 122 443 122 q 631 127 590 122 q 709 144 672 132 l 709 356 l 564 356 l 564 488 l 860 488 l 860 54 q 722 2 806 24 q 534 -19 638 -19 m 379 1042 l 379 1134 l 558 1260 l 738 1134 l 738 1042 l 558 1137 l 379 1042 z "},"Ģ":{"ha":928,"x_min":52,"x_max":860,"o":"m 534 -19 q 282 43 391 -19 q 113 219 174 106 q 52 488 52 333 q 117 754 52 640 q 296 930 182 867 q 557 992 410 992 q 706 975 635 992 q 828 935 776 959 l 813 797 q 694 835 758 820 q 559 851 631 851 q 366 802 442 851 q 254 672 290 754 q 217 488 217 590 q 255 299 217 382 q 367 169 292 217 q 558 122 443 122 q 631 127 590 122 q 709 144 672 132 l 709 356 l 564 356 l 564 488 l 860 488 l 860 54 q 722 2 806 24 q 534 -19 638 -19 m 550 -428 l 474 -428 l 524 -278 l 469 -278 l 469 -126 l 628 -126 l 628 -262 l 550 -428 z "},"Ġ":{"ha":928,"x_min":52,"x_max":860,"o":"m 534 -19 q 282 43 391 -19 q 113 219 174 106 q 52 488 52 333 q 117 754 52 640 q 296 930 182 867 q 557 992 410 992 q 706 975 635 992 q 828 935 776 959 l 813 797 q 694 835 758 820 q 559 851 631 851 q 366 802 442 851 q 254 672 290 754 q 217 488 217 590 q 255 299 217 382 q 367 169 292 217 q 558 122 443 122 q 631 127 590 122 q 709 144 672 132 l 709 356 l 564 356 l 564 488 l 860 488 l 860 54 q 722 2 806 24 q 534 -19 638 -19 m 490 1099 l 490 1228 l 627 1228 l 627 1099 l 490 1099 z "},"Ḡ":{"ha":928,"x_min":52,"x_max":860,"o":"m 534 -19 q 282 43 391 -19 q 113 219 174 106 q 52 488 52 333 q 117 754 52 640 q 296 930 182 867 q 557 992 410 992 q 706 975 635 992 q 828 935 776 959 l 813 797 q 694 835 758 820 q 559 851 631 851 q 366 802 442 851 q 254 672 290 754 q 217 488 217 590 q 255 299 217 382 q 367 169 292 217 q 558 122 443 122 q 631 127 590 122 q 709 144 672 132 l 709 356 l 564 356 l 564 488 l 860 488 l 860 54 q 722 2 806 24 q 534 -19 638 -19 m 334 1101 l 334 1201 l 783 1201 l 783 1101 l 334 1101 z "},"H":{"ha":994,"x_min":109,"x_max":885,"o":"m 109 0 l 109 972 l 260 972 l 260 578 l 734 578 l 734 972 l 885 972 l 885 0 l 734 0 l 734 435 l 260 435 l 260 0 l 109 0 z "},"Ħ":{"ha":1033,"x_min":15,"x_max":1017,"o":"m 109 0 l 109 972 l 260 972 l 260 581 l 772 581 l 772 972 l 923 972 l 923 0 l 772 0 l 772 435 l 260 435 l 260 0 l 109 0 m 15 686 l 15 793 l 1017 793 l 1017 686 l 15 686 z "},"Ḫ":{"ha":994,"x_min":109,"x_max":885,"o":"m 109 0 l 109 972 l 260 972 l 260 578 l 734 578 l 734 972 l 885 972 l 885 0 l 734 0 l 734 435 l 260 435 l 260 0 l 109 0 z "},"Ĥ":{"ha":994,"x_min":109,"x_max":885,"o":"m 109 0 l 109 972 l 260 972 l 260 578 l 734 578 l 734 972 l 885 972 l 885 0 l 734 0 l 734 435 l 260 435 l 260 0 l 109 0 m 318 1042 l 318 1134 l 497 1260 l 676 1134 l 676 1042 l 497 1137 l 318 1042 z "},"Ḥ":{"ha":994,"x_min":109,"x_max":885,"o":"m 109 0 l 109 972 l 260 972 l 260 578 l 734 578 l 734 972 l 885 972 l 885 0 l 734 0 l 734 435 l 260 435 l 260 0 l 109 0 z "},"I":{"ha":370,"x_min":109,"x_max":260,"o":"m 109 0 l 109 972 l 260 972 l 260 0 l 109 0 z "},"Ĳ":{"ha":958,"x_min":98,"x_max":860,"o":"m 256 337 q 288 226 265 275 q 358 150 312 178 q 479 122 403 122 q 597 148 552 122 q 667 220 642 174 q 700 327 691 267 q 708 454 708 387 l 708 972 l 860 972 l 860 415 q 818 184 860 281 q 693 34 777 87 q 479 -19 608 -19 q 219 70 311 -19 q 105 315 126 159 l 256 337 m 98 454 l 98 972 l 249 972 l 249 454 l 98 454 z "},"Í":{"ha":370,"x_min":53,"x_max":319,"o":"m 109 0 l 109 972 l 260 972 l 260 0 l 109 0 m 53 1058 l 53 1145 l 319 1277 l 319 1139 l 53 1058 z "},"Ĭ":{"ha":370,"x_min":-22,"x_max":393,"o":"m 109 0 l 109 972 l 260 972 l 260 0 l 109 0 m 185 1062 q 71 1086 117 1062 q 1 1150 25 1110 q -22 1236 -22 1190 l 92 1236 q 118 1173 92 1194 q 185 1151 145 1151 q 252 1173 226 1151 q 279 1236 279 1194 l 393 1236 q 369 1150 393 1190 q 300 1086 346 1110 q 185 1062 253 1062 z "},"Î":{"ha":370,"x_min":6,"x_max":365,"o":"m 109 0 l 109 972 l 260 972 l 260 0 l 109 0 m 6 1042 l 6 1134 l 185 1260 l 365 1134 l 365 1042 l 185 1137 l 6 1042 z "},"Ȉ":{"ha":370,"x_min":-99,"x_max":334,"o":"m 109 0 l 109 972 l 260 972 l 260 0 l 109 0 m 334 1094 l 235 1094 l 108 1305 l 254 1305 l 334 1094 m 135 1094 l 36 1094 l -99 1305 l 47 1305 l 135 1094 z "},"Ï":{"ha":370,"x_min":-13,"x_max":385,"o":"m 109 0 l 109 972 l 260 972 l 260 0 l 109 0 m -13 1097 l -13 1207 l 112 1207 l 112 1097 l -13 1097 m 259 1097 l 259 1207 l 384 1207 l 384 1097 l 259 1097 z "},"Ḯ":{"ha":370,"x_min":-13,"x_max":385,"o":"m 109 0 l 109 972 l 260 972 l 260 0 l 109 0 m -13 1097 l -13 1207 l 112 1207 l 112 1097 l -13 1097 m 259 1097 l 259 1207 l 384 1207 l 384 1097 l 259 1097 m 53 1275 l 53 1362 l 319 1494 l 319 1356 l 53 1275 z "},"İ":{"ha":370,"x_min":109,"x_max":260,"o":"m 109 0 l 109 972 l 260 972 l 260 0 l 109 0 m 117 1099 l 117 1228 l 254 1228 l 254 1099 l 117 1099 z "},"Ị":{"ha":370,"x_min":109,"x_max":260,"o":"m 109 0 l 109 972 l 260 972 l 260 0 l 109 0 z "},"Ì":{"ha":370,"x_min":52,"x_max":317,"o":"m 109 0 l 109 972 l 260 972 l 260 0 l 109 0 m 317 1058 l 52 1139 l 52 1277 l 317 1145 l 317 1058 z "},"Ỉ":{"ha":370,"x_min":53,"x_max":302,"o":"m 109 0 l 109 972 l 260 972 l 260 0 l 109 0 m 182 1056 l 168 1114 q 205 1134 192 1122 q 218 1165 218 1146 q 203 1197 218 1187 q 163 1207 189 1207 q 120 1200 142 1207 q 77 1181 99 1192 l 53 1258 q 105 1277 77 1270 q 165 1284 133 1284 q 262 1256 222 1284 q 302 1174 302 1227 q 273 1098 302 1126 q 182 1056 244 1069 z "},"Ȋ":{"ha":370,"x_min":-22,"x_max":393,"o":"m 109 0 l 109 972 l 260 972 l 260 0 l 109 0 m 185 1257 q 300 1233 253 1257 q 369 1169 346 1208 q 393 1083 393 1129 l 279 1083 q 252 1146 279 1125 q 185 1167 226 1167 q 118 1146 145 1167 q 92 1083 92 1125 l -22 1083 q 1 1169 -22 1129 q 71 1233 25 1208 q 185 1257 117 1257 z "},"Ī":{"ha":370,"x_min":-39,"x_max":410,"o":"m 109 0 l 109 972 l 260 972 l 260 0 l 109 0 m -39 1101 l -39 1201 l 410 1201 l 410 1101 l -39 1101 z "},"Į":{"ha":370,"x_min":69,"x_max":327,"o":"m 109 0 l 109 972 l 260 972 l 260 0 l 109 0 m 182 0 l 260 0 q 183 -72 213 -37 q 153 -146 153 -108 q 171 -197 153 -180 q 219 -214 190 -214 q 265 -208 244 -214 q 306 -192 285 -202 l 327 -264 q 277 -283 307 -274 q 210 -291 248 -291 q 110 -260 151 -291 q 69 -170 69 -228 q 105 -70 69 -115 q 182 0 142 -25 z "},"Ĩ":{"ha":370,"x_min":-35,"x_max":406,"o":"m 109 0 l 109 972 l 260 972 l 260 0 l 109 0 m 303 1088 q 236 1103 271 1088 q 168 1132 201 1117 q 108 1146 135 1146 q 62 1097 62 1146 l -35 1097 q -8 1202 -35 1166 q 68 1238 18 1238 q 135 1224 100 1238 q 203 1195 170 1210 q 263 1181 236 1181 q 309 1230 309 1181 l 406 1230 q 380 1125 406 1162 q 303 1088 353 1088 z "},"J":{"ha":370,"x_min":-18,"x_max":260,"o":"m -1 -239 l -18 -108 q 80 -79 50 -108 q 109 21 109 -49 l 109 972 l 260 972 l 260 -14 q 204 -186 260 -133 q 40 -239 148 -239 l -1 -239 z "},"Ĵ":{"ha":370,"x_min":-18,"x_max":365,"o":"m -1 -239 l -18 -108 q 80 -79 50 -108 q 109 21 109 -49 l 109 972 l 260 972 l 260 -14 q 204 -186 260 -133 q 40 -239 148 -239 l -1 -239 m 6 1042 l 6 1134 l 185 1260 l 365 1134 l 365 1042 l 185 1137 l 6 1042 z "},"K":{"ha":822,"x_min":109,"x_max":817,"o":"m 634 0 l 274 515 l 634 972 l 815 972 l 448 516 l 817 0 l 634 0 m 109 0 l 109 972 l 260 972 l 260 0 l 109 0 z "},"Ķ":{"ha":822,"x_min":109,"x_max":817,"o":"m 634 0 l 274 515 l 634 972 l 815 972 l 448 516 l 817 0 l 634 0 m 109 0 l 109 972 l 260 972 l 260 0 l 109 0 m 463 -428 l 386 -428 l 437 -278 l 382 -278 l 382 -126 l 541 -126 l 541 -262 l 463 -428 z "},"L":{"ha":695,"x_min":109,"x_max":687,"o":"m 109 0 l 109 972 l 260 972 l 260 136 l 687 136 l 687 0 l 109 0 z "},"Ǉ":{"ha":1065,"x_min":109,"x_max":956,"o":"m 109 0 l 109 972 l 260 972 l 260 136 l 687 136 l 687 0 l 109 0 m 694 -239 l 677 -108 q 775 -79 745 -108 q 804 21 804 -49 l 804 972 l 956 972 l 956 -14 q 899 -186 956 -133 q 735 -239 843 -239 l 694 -239 z "},"Ĺ":{"ha":695,"x_min":53,"x_max":687,"o":"m 109 0 l 109 972 l 260 972 l 260 136 l 687 136 l 687 0 l 109 0 m 53 1058 l 53 1145 l 319 1277 l 319 1139 l 53 1058 z "},"Ľ":{"ha":695,"x_min":109,"x_max":687,"o":"m 109 0 l 109 972 l 260 972 l 260 136 l 687 136 l 687 0 l 109 0 m 553 735 l 553 972 l 687 972 l 647 735 l 553 735 z "},"Ļ":{"ha":695,"x_min":109,"x_max":687,"o":"m 109 0 l 109 972 l 260 972 l 260 136 l 687 136 l 687 0 l 109 0 m 401 -428 l 324 -428 l 375 -278 l 320 -278 l 320 -126 l 479 -126 l 479 -262 l 401 -428 z "},"Ŀ":{"ha":695,"x_min":109,"x_max":687,"o":"m 109 0 l 109 972 l 260 972 l 260 136 l 687 136 l 687 0 l 109 0 m 456 459 l 456 617 l 610 617 l 610 459 l 456 459 z "},"Ḷ":{"ha":695,"x_min":109,"x_max":687,"o":"m 109 0 l 109 972 l 260 972 l 260 136 l 687 136 l 687 0 l 109 0 z "},"ǈ":{"ha":1006,"x_min":109,"x_max":923,"o":"m 109 0 l 109 972 l 260 972 l 260 136 l 687 136 l 687 0 l 109 0 m 699 -336 l 684 -221 q 742 -208 722 -219 q 770 -170 763 -197 q 778 -94 778 -143 l 778 686 l 923 686 l 923 -151 q 898 -258 923 -219 q 832 -312 872 -296 q 746 -332 792 -329 l 699 -336 m 778 819 l 778 972 l 923 972 l 923 819 l 778 819 z "},"Ḻ":{"ha":695,"x_min":109,"x_max":687,"o":"m 109 0 l 109 972 l 260 972 l 260 136 l 687 136 l 687 0 l 109 0 z "},"Ł":{"ha":695,"x_min":15,"x_max":687,"o":"m 109 0 l 109 972 l 260 972 l 260 142 l 687 142 l 687 0 l 109 0 m 15 497 l 15 610 l 550 751 l 550 639 l 15 497 z "},"M":{"ha":1140,"x_min":65,"x_max":1076,"o":"m 65 0 l 197 972 l 324 972 l 571 507 l 817 972 l 944 972 l 1076 0 l 917 0 l 822 767 l 862 759 l 572 219 l 278 758 l 319 766 l 223 0 l 65 0 z "},"Ṃ":{"ha":1140,"x_min":65,"x_max":1076,"o":"m 65 0 l 197 972 l 324 972 l 571 507 l 817 972 l 944 972 l 1076 0 l 917 0 l 822 767 l 862 759 l 572 219 l 278 758 l 319 766 l 223 0 l 65 0 z "},"N":{"ha":980,"x_min":109,"x_max":870,"o":"m 109 0 l 109 972 l 266 972 l 718 287 l 718 972 l 870 972 l 870 0 l 744 0 l 260 725 l 260 0 l 109 0 z "},"Ǌ":{"ha":1349,"x_min":109,"x_max":1240,"o":"m 109 0 l 109 972 l 266 972 l 718 287 l 718 972 l 870 972 l 870 0 l 744 0 l 260 725 l 260 0 l 109 0 m 978 -239 l 962 -108 q 1059 -79 1030 -108 q 1089 21 1089 -49 l 1089 972 l 1240 972 l 1240 -14 q 1184 -186 1240 -133 q 1020 -239 1128 -239 l 978 -239 z "},"Ń":{"ha":980,"x_min":109,"x_max":870,"o":"m 109 0 l 109 972 l 266 972 l 718 287 l 718 972 l 870 972 l 870 0 l 744 0 l 260 725 l 260 0 l 109 0 m 360 1058 l 360 1145 l 626 1277 l 626 1139 l 360 1058 z "},"Ň":{"ha":980,"x_min":109,"x_max":870,"o":"m 109 0 l 109 972 l 266 972 l 718 287 l 718 972 l 870 972 l 870 0 l 744 0 l 260 725 l 260 0 l 109 0 z "},"Ņ":{"ha":980,"x_min":109,"x_max":870,"o":"m 109 0 l 109 972 l 266 972 l 718 287 l 718 972 l 870 972 l 870 0 l 744 0 l 260 725 l 260 0 l 109 0 m 505 -428 l 428 -428 l 479 -278 l 424 -278 l 424 -126 l 583 -126 l 583 -262 l 505 -428 z "},"Ṅ":{"ha":980,"x_min":109,"x_max":870,"o":"m 109 0 l 109 972 l 266 972 l 718 287 l 718 972 l 870 972 l 870 0 l 744 0 l 260 725 l 260 0 l 109 0 m 424 1099 l 424 1228 l 561 1228 l 561 1099 l 424 1099 z "},"Ṇ":{"ha":980,"x_min":109,"x_max":870,"o":"m 109 0 l 109 972 l 266 972 l 718 287 l 718 972 l 870 972 l 870 0 l 744 0 l 260 725 l 260 0 l 109 0 z "},"Ŋ":{"ha":991,"x_min":109,"x_max":899,"o":"m 899 69 q 856 -120 899 -45 q 737 -232 813 -195 q 563 -269 661 -269 q 447 -253 503 -269 l 465 -116 q 516 -125 490 -122 q 568 -128 542 -128 q 698 -82 649 -128 q 747 57 747 -35 l 747 594 q 686 784 747 717 q 506 851 626 851 q 360 823 422 851 q 262 751 299 796 l 262 0 l 109 0 l 109 972 l 238 972 l 247 879 q 380 963 304 935 q 542 992 456 992 q 740 944 661 992 q 859 812 819 897 q 899 614 899 727 l 899 69 z "},"ǋ":{"ha":1278,"x_min":109,"x_max":1195,"o":"m 109 0 l 109 972 l 266 972 l 718 287 l 718 972 l 870 972 l 870 0 l 744 0 l 260 725 l 260 0 l 109 0 m 971 -336 l 956 -221 q 1014 -208 994 -219 q 1042 -170 1035 -197 q 1050 -94 1050 -143 l 1050 686 l 1195 686 l 1195 -151 q 1170 -258 1195 -219 q 1104 -312 1144 -296 q 1018 -332 1064 -329 l 971 -336 m 1050 819 l 1050 972 l 1195 972 l 1195 819 l 1050 819 z "},"Ṉ":{"ha":980,"x_min":109,"x_max":870,"o":"m 109 0 l 109 972 l 266 972 l 718 287 l 718 972 l 870 972 l 870 0 l 744 0 l 260 725 l 260 0 l 109 0 z "},"Ñ":{"ha":980,"x_min":109,"x_max":870,"o":"m 109 0 l 109 972 l 266 972 l 718 287 l 718 972 l 870 972 l 870 0 l 744 0 l 260 725 l 260 0 l 109 0 m 610 1088 q 543 1103 578 1088 q 475 1132 508 1117 q 415 1146 442 1146 q 369 1097 369 1146 l 272 1097 q 299 1202 272 1166 q 375 1238 325 1238 q 442 1224 407 1238 q 510 1195 477 1210 q 569 1181 543 1181 q 616 1230 616 1181 l 713 1230 q 686 1125 713 1162 q 610 1088 660 1088 z "},"O":{"ha":1064,"x_min":53,"x_max":1011,"o":"m 532 -19 q 285 43 393 -19 q 115 219 176 106 q 53 486 53 333 q 115 753 53 640 q 285 929 176 867 q 532 992 393 992 q 779 929 671 992 q 949 753 888 867 q 1011 486 1011 640 q 949 219 1011 333 q 779 43 888 106 q 532 -19 671 -19 m 532 127 q 708 174 638 127 q 815 303 779 222 q 851 486 851 385 q 815 669 851 588 q 708 798 779 751 q 532 845 638 845 q 356 798 426 845 q 249 669 285 751 q 213 486 213 588 q 249 303 213 385 q 356 174 285 222 q 532 127 426 127 z "},"Ó":{"ha":1064,"x_min":53,"x_max":1011,"o":"m 532 -19 q 285 43 393 -19 q 115 219 176 106 q 53 486 53 333 q 115 753 53 640 q 285 929 176 867 q 532 992 393 992 q 779 929 671 992 q 949 753 888 867 q 1011 486 1011 640 q 949 219 1011 333 q 779 43 888 106 q 532 -19 671 -19 m 532 127 q 708 174 638 127 q 815 303 779 222 q 851 486 851 385 q 815 669 851 588 q 708 798 779 751 q 532 845 638 845 q 356 798 426 845 q 249 669 285 751 q 213 486 213 588 q 249 303 213 385 q 356 174 285 222 q 532 127 426 127 m 400 1058 l 400 1145 l 665 1277 l 665 1139 l 400 1058 z "},"Ŏ":{"ha":1064,"x_min":53,"x_max":1011,"o":"m 532 -19 q 285 43 393 -19 q 115 219 176 106 q 53 486 53 333 q 115 753 53 640 q 285 929 176 867 q 532 992 393 992 q 779 929 671 992 q 949 753 888 867 q 1011 486 1011 640 q 949 219 1011 333 q 779 43 888 106 q 532 -19 671 -19 m 532 127 q 708 174 638 127 q 815 303 779 222 q 851 486 851 385 q 815 669 851 588 q 708 798 779 751 q 532 845 638 845 q 356 798 426 845 q 249 669 285 751 q 213 486 213 588 q 249 303 213 385 q 356 174 285 222 q 532 127 426 127 m 532 1062 q 418 1086 464 1062 q 348 1150 372 1110 q 324 1236 324 1190 l 438 1236 q 465 1173 438 1194 q 532 1151 492 1151 q 599 1173 572 1151 q 626 1236 626 1194 l 740 1236 q 716 1150 740 1190 q 646 1086 692 1110 q 532 1062 600 1062 z "},"Ô":{"ha":1064,"x_min":53,"x_max":1011,"o":"m 532 -19 q 285 43 393 -19 q 115 219 176 106 q 53 486 53 333 q 115 753 53 640 q 285 929 176 867 q 532 992 393 992 q 779 929 671 992 q 949 753 888 867 q 1011 486 1011 640 q 949 219 1011 333 q 779 43 888 106 q 532 -19 671 -19 m 532 127 q 708 174 638 127 q 815 303 779 222 q 851 486 851 385 q 815 669 851 588 q 708 798 779 751 q 532 845 638 845 q 356 798 426 845 q 249 669 285 751 q 213 486 213 588 q 249 303 213 385 q 356 174 285 222 q 532 127 426 127 m 353 1042 l 353 1134 l 532 1260 l 711 1134 l 711 1042 l 532 1137 l 353 1042 z "},"Ố":{"ha":1064,"x_min":53,"x_max":1011,"o":"m 532 -19 q 285 43 393 -19 q 115 219 176 106 q 53 486 53 333 q 115 753 53 640 q 285 929 176 867 q 532 992 393 992 q 779 929 671 992 q 949 753 888 867 q 1011 486 1011 640 q 949 219 1011 333 q 779 43 888 106 q 532 -19 671 -19 m 532 127 q 708 174 638 127 q 815 303 779 222 q 851 486 851 385 q 815 669 851 588 q 708 798 779 751 q 532 845 638 845 q 356 798 426 845 q 249 669 285 751 q 213 486 213 588 q 249 303 213 385 q 356 174 285 222 q 532 127 426 127 m 353 1042 l 353 1134 l 532 1260 l 711 1134 l 711 1042 l 532 1137 l 353 1042 m 637 1247 l 728 1415 l 874 1415 l 736 1247 l 637 1247 z "},"Ộ":{"ha":1064,"x_min":53,"x_max":1011,"o":"m 532 -19 q 285 43 393 -19 q 115 219 176 106 q 53 486 53 333 q 115 753 53 640 q 285 929 176 867 q 532 992 393 992 q 779 929 671 992 q 949 753 888 867 q 1011 486 1011 640 q 949 219 1011 333 q 779 43 888 106 q 532 -19 671 -19 m 532 127 q 708 174 638 127 q 815 303 779 222 q 851 486 851 385 q 815 669 851 588 q 708 798 779 751 q 532 845 638 845 q 356 798 426 845 q 249 669 285 751 q 213 486 213 588 q 249 303 213 385 q 356 174 285 222 q 532 127 426 127 m 353 1064 l 353 1159 l 532 1313 l 711 1159 l 711 1064 l 532 1176 l 353 1064 z "},"Ồ":{"ha":1064,"x_min":53,"x_max":1011,"o":"m 532 -19 q 285 43 393 -19 q 115 219 176 106 q 53 486 53 333 q 115 753 53 640 q 285 929 176 867 q 532 992 393 992 q 779 929 671 992 q 949 753 888 867 q 1011 486 1011 640 q 949 219 1011 333 q 779 43 888 106 q 532 -19 671 -19 m 532 127 q 708 174 638 127 q 815 303 779 222 q 851 486 851 385 q 815 669 851 588 q 708 798 779 751 q 532 845 638 845 q 356 798 426 845 q 249 669 285 751 q 213 486 213 588 q 249 303 213 385 q 356 174 285 222 q 532 127 426 127 m 353 1042 l 353 1134 l 532 1260 l 711 1134 l 711 1042 l 532 1137 l 353 1042 m 661 1247 l 543 1415 l 682 1415 l 757 1247 l 661 1247 z "},"Ổ":{"ha":1064,"x_min":53,"x_max":1011,"o":"m 532 -19 q 285 43 393 -19 q 115 219 176 106 q 53 486 53 333 q 115 753 53 640 q 285 929 176 867 q 532 992 393 992 q 779 929 671 992 q 949 753 888 867 q 1011 486 1011 640 q 949 219 1011 333 q 779 43 888 106 q 532 -19 671 -19 m 532 127 q 708 174 638 127 q 815 303 779 222 q 851 486 851 385 q 815 669 851 588 q 708 798 779 751 q 532 845 638 845 q 356 798 426 845 q 249 669 285 751 q 213 486 213 588 q 249 303 213 385 q 356 174 285 222 q 532 127 426 127 m 353 1042 l 353 1134 l 532 1260 l 711 1134 l 711 1042 l 532 1137 l 353 1042 m 665 1211 l 651 1269 q 689 1289 676 1277 q 701 1321 701 1301 q 687 1352 701 1342 q 647 1363 672 1363 q 604 1355 626 1363 q 560 1336 582 1348 l 537 1413 q 589 1433 560 1426 q 648 1440 617 1440 q 745 1411 706 1440 q 785 1329 785 1383 q 757 1253 785 1282 q 665 1211 728 1225 z "},"Ỗ":{"ha":1064,"x_min":53,"x_max":1011,"o":"m 532 -19 q 285 43 393 -19 q 115 219 176 106 q 53 486 53 333 q 115 753 53 640 q 285 929 176 867 q 532 992 393 992 q 779 929 671 992 q 949 753 888 867 q 1011 486 1011 640 q 949 219 1011 333 q 779 43 888 106 q 532 -19 671 -19 m 532 127 q 708 174 638 127 q 815 303 779 222 q 851 486 851 385 q 815 669 851 588 q 708 798 779 751 q 532 845 638 845 q 356 798 426 845 q 249 669 285 751 q 213 486 213 588 q 249 303 213 385 q 356 174 285 222 q 532 127 426 127 m 353 1042 l 353 1134 l 532 1260 l 711 1134 l 711 1042 l 532 1137 l 353 1042 m 649 1314 q 582 1328 617 1314 q 514 1357 547 1343 q 455 1372 481 1372 q 408 1322 408 1372 l 312 1322 q 338 1428 312 1392 q 415 1464 365 1464 q 482 1450 447 1464 q 550 1421 517 1435 q 609 1406 583 1406 q 656 1456 656 1406 l 752 1456 q 726 1351 752 1388 q 649 1314 700 1314 z "},"Ȍ":{"ha":1064,"x_min":53,"x_max":1011,"o":"m 532 -19 q 285 43 393 -19 q 115 219 176 106 q 53 486 53 333 q 115 753 53 640 q 285 929 176 867 q 532 992 393 992 q 779 929 671 992 q 949 753 888 867 q 1011 486 1011 640 q 949 219 1011 333 q 779 43 888 106 q 532 -19 671 -19 m 532 127 q 708 174 638 127 q 815 303 779 222 q 851 486 851 385 q 815 669 851 588 q 708 798 779 751 q 532 845 638 845 q 356 798 426 845 q 249 669 285 751 q 213 486 213 588 q 249 303 213 385 q 356 174 285 222 q 532 127 426 127 m 681 1094 l 581 1094 l 455 1305 l 601 1305 l 681 1094 m 482 1094 l 383 1094 l 248 1305 l 394 1305 l 482 1094 z "},"Ö":{"ha":1064,"x_min":53,"x_max":1011,"o":"m 532 -19 q 285 43 393 -19 q 115 219 176 106 q 53 486 53 333 q 115 753 53 640 q 285 929 176 867 q 532 992 393 992 q 779 929 671 992 q 949 753 888 867 q 1011 486 1011 640 q 949 219 1011 333 q 779 43 888 106 q 532 -19 671 -19 m 532 127 q 708 174 638 127 q 815 303 779 222 q 851 486 851 385 q 815 669 851 588 q 708 798 779 751 q 532 845 638 845 q 356 798 426 845 q 249 669 285 751 q 213 486 213 588 q 249 303 213 385 q 356 174 285 222 q 532 127 426 127 m 333 1097 l 333 1207 l 458 1207 l 458 1097 l 333 1097 m 606 1097 l 606 1207 l 731 1207 l 731 1097 l 606 1097 z "},"Ȫ":{"ha":1064,"x_min":53,"x_max":1011,"o":"m 532 -19 q 285 43 393 -19 q 115 219 176 106 q 53 486 53 333 q 115 753 53 640 q 285 929 176 867 q 532 992 393 992 q 779 929 671 992 q 949 753 888 867 q 1011 486 1011 640 q 949 219 1011 333 q 779 43 888 106 q 532 -19 671 -19 m 532 127 q 708 174 638 127 q 815 303 779 222 q 851 486 851 385 q 815 669 851 588 q 708 798 779 751 q 532 845 638 845 q 356 798 426 845 q 249 669 285 751 q 213 486 213 588 q 249 303 213 385 q 356 174 285 222 q 532 127 426 127 m 333 1097 l 333 1207 l 458 1207 l 458 1097 l 333 1097 m 606 1097 l 606 1207 l 731 1207 l 731 1097 l 606 1097 m 308 1317 l 308 1417 l 756 1417 l 756 1317 l 308 1317 z "},"Ȱ":{"ha":1064,"x_min":53,"x_max":1011,"o":"m 532 -19 q 285 43 393 -19 q 115 219 176 106 q 53 486 53 333 q 115 753 53 640 q 285 929 176 867 q 532 992 393 992 q 779 929 671 992 q 949 753 888 867 q 1011 486 1011 640 q 949 219 1011 333 q 779 43 888 106 q 532 -19 671 -19 m 532 127 q 708 174 638 127 q 815 303 779 222 q 851 486 851 385 q 815 669 851 588 q 708 798 779 751 q 532 845 638 845 q 356 798 426 845 q 249 669 285 751 q 213 486 213 588 q 249 303 213 385 q 356 174 285 222 q 532 127 426 127 m 463 1099 l 463 1228 l 601 1228 l 601 1099 l 463 1099 m 308 1340 l 308 1439 l 756 1439 l 756 1340 l 308 1340 z "},"Ọ":{"ha":1064,"x_min":53,"x_max":1011,"o":"m 532 -19 q 285 43 393 -19 q 115 219 176 106 q 53 486 53 333 q 115 753 53 640 q 285 929 176 867 q 532 992 393 992 q 779 929 671 992 q 949 753 888 867 q 1011 486 1011 640 q 949 219 1011 333 q 779 43 888 106 q 532 -19 671 -19 m 532 127 q 708 174 638 127 q 815 303 779 222 q 851 486 851 385 q 815 669 851 588 q 708 798 779 751 q 532 845 638 845 q 356 798 426 845 q 249 669 285 751 q 213 486 213 588 q 249 303 213 385 q 356 174 285 222 q 532 127 426 127 z "},"Ò":{"ha":1064,"x_min":53,"x_max":1011,"o":"m 532 -19 q 285 43 393 -19 q 115 219 176 106 q 53 486 53 333 q 115 753 53 640 q 285 929 176 867 q 532 992 393 992 q 779 929 671 992 q 949 753 888 867 q 1011 486 1011 640 q 949 219 1011 333 q 779 43 888 106 q 532 -19 671 -19 m 532 127 q 708 174 638 127 q 815 303 779 222 q 851 486 851 385 q 815 669 851 588 q 708 798 779 751 q 532 845 638 845 q 356 798 426 845 q 249 669 285 751 q 213 486 213 588 q 249 303 213 385 q 356 174 285 222 q 532 127 426 127 m 664 1058 l 399 1139 l 399 1277 l 664 1145 l 664 1058 z "},"Ỏ":{"ha":1064,"x_min":53,"x_max":1011,"o":"m 532 -19 q 285 43 393 -19 q 115 219 176 106 q 53 486 53 333 q 115 753 53 640 q 285 929 176 867 q 532 992 393 992 q 779 929 671 992 q 949 753 888 867 q 1011 486 1011 640 q 949 219 1011 333 q 779 43 888 106 q 532 -19 671 -19 m 532 127 q 708 174 638 127 q 815 303 779 222 q 851 486 851 385 q 815 669 851 588 q 708 798 779 751 q 532 845 638 845 q 356 798 426 845 q 249 669 285 751 q 213 486 213 588 q 249 303 213 385 q 356 174 285 222 q 532 127 426 127 m 528 1056 l 515 1114 q 552 1134 539 1122 q 565 1165 565 1146 q 550 1197 565 1187 q 510 1207 535 1207 q 467 1200 488 1207 q 424 1181 445 1192 l 400 1258 q 452 1277 424 1270 q 511 1284 480 1284 q 609 1256 569 1284 q 649 1174 649 1227 q 620 1098 649 1126 q 528 1056 591 1069 z "},"Ơ":{"ha":1064,"x_min":53,"x_max":1011,"o":"m 532 -19 q 285 43 393 -19 q 115 219 176 106 q 53 486 53 333 q 115 753 53 640 q 285 929 176 867 q 532 992 393 992 q 779 929 671 992 q 949 753 888 867 q 1011 486 1011 640 q 949 219 1011 333 q 779 43 888 106 q 532 -19 671 -19 m 532 127 q 708 174 638 127 q 815 303 779 222 q 851 486 851 385 q 815 669 851 588 q 708 798 779 751 q 532 845 638 845 q 356 798 426 845 q 249 669 285 751 q 213 486 213 588 q 249 303 213 385 q 356 174 285 222 q 532 127 426 127 m 667 869 l 667 972 q 749 996 719 972 q 778 1075 778 1020 l 910 1075 q 876 970 910 1017 q 788 896 842 923 q 667 869 733 869 z "},"Ớ":{"ha":1064,"x_min":53,"x_max":1011,"o":"m 532 -19 q 285 43 393 -19 q 115 219 176 106 q 53 486 53 333 q 115 753 53 640 q 285 929 176 867 q 532 992 393 992 q 779 929 671 992 q 949 753 888 867 q 1011 486 1011 640 q 949 219 1011 333 q 779 43 888 106 q 532 -19 671 -19 m 532 127 q 708 174 638 127 q 815 303 779 222 q 851 486 851 385 q 815 669 851 588 q 708 798 779 751 q 532 845 638 845 q 356 798 426 845 q 249 669 285 751 q 213 486 213 588 q 249 303 213 385 q 356 174 285 222 q 532 127 426 127 m 667 869 l 667 972 q 749 996 719 972 q 778 1075 778 1020 l 910 1075 q 876 970 910 1017 q 788 896 842 923 q 667 869 733 869 m 400 1058 l 400 1145 l 665 1277 l 665 1139 l 400 1058 z "},"Ợ":{"ha":1064,"x_min":53,"x_max":1011,"o":"m 532 -19 q 285 43 393 -19 q 115 219 176 106 q 53 486 53 333 q 115 753 53 640 q 285 929 176 867 q 532 992 393 992 q 779 929 671 992 q 949 753 888 867 q 1011 486 1011 640 q 949 219 1011 333 q 779 43 888 106 q 532 -19 671 -19 m 532 127 q 708 174 638 127 q 815 303 779 222 q 851 486 851 385 q 815 669 851 588 q 708 798 779 751 q 532 845 638 845 q 356 798 426 845 q 249 669 285 751 q 213 486 213 588 q 249 303 213 385 q 356 174 285 222 q 532 127 426 127 m 667 869 l 667 972 q 749 996 719 972 q 778 1075 778 1020 l 910 1075 q 876 970 910 1017 q 788 896 842 923 q 667 869 733 869 z "},"Ờ":{"ha":1064,"x_min":53,"x_max":1011,"o":"m 532 -19 q 285 43 393 -19 q 115 219 176 106 q 53 486 53 333 q 115 753 53 640 q 285 929 176 867 q 532 992 393 992 q 779 929 671 992 q 949 753 888 867 q 1011 486 1011 640 q 949 219 1011 333 q 779 43 888 106 q 532 -19 671 -19 m 532 127 q 708 174 638 127 q 815 303 779 222 q 851 486 851 385 q 815 669 851 588 q 708 798 779 751 q 532 845 638 845 q 356 798 426 845 q 249 669 285 751 q 213 486 213 588 q 249 303 213 385 q 356 174 285 222 q 532 127 426 127 m 667 869 l 667 972 q 749 996 719 972 q 778 1075 778 1020 l 910 1075 q 876 970 910 1017 q 788 896 842 923 q 667 869 733 869 m 664 1058 l 399 1139 l 399 1277 l 664 1145 l 664 1058 z "},"Ở":{"ha":1064,"x_min":53,"x_max":1011,"o":"m 532 -19 q 285 43 393 -19 q 115 219 176 106 q 53 486 53 333 q 115 753 53 640 q 285 929 176 867 q 532 992 393 992 q 779 929 671 992 q 949 753 888 867 q 1011 486 1011 640 q 949 219 1011 333 q 779 43 888 106 q 532 -19 671 -19 m 532 127 q 708 174 638 127 q 815 303 779 222 q 851 486 851 385 q 815 669 851 588 q 708 798 779 751 q 532 845 638 845 q 356 798 426 845 q 249 669 285 751 q 213 486 213 588 q 249 303 213 385 q 356 174 285 222 q 532 127 426 127 m 667 869 l 667 972 q 749 996 719 972 q 778 1075 778 1020 l 910 1075 q 876 970 910 1017 q 788 896 842 923 q 667 869 733 869 m 528 1056 l 515 1114 q 552 1134 539 1122 q 565 1165 565 1146 q 550 1197 565 1187 q 510 1207 535 1207 q 467 1200 488 1207 q 424 1181 445 1192 l 400 1258 q 452 1277 424 1270 q 511 1284 480 1284 q 609 1256 569 1284 q 649 1174 649 1227 q 620 1098 649 1126 q 528 1056 591 1069 z "},"Ỡ":{"ha":1064,"x_min":53,"x_max":1011,"o":"m 532 -19 q 285 43 393 -19 q 115 219 176 106 q 53 486 53 333 q 115 753 53 640 q 285 929 176 867 q 532 992 393 992 q 779 929 671 992 q 949 753 888 867 q 1011 486 1011 640 q 949 219 1011 333 q 779 43 888 106 q 532 -19 671 -19 m 532 127 q 708 174 638 127 q 815 303 779 222 q 851 486 851 385 q 815 669 851 588 q 708 798 779 751 q 532 845 638 845 q 356 798 426 845 q 249 669 285 751 q 213 486 213 588 q 249 303 213 385 q 356 174 285 222 q 532 127 426 127 m 667 869 l 667 972 q 749 996 719 972 q 778 1075 778 1020 l 910 1075 q 876 970 910 1017 q 788 896 842 923 q 667 869 733 869 m 649 1088 q 582 1103 617 1088 q 514 1132 547 1117 q 455 1146 481 1146 q 408 1097 408 1146 l 312 1097 q 338 1202 312 1166 q 415 1238 365 1238 q 482 1224 447 1238 q 550 1195 517 1210 q 609 1181 583 1181 q 656 1230 656 1181 l 752 1230 q 726 1125 752 1162 q 649 1088 700 1088 z "},"Ő":{"ha":1064,"x_min":53,"x_max":1011,"o":"m 532 -19 q 285 43 393 -19 q 115 219 176 106 q 53 486 53 333 q 115 753 53 640 q 285 929 176 867 q 532 992 393 992 q 779 929 671 992 q 949 753 888 867 q 1011 486 1011 640 q 949 219 1011 333 q 779 43 888 106 q 532 -19 671 -19 m 532 127 q 708 174 638 127 q 815 303 779 222 q 851 486 851 385 q 815 669 851 588 q 708 798 779 751 q 532 845 638 845 q 356 798 426 845 q 249 669 285 751 q 213 486 213 588 q 249 303 213 385 q 356 174 285 222 q 532 127 426 127 m 380 1094 l 472 1305 l 617 1305 l 479 1094 l 380 1094 m 578 1094 l 678 1305 l 825 1305 l 678 1094 l 578 1094 z "},"Ȏ":{"ha":1064,"x_min":53,"x_max":1011,"o":"m 532 -19 q 285 43 393 -19 q 115 219 176 106 q 53 486 53 333 q 115 753 53 640 q 285 929 176 867 q 532 992 393 992 q 779 929 671 992 q 949 753 888 867 q 1011 486 1011 640 q 949 219 1011 333 q 779 43 888 106 q 532 -19 671 -19 m 532 127 q 708 174 638 127 q 815 303 779 222 q 851 486 851 385 q 815 669 851 588 q 708 798 779 751 q 532 845 638 845 q 356 798 426 845 q 249 669 285 751 q 213 486 213 588 q 249 303 213 385 q 356 174 285 222 q 532 127 426 127 m 532 1257 q 646 1233 600 1257 q 716 1169 692 1208 q 740 1083 740 1129 l 626 1083 q 599 1146 626 1125 q 532 1167 572 1167 q 465 1146 492 1167 q 438 1083 438 1125 l 324 1083 q 348 1169 324 1129 q 418 1233 372 1208 q 532 1257 464 1257 z "},"Ō":{"ha":1064,"x_min":53,"x_max":1011,"o":"m 532 -19 q 285 43 393 -19 q 115 219 176 106 q 53 486 53 333 q 115 753 53 640 q 285 929 176 867 q 532 992 393 992 q 779 929 671 992 q 949 753 888 867 q 1011 486 1011 640 q 949 219 1011 333 q 779 43 888 106 q 532 -19 671 -19 m 532 127 q 708 174 638 127 q 815 303 779 222 q 851 486 851 385 q 815 669 851 588 q 708 798 779 751 q 532 845 638 845 q 356 798 426 845 q 249 669 285 751 q 213 486 213 588 q 249 303 213 385 q 356 174 285 222 q 532 127 426 127 m 308 1101 l 308 1201 l 756 1201 l 756 1101 l 308 1101 z "},"Ṓ":{"ha":1064,"x_min":53,"x_max":1011,"o":"m 532 -19 q 285 43 393 -19 q 115 219 176 106 q 53 486 53 333 q 115 753 53 640 q 285 929 176 867 q 532 992 393 992 q 779 929 671 992 q 949 753 888 867 q 1011 486 1011 640 q 949 219 1011 333 q 779 43 888 106 q 532 -19 671 -19 m 532 127 q 708 174 638 127 q 815 303 779 222 q 851 486 851 385 q 815 669 851 588 q 708 798 779 751 q 532 845 638 845 q 356 798 426 845 q 249 669 285 751 q 213 486 213 588 q 249 303 213 385 q 356 174 285 222 q 532 127 426 127 m 308 1101 l 308 1201 l 756 1201 l 756 1101 l 308 1101 m 400 1297 l 400 1384 l 665 1516 l 665 1378 l 400 1297 z "},"Ṑ":{"ha":1064,"x_min":53,"x_max":1011,"o":"m 532 -19 q 285 43 393 -19 q 115 219 176 106 q 53 486 53 333 q 115 753 53 640 q 285 929 176 867 q 532 992 393 992 q 779 929 671 992 q 949 753 888 867 q 1011 486 1011 640 q 949 219 1011 333 q 779 43 888 106 q 532 -19 671 -19 m 532 127 q 708 174 638 127 q 815 303 779 222 q 851 486 851 385 q 815 669 851 588 q 708 798 779 751 q 532 845 638 845 q 356 798 426 845 q 249 669 285 751 q 213 486 213 588 q 249 303 213 385 q 356 174 285 222 q 532 127 426 127 m 308 1101 l 308 1201 l 756 1201 l 756 1101 l 308 1101 m 664 1297 l 399 1378 l 399 1516 l 664 1384 l 664 1297 z "},"Ǫ":{"ha":1064,"x_min":53,"x_max":1011,"o":"m 532 -19 q 285 43 393 -19 q 115 219 176 106 q 53 486 53 333 q 115 753 53 640 q 285 929 176 867 q 532 992 393 992 q 779 929 671 992 q 949 753 888 867 q 1011 486 1011 640 q 949 219 1011 333 q 779 43 888 106 q 532 -19 671 -19 m 532 127 q 708 174 638 127 q 815 303 779 222 q 851 486 851 385 q 815 669 851 588 q 708 798 779 751 q 532 845 638 845 q 356 798 426 845 q 249 669 285 751 q 213 486 213 588 q 249 303 213 385 q 356 174 285 222 q 532 127 426 127 m 574 0 l 652 0 q 574 -72 604 -37 q 544 -146 544 -108 q 563 -197 544 -180 q 611 -214 581 -214 q 656 -208 635 -214 q 697 -192 677 -202 l 719 -264 q 669 -283 699 -274 q 601 -291 640 -291 q 501 -260 542 -291 q 460 -170 460 -228 q 497 -70 460 -115 q 574 0 533 -25 z "},"Ø":{"ha":1064,"x_min":53,"x_max":1011,"o":"m 92 -61 l 840 1033 l 972 1033 l 224 -61 l 92 -61 m 532 -19 q 285 43 393 -19 q 115 219 176 106 q 53 486 53 333 q 115 753 53 640 q 285 929 176 867 q 532 992 393 992 q 779 929 671 992 q 949 753 888 867 q 1011 486 1011 640 q 949 219 1011 333 q 779 43 888 106 q 532 -19 671 -19 m 532 127 q 708 174 638 127 q 815 303 779 222 q 851 486 851 385 q 815 669 851 588 q 708 798 779 751 q 532 845 638 845 q 356 798 426 845 q 249 669 285 751 q 213 486 213 588 q 249 303 213 385 q 356 174 285 222 q 532 127 426 127 z "},"Ǿ":{"ha":1064,"x_min":53,"x_max":1011,"o":"m 92 -61 l 840 1033 l 972 1033 l 224 -61 l 92 -61 m 532 -19 q 285 43 393 -19 q 115 219 176 106 q 53 486 53 333 q 115 753 53 640 q 285 929 176 867 q 532 992 393 992 q 779 929 671 992 q 949 753 888 867 q 1011 486 1011 640 q 949 219 1011 333 q 779 43 888 106 q 532 -19 671 -19 m 532 127 q 708 174 638 127 q 815 303 779 222 q 851 486 851 385 q 815 669 851 588 q 708 798 779 751 q 532 845 638 845 q 356 798 426 845 q 249 669 285 751 q 213 486 213 588 q 249 303 213 385 q 356 174 285 222 q 532 127 426 127 m 399 1058 l 399 1145 l 665 1277 l 665 1139 l 399 1058 z "},"Õ":{"ha":1064,"x_min":53,"x_max":1011,"o":"m 532 -19 q 285 43 393 -19 q 115 219 176 106 q 53 486 53 333 q 115 753 53 640 q 285 929 176 867 q 532 992 393 992 q 779 929 671 992 q 949 753 888 867 q 1011 486 1011 640 q 949 219 1011 333 q 779 43 888 106 q 532 -19 671 -19 m 532 127 q 708 174 638 127 q 815 303 779 222 q 851 486 851 385 q 815 669 851 588 q 708 798 779 751 q 532 845 638 845 q 356 798 426 845 q 249 669 285 751 q 213 486 213 588 q 249 303 213 385 q 356 174 285 222 q 532 127 426 127 m 649 1088 q 582 1103 617 1088 q 514 1132 547 1117 q 455 1146 481 1146 q 408 1097 408 1146 l 312 1097 q 338 1202 312 1166 q 415 1238 365 1238 q 482 1224 447 1238 q 550 1195 517 1210 q 609 1181 583 1181 q 656 1230 656 1181 l 752 1230 q 726 1125 752 1162 q 649 1088 700 1088 z "},"Ṍ":{"ha":1064,"x_min":53,"x_max":1011,"o":"m 532 -19 q 285 43 393 -19 q 115 219 176 106 q 53 486 53 333 q 115 753 53 640 q 285 929 176 867 q 532 992 393 992 q 779 929 671 992 q 949 753 888 867 q 1011 486 1011 640 q 949 219 1011 333 q 779 43 888 106 q 532 -19 671 -19 m 532 127 q 708 174 638 127 q 815 303 779 222 q 851 486 851 385 q 815 669 851 588 q 708 798 779 751 q 532 845 638 845 q 356 798 426 845 q 249 669 285 751 q 213 486 213 588 q 249 303 213 385 q 356 174 285 222 q 532 127 426 127 m 649 1088 q 582 1103 617 1088 q 514 1132 547 1117 q 455 1146 481 1146 q 408 1097 408 1146 l 312 1097 q 338 1202 312 1166 q 415 1238 365 1238 q 482 1224 447 1238 q 550 1195 517 1210 q 609 1181 583 1181 q 656 1230 656 1181 l 752 1230 q 726 1125 752 1162 q 649 1088 700 1088 m 400 1296 l 400 1383 l 665 1515 l 665 1376 l 400 1296 z "},"Ṏ":{"ha":1064,"x_min":53,"x_max":1011,"o":"m 532 -19 q 285 43 393 -19 q 115 219 176 106 q 53 486 53 333 q 115 753 53 640 q 285 929 176 867 q 532 992 393 992 q 779 929 671 992 q 949 753 888 867 q 1011 486 1011 640 q 949 219 1011 333 q 779 43 888 106 q 532 -19 671 -19 m 532 127 q 708 174 638 127 q 815 303 779 222 q 851 486 851 385 q 815 669 851 588 q 708 798 779 751 q 532 845 638 845 q 356 798 426 845 q 249 669 285 751 q 213 486 213 588 q 249 303 213 385 q 356 174 285 222 q 532 127 426 127 m 649 1088 q 582 1103 617 1088 q 514 1132 547 1117 q 455 1146 481 1146 q 408 1097 408 1146 l 312 1097 q 338 1202 312 1166 q 415 1238 365 1238 q 482 1224 447 1238 q 550 1195 517 1210 q 609 1181 583 1181 q 656 1230 656 1181 l 752 1230 q 726 1125 752 1162 q 649 1088 700 1088 m 333 1333 l 333 1444 l 458 1444 l 458 1333 l 333 1333 m 606 1333 l 606 1444 l 731 1444 l 731 1333 l 606 1333 z "},"Ȭ":{"ha":1064,"x_min":53,"x_max":1011,"o":"m 532 -19 q 285 43 393 -19 q 115 219 176 106 q 53 486 53 333 q 115 753 53 640 q 285 929 176 867 q 532 992 393 992 q 779 929 671 992 q 949 753 888 867 q 1011 486 1011 640 q 949 219 1011 333 q 779 43 888 106 q 532 -19 671 -19 m 532 127 q 708 174 638 127 q 815 303 779 222 q 851 486 851 385 q 815 669 851 588 q 708 798 779 751 q 532 845 638 845 q 356 798 426 845 q 249 669 285 751 q 213 486 213 588 q 249 303 213 385 q 356 174 285 222 q 532 127 426 127 m 649 1088 q 582 1103 617 1088 q 514 1132 547 1117 q 455 1146 481 1146 q 408 1097 408 1146 l 312 1097 q 338 1202 312 1166 q 415 1238 365 1238 q 482 1224 447 1238 q 550 1195 517 1210 q 609 1181 583 1181 q 656 1230 656 1181 l 752 1230 q 726 1125 752 1162 q 649 1088 700 1088 m 308 1338 l 308 1438 l 756 1438 l 756 1338 l 308 1338 z "},"Œ":{"ha":1483,"x_min":53,"x_max":1433,"o":"m 522 -19 q 280 43 385 -19 q 113 219 174 106 q 53 486 53 333 q 113 753 53 640 q 280 929 174 867 q 522 992 385 992 q 695 956 614 992 q 839 854 777 921 q 936 694 901 788 q 972 486 972 601 q 936 278 972 371 q 839 118 901 185 q 695 16 777 51 q 522 -19 614 -19 m 526 122 q 699 169 630 122 q 802 300 768 217 q 837 486 837 382 q 802 673 837 590 q 699 803 768 755 q 526 851 630 851 q 353 803 422 851 q 250 673 284 755 q 215 486 215 590 q 250 300 215 382 q 353 169 284 217 q 526 122 422 122 m 849 0 l 849 972 l 1421 972 l 1421 831 l 999 831 l 999 578 l 1323 578 l 1323 437 l 999 437 l 999 142 l 1433 142 l 1433 0 l 849 0 z "},"P":{"ha":808,"x_min":109,"x_max":777,"o":"m 109 0 l 109 972 l 441 972 q 620 940 544 972 q 736 838 696 908 q 777 658 777 769 q 736 476 777 547 q 620 372 696 406 q 442 339 545 339 l 265 339 l 265 0 l 109 0 m 265 470 l 422 470 q 572 515 522 470 q 622 656 622 560 q 574 796 622 751 q 421 841 525 841 l 265 841 l 265 470 z "},"Þ":{"ha":794,"x_min":109,"x_max":762,"o":"m 109 0 l 109 972 l 265 972 l 265 763 l 466 763 q 690 694 617 763 q 762 506 762 626 q 689 319 762 388 q 466 250 617 250 l 265 250 l 265 0 l 109 0 m 265 381 l 452 381 q 570 414 534 381 q 607 506 607 447 q 570 601 607 569 q 452 632 534 632 l 265 632 l 265 381 z "},"Q":{"ha":1064,"x_min":53,"x_max":1011,"o":"m 589 287 l 678 381 l 999 72 l 908 -22 l 589 287 m 532 -19 q 285 43 393 -19 q 115 219 176 106 q 53 486 53 333 q 115 753 53 640 q 285 929 176 867 q 532 992 393 992 q 779 929 671 992 q 949 753 888 867 q 1011 486 1011 640 q 949 219 1011 333 q 779 43 888 106 q 532 -19 671 -19 m 532 127 q 708 174 638 127 q 815 303 779 222 q 851 486 851 385 q 815 669 851 588 q 708 798 779 751 q 532 845 638 845 q 356 798 426 845 q 249 669 285 751 q 213 486 213 588 q 249 303 213 385 q 356 174 285 222 q 532 127 426 127 z "},"R":{"ha":851,"x_min":109,"x_max":828,"o":"m 109 0 l 109 972 l 442 972 q 618 941 543 972 q 735 844 694 909 q 777 677 777 778 q 733 509 777 574 q 610 405 689 443 l 828 0 l 651 0 l 458 372 q 455 372 456 372 q 451 372 453 372 l 265 372 l 265 0 l 109 0 m 265 503 l 421 503 q 572 549 524 503 q 619 673 619 596 q 572 797 619 753 q 424 841 525 841 l 265 841 l 265 503 z "},"Ŕ":{"ha":851,"x_min":109,"x_max":828,"o":"m 109 0 l 109 972 l 442 972 q 618 941 543 972 q 735 844 694 909 q 777 677 777 778 q 733 509 777 574 q 610 405 689 443 l 828 0 l 651 0 l 458 372 q 455 372 456 372 q 451 372 453 372 l 265 372 l 265 0 l 109 0 m 265 503 l 421 503 q 572 549 524 503 q 619 673 619 596 q 572 797 619 753 q 424 841 525 841 l 265 841 l 265 503 m 301 1058 l 301 1145 l 567 1277 l 567 1139 l 301 1058 z "},"Ř":{"ha":851,"x_min":109,"x_max":828,"o":"m 109 0 l 109 972 l 442 972 q 618 941 543 972 q 735 844 694 909 q 777 677 777 778 q 733 509 777 574 q 610 405 689 443 l 828 0 l 651 0 l 458 372 q 455 372 456 372 q 451 372 453 372 l 265 372 l 265 0 l 109 0 m 265 503 l 421 503 q 572 549 524 503 q 619 673 619 596 q 572 797 619 753 q 424 841 525 841 l 265 841 l 265 503 z "},"Ŗ":{"ha":851,"x_min":109,"x_max":828,"o":"m 109 0 l 109 972 l 442 972 q 618 941 543 972 q 735 844 694 909 q 777 677 777 778 q 733 509 777 574 q 610 405 689 443 l 828 0 l 651 0 l 458 372 q 455 372 456 372 q 451 372 453 372 l 265 372 l 265 0 l 109 0 m 265 503 l 421 503 q 572 549 524 503 q 619 673 619 596 q 572 797 619 753 q 424 841 525 841 l 265 841 l 265 503 m 469 -428 l 393 -428 l 444 -278 l 389 -278 l 389 -126 l 548 -126 l 548 -262 l 469 -428 z "},"Ȑ":{"ha":851,"x_min":109,"x_max":828,"o":"m 109 0 l 109 972 l 442 972 q 618 941 543 972 q 735 844 694 909 q 777 677 777 778 q 733 509 777 574 q 610 405 689 443 l 828 0 l 651 0 l 458 372 q 455 372 456 372 q 451 372 453 372 l 265 372 l 265 0 l 109 0 m 265 503 l 421 503 q 572 549 524 503 q 619 673 619 596 q 572 797 619 753 q 424 841 525 841 l 265 841 l 265 503 m 582 1094 l 483 1094 l 356 1305 l 502 1305 l 582 1094 m 383 1094 l 284 1094 l 149 1305 l 295 1305 l 383 1094 z "},"Ṛ":{"ha":851,"x_min":109,"x_max":828,"o":"m 109 0 l 109 972 l 442 972 q 618 941 543 972 q 735 844 694 909 q 777 677 777 778 q 733 509 777 574 q 610 405 689 443 l 828 0 l 651 0 l 458 372 q 455 372 456 372 q 451 372 453 372 l 265 372 l 265 0 l 109 0 m 265 503 l 421 503 q 572 549 524 503 q 619 673 619 596 q 572 797 619 753 q 424 841 525 841 l 265 841 l 265 503 z "},"Ȓ":{"ha":851,"x_min":109,"x_max":828,"o":"m 109 0 l 109 972 l 442 972 q 618 941 543 972 q 735 844 694 909 q 777 677 777 778 q 733 509 777 574 q 610 405 689 443 l 828 0 l 651 0 l 458 372 q 455 372 456 372 q 451 372 453 372 l 265 372 l 265 0 l 109 0 m 265 503 l 421 503 q 572 549 524 503 q 619 673 619 596 q 572 797 619 753 q 424 841 525 841 l 265 841 l 265 503 m 433 1257 q 548 1233 501 1257 q 617 1169 594 1208 q 641 1083 641 1129 l 527 1083 q 500 1146 527 1125 q 433 1167 474 1167 q 366 1146 393 1167 q 340 1083 340 1125 l 226 1083 q 249 1169 226 1129 q 319 1233 273 1208 q 433 1257 365 1257 z "},"Ṟ":{"ha":851,"x_min":109,"x_max":828,"o":"m 109 0 l 109 972 l 442 972 q 618 941 543 972 q 735 844 694 909 q 777 677 777 778 q 733 509 777 574 q 610 405 689 443 l 828 0 l 651 0 l 458 372 q 455 372 456 372 q 451 372 453 372 l 265 372 l 265 0 l 109 0 m 265 503 l 421 503 q 572 549 524 503 q 619 673 619 596 q 572 797 619 753 q 424 841 525 841 l 265 841 l 265 503 z "},"S":{"ha":809,"x_min":69,"x_max":767,"o":"m 389 -19 q 268 -9 329 -19 q 154 16 206 1 q 69 47 102 31 l 88 208 q 184 167 131 187 q 296 135 237 148 q 415 122 355 122 q 549 153 499 122 q 599 251 599 185 q 573 333 599 301 q 493 388 547 365 q 358 437 440 411 q 215 495 280 462 q 111 582 150 528 q 72 723 72 636 q 112 862 72 801 q 230 957 152 923 q 422 992 308 992 q 595 971 515 992 q 730 927 676 951 l 715 769 q 562 831 634 812 q 415 851 490 851 q 282 822 333 851 q 232 729 232 792 q 256 655 232 683 q 328 607 281 627 q 443 565 375 587 q 619 494 547 534 q 729 398 691 455 q 767 257 767 341 q 748 153 767 203 q 685 65 728 104 q 568 3 641 26 q 389 -19 496 -19 z "},"Ś":{"ha":809,"x_min":69,"x_max":767,"o":"m 389 -19 q 268 -9 329 -19 q 154 16 206 1 q 69 47 102 31 l 88 208 q 184 167 131 187 q 296 135 237 148 q 415 122 355 122 q 549 153 499 122 q 599 251 599 185 q 573 333 599 301 q 493 388 547 365 q 358 437 440 411 q 215 495 280 462 q 111 582 150 528 q 72 723 72 636 q 112 862 72 801 q 230 957 152 923 q 422 992 308 992 q 595 971 515 992 q 730 927 676 951 l 715 769 q 562 831 634 812 q 415 851 490 851 q 282 822 333 851 q 232 729 232 792 q 256 655 232 683 q 328 607 281 627 q 443 565 375 587 q 619 494 547 534 q 729 398 691 455 q 767 257 767 341 q 748 153 767 203 q 685 65 728 104 q 568 3 641 26 q 389 -19 496 -19 m 304 1058 l 304 1145 l 569 1277 l 569 1139 l 304 1058 z "},"Ṥ":{"ha":809,"x_min":69,"x_max":767,"o":"m 389 -19 q 268 -9 329 -19 q 154 16 206 1 q 69 47 102 31 l 88 208 q 184 167 131 187 q 296 135 237 148 q 415 122 355 122 q 549 153 499 122 q 599 251 599 185 q 573 333 599 301 q 493 388 547 365 q 358 437 440 411 q 215 495 280 462 q 111 582 150 528 q 72 723 72 636 q 112 862 72 801 q 230 957 152 923 q 422 992 308 992 q 595 971 515 992 q 730 927 676 951 l 715 769 q 562 831 634 812 q 415 851 490 851 q 282 822 333 851 q 232 729 232 792 q 256 655 232 683 q 328 607 281 627 q 443 565 375 587 q 619 494 547 534 q 729 398 691 455 q 767 257 767 341 q 748 153 767 203 q 685 65 728 104 q 568 3 641 26 q 389 -19 496 -19 m 304 1058 l 304 1145 l 569 1277 l 569 1139 l 304 1058 m 367 1338 l 367 1467 l 505 1467 l 505 1338 l 367 1338 z "},"Š":{"ha":809,"x_min":69,"x_max":767,"o":"m 389 -19 q 268 -9 329 -19 q 154 16 206 1 q 69 47 102 31 l 88 208 q 184 167 131 187 q 296 135 237 148 q 415 122 355 122 q 549 153 499 122 q 599 251 599 185 q 573 333 599 301 q 493 388 547 365 q 358 437 440 411 q 215 495 280 462 q 111 582 150 528 q 72 723 72 636 q 112 862 72 801 q 230 957 152 923 q 422 992 308 992 q 595 971 515 992 q 730 927 676 951 l 715 769 q 562 831 634 812 q 415 851 490 851 q 282 822 333 851 q 232 729 232 792 q 256 655 232 683 q 328 607 281 627 q 443 565 375 587 q 619 494 547 534 q 729 398 691 455 q 767 257 767 341 q 748 153 767 203 q 685 65 728 104 q 568 3 641 26 q 389 -19 496 -19 z "},"Ṧ":{"ha":809,"x_min":69,"x_max":767,"o":"m 389 -19 q 268 -9 329 -19 q 154 16 206 1 q 69 47 102 31 l 88 208 q 184 167 131 187 q 296 135 237 148 q 415 122 355 122 q 549 153 499 122 q 599 251 599 185 q 573 333 599 301 q 493 388 547 365 q 358 437 440 411 q 215 495 280 462 q 111 582 150 528 q 72 723 72 636 q 112 862 72 801 q 230 957 152 923 q 422 992 308 992 q 595 971 515 992 q 730 927 676 951 l 715 769 q 562 831 634 812 q 415 851 490 851 q 282 822 333 851 q 232 729 232 792 q 256 655 232 683 q 328 607 281 627 q 443 565 375 587 q 619 494 547 534 q 729 398 691 455 q 767 257 767 341 q 748 153 767 203 q 685 65 728 104 q 568 3 641 26 q 389 -19 496 -19 m 367 1356 l 367 1485 l 505 1485 l 505 1356 l 367 1356 z "},"Ş":{"ha":809,"x_min":69,"x_max":767,"o":"m 389 -19 q 268 -9 329 -19 q 154 16 206 1 q 69 47 102 31 l 88 208 q 184 167 131 187 q 296 135 237 148 q 415 122 355 122 q 549 153 499 122 q 599 251 599 185 q 573 333 599 301 q 493 388 547 365 q 358 437 440 411 q 215 495 280 462 q 111 582 150 528 q 72 723 72 636 q 112 862 72 801 q 230 957 152 923 q 422 992 308 992 q 595 971 515 992 q 730 927 676 951 l 715 769 q 562 831 634 812 q 415 851 490 851 q 282 822 333 851 q 232 729 232 792 q 256 655 232 683 q 328 607 281 627 q 443 565 375 587 q 619 494 547 534 q 729 398 691 455 q 767 257 767 341 q 748 153 767 203 q 685 65 728 104 q 568 3 641 26 q 389 -19 496 -19 m 413 -110 l 363 -89 q 396 -79 380 -83 q 431 -75 413 -75 q 523 -106 490 -75 q 556 -191 556 -137 q 513 -288 556 -255 q 405 -322 469 -322 q 341 -314 369 -322 q 294 -295 314 -306 l 317 -222 q 360 -239 339 -232 q 406 -245 382 -245 q 454 -232 436 -245 q 472 -195 472 -219 q 455 -156 472 -170 q 402 -142 438 -142 q 371 -145 387 -142 q 338 -153 356 -147 l 374 0 l 447 0 l 413 -110 z "},"Ŝ":{"ha":809,"x_min":69,"x_max":767,"o":"m 389 -19 q 268 -9 329 -19 q 154 16 206 1 q 69 47 102 31 l 88 208 q 184 167 131 187 q 296 135 237 148 q 415 122 355 122 q 549 153 499 122 q 599 251 599 185 q 573 333 599 301 q 493 388 547 365 q 358 437 440 411 q 215 495 280 462 q 111 582 150 528 q 72 723 72 636 q 112 862 72 801 q 230 957 152 923 q 422 992 308 992 q 595 971 515 992 q 730 927 676 951 l 715 769 q 562 831 634 812 q 415 851 490 851 q 282 822 333 851 q 232 729 232 792 q 256 655 232 683 q 328 607 281 627 q 443 565 375 587 q 619 494 547 534 q 729 398 691 455 q 767 257 767 341 q 748 153 767 203 q 685 65 728 104 q 568 3 641 26 q 389 -19 496 -19 m 257 1042 l 257 1134 l 436 1260 l 615 1134 l 615 1042 l 436 1137 l 257 1042 z "},"Ș":{"ha":809,"x_min":69,"x_max":767,"o":"m 389 -19 q 268 -9 329 -19 q 154 16 206 1 q 69 47 102 31 l 88 208 q 184 167 131 187 q 296 135 237 148 q 415 122 355 122 q 549 153 499 122 q 599 251 599 185 q 573 333 599 301 q 493 388 547 365 q 358 437 440 411 q 215 495 280 462 q 111 582 150 528 q 72 723 72 636 q 112 862 72 801 q 230 957 152 923 q 422 992 308 992 q 595 971 515 992 q 730 927 676 951 l 715 769 q 562 831 634 812 q 415 851 490 851 q 282 822 333 851 q 232 729 232 792 q 256 655 232 683 q 328 607 281 627 q 443 565 375 587 q 619 494 547 534 q 729 398 691 455 q 767 257 767 341 q 748 153 767 203 q 685 65 728 104 q 568 3 641 26 q 389 -19 496 -19 m 410 -428 l 333 -428 l 384 -278 l 329 -278 l 329 -126 l 488 -126 l 488 -262 l 410 -428 z "},"Ṡ":{"ha":809,"x_min":69,"x_max":767,"o":"m 389 -19 q 268 -9 329 -19 q 154 16 206 1 q 69 47 102 31 l 88 208 q 184 167 131 187 q 296 135 237 148 q 415 122 355 122 q 549 153 499 122 q 599 251 599 185 q 573 333 599 301 q 493 388 547 365 q 358 437 440 411 q 215 495 280 462 q 111 582 150 528 q 72 723 72 636 q 112 862 72 801 q 230 957 152 923 q 422 992 308 992 q 595 971 515 992 q 730 927 676 951 l 715 769 q 562 831 634 812 q 415 851 490 851 q 282 822 333 851 q 232 729 232 792 q 256 655 232 683 q 328 607 281 627 q 443 565 375 587 q 619 494 547 534 q 729 398 691 455 q 767 257 767 341 q 748 153 767 203 q 685 65 728 104 q 568 3 641 26 q 389 -19 496 -19 m 367 1099 l 367 1228 l 505 1228 l 505 1099 l 367 1099 z "},"Ṣ":{"ha":809,"x_min":69,"x_max":767,"o":"m 389 -19 q 268 -9 329 -19 q 154 16 206 1 q 69 47 102 31 l 88 208 q 184 167 131 187 q 296 135 237 148 q 415 122 355 122 q 549 153 499 122 q 599 251 599 185 q 573 333 599 301 q 493 388 547 365 q 358 437 440 411 q 215 495 280 462 q 111 582 150 528 q 72 723 72 636 q 112 862 72 801 q 230 957 152 923 q 422 992 308 992 q 595 971 515 992 q 730 927 676 951 l 715 769 q 562 831 634 812 q 415 851 490 851 q 282 822 333 851 q 232 729 232 792 q 256 655 232 683 q 328 607 281 627 q 443 565 375 587 q 619 494 547 534 q 729 398 691 455 q 767 257 767 341 q 748 153 767 203 q 685 65 728 104 q 568 3 641 26 q 389 -19 496 -19 z "},"Ṩ":{"ha":809,"x_min":69,"x_max":767,"o":"m 389 -19 q 268 -9 329 -19 q 154 16 206 1 q 69 47 102 31 l 88 208 q 184 167 131 187 q 296 135 237 148 q 415 122 355 122 q 549 153 499 122 q 599 251 599 185 q 573 333 599 301 q 493 388 547 365 q 358 437 440 411 q 215 495 280 462 q 111 582 150 528 q 72 723 72 636 q 112 862 72 801 q 230 957 152 923 q 422 992 308 992 q 595 971 515 992 q 730 927 676 951 l 715 769 q 562 831 634 812 q 415 851 490 851 q 282 822 333 851 q 232 729 232 792 q 256 655 232 683 q 328 607 281 627 q 443 565 375 587 q 619 494 547 534 q 729 398 691 455 q 767 257 767 341 q 748 153 767 203 q 685 65 728 104 q 568 3 641 26 q 389 -19 496 -19 m 367 1099 l 367 1228 l 505 1228 l 505 1099 l 367 1099 z "},"ẞ":{"ha":887,"x_min":109,"x_max":841,"o":"m 109 0 l 109 658 q 156 845 109 771 q 288 955 203 919 q 483 992 372 992 q 650 968 575 992 q 778 910 726 945 l 778 787 l 522 497 l 491 573 q 667 544 588 573 q 794 450 747 515 q 841 279 841 385 q 797 112 841 178 q 682 13 753 46 q 525 -19 610 -19 q 448 -14 485 -19 q 374 0 411 -9 l 374 135 q 508 122 437 122 q 633 165 587 122 q 678 283 678 208 q 627 410 678 365 q 474 456 576 456 l 427 456 l 427 578 l 705 894 l 692 813 q 605 846 657 831 q 483 861 553 861 q 321 808 382 861 q 260 661 260 755 l 260 0 l 109 0 z "},"Ə":{"ha":980,"x_min":42,"x_max":927,"o":"m 761 475 q 676 751 761 651 q 428 851 590 851 q 264 830 344 851 q 110 775 183 808 l 90 910 q 253 969 163 946 q 443 992 343 992 q 703 926 594 992 q 869 743 811 860 q 927 472 927 626 q 896 281 927 370 q 806 124 865 192 q 661 19 747 57 q 467 -19 576 -19 q 246 31 342 -19 q 96 175 150 81 q 42 399 42 268 q 44 448 42 422 q 51 502 46 475 l 838 502 l 838 368 l 208 368 q 274 190 210 259 q 471 122 339 122 q 683 214 606 122 q 761 475 761 307 z "},"T":{"ha":753,"x_min":21,"x_max":732,"o":"m 301 0 l 301 831 l 21 831 l 21 972 l 732 972 l 732 831 l 452 831 l 452 0 l 301 0 z "},"Ŧ":{"ha":753,"x_min":21,"x_max":732,"o":"m 301 0 l 301 831 l 21 831 l 21 972 l 732 972 l 732 831 l 452 831 l 452 0 l 301 0 m 114 442 l 114 541 l 638 541 l 638 442 l 114 442 z "},"Ť":{"ha":753,"x_min":21,"x_max":732,"o":"m 301 0 l 301 831 l 21 831 l 21 972 l 732 972 l 732 831 l 452 831 l 452 0 l 301 0 z "},"Ţ":{"ha":753,"x_min":21,"x_max":732,"o":"m 301 0 l 301 831 l 21 831 l 21 972 l 732 972 l 732 831 l 452 831 l 452 0 l 301 0 z "},"Ț":{"ha":753,"x_min":21,"x_max":732,"o":"m 301 0 l 301 831 l 21 831 l 21 972 l 732 972 l 732 831 l 452 831 l 452 0 l 301 0 m 379 -428 l 303 -428 l 353 -278 l 299 -278 l 299 -126 l 458 -126 l 458 -262 l 379 -428 z "},"Ṭ":{"ha":753,"x_min":21,"x_max":732,"o":"m 301 0 l 301 831 l 21 831 l 21 972 l 732 972 l 732 831 l 452 831 l 452 0 l 301 0 z "},"Ṯ":{"ha":753,"x_min":21,"x_max":732,"o":"m 301 0 l 301 831 l 21 831 l 21 972 l 732 972 l 732 831 l 452 831 l 452 0 l 301 0 z "},"U":{"ha":1002,"x_min":98,"x_max":903,"o":"m 501 -19 q 275 34 364 -19 q 142 184 185 87 q 98 415 98 281 l 98 972 l 249 972 l 249 454 q 259 326 249 387 q 296 220 269 266 q 372 148 322 174 q 501 122 422 122 q 630 148 581 122 q 706 220 680 174 q 742 327 733 267 q 752 454 752 387 l 752 972 l 903 972 l 903 415 q 860 184 903 281 q 727 34 816 87 q 501 -19 638 -19 z "},"Ú":{"ha":1002,"x_min":98,"x_max":903,"o":"m 501 -19 q 275 34 364 -19 q 142 184 185 87 q 98 415 98 281 l 98 972 l 249 972 l 249 454 q 259 326 249 387 q 296 220 269 266 q 372 148 322 174 q 501 122 422 122 q 630 148 581 122 q 706 220 680 174 q 742 327 733 267 q 752 454 752 387 l 752 972 l 903 972 l 903 415 q 860 184 903 281 q 727 34 816 87 q 501 -19 638 -19 m 369 1058 l 369 1145 l 634 1277 l 634 1139 l 369 1058 z "},"Ŭ":{"ha":1002,"x_min":98,"x_max":903,"o":"m 501 -19 q 275 34 364 -19 q 142 184 185 87 q 98 415 98 281 l 98 972 l 249 972 l 249 454 q 259 326 249 387 q 296 220 269 266 q 372 148 322 174 q 501 122 422 122 q 630 148 581 122 q 706 220 680 174 q 742 327 733 267 q 752 454 752 387 l 752 972 l 903 972 l 903 415 q 860 184 903 281 q 727 34 816 87 q 501 -19 638 -19 m 501 1062 q 386 1086 433 1062 q 317 1150 340 1110 q 293 1236 293 1190 l 407 1236 q 434 1173 407 1194 q 501 1151 460 1151 q 568 1173 541 1151 q 594 1236 594 1194 l 708 1236 q 685 1150 708 1190 q 615 1086 661 1110 q 501 1062 569 1062 z "},"Û":{"ha":1002,"x_min":98,"x_max":903,"o":"m 501 -19 q 275 34 364 -19 q 142 184 185 87 q 98 415 98 281 l 98 972 l 249 972 l 249 454 q 259 326 249 387 q 296 220 269 266 q 372 148 322 174 q 501 122 422 122 q 630 148 581 122 q 706 220 680 174 q 742 327 733 267 q 752 454 752 387 l 752 972 l 903 972 l 903 415 q 860 184 903 281 q 727 34 816 87 q 501 -19 638 -19 m 322 1042 l 322 1134 l 501 1260 l 680 1134 l 680 1042 l 501 1137 l 322 1042 z "},"Ȕ":{"ha":1002,"x_min":98,"x_max":903,"o":"m 501 -19 q 275 34 364 -19 q 142 184 185 87 q 98 415 98 281 l 98 972 l 249 972 l 249 454 q 259 326 249 387 q 296 220 269 266 q 372 148 322 174 q 501 122 422 122 q 630 148 581 122 q 706 220 680 174 q 742 327 733 267 q 752 454 752 387 l 752 972 l 903 972 l 903 415 q 860 184 903 281 q 727 34 816 87 q 501 -19 638 -19 m 655 1094 l 556 1094 l 418 1333 l 564 1333 l 655 1094 m 456 1094 l 357 1094 l 210 1333 l 357 1333 l 456 1094 z "},"Ü":{"ha":1002,"x_min":98,"x_max":903,"o":"m 501 -19 q 275 34 364 -19 q 142 184 185 87 q 98 415 98 281 l 98 972 l 249 972 l 249 454 q 259 326 249 387 q 296 220 269 266 q 372 148 322 174 q 501 122 422 122 q 630 148 581 122 q 706 220 680 174 q 742 327 733 267 q 752 454 752 387 l 752 972 l 903 972 l 903 415 q 860 184 903 281 q 727 34 816 87 q 501 -19 638 -19 m 302 1097 l 302 1207 l 427 1207 l 427 1097 l 302 1097 m 574 1097 l 574 1207 l 699 1207 l 699 1097 l 574 1097 z "},"Ụ":{"ha":1002,"x_min":98,"x_max":903,"o":"m 501 -19 q 275 34 364 -19 q 142 184 185 87 q 98 415 98 281 l 98 972 l 249 972 l 249 454 q 259 326 249 387 q 296 220 269 266 q 372 148 322 174 q 501 122 422 122 q 630 148 581 122 q 706 220 680 174 q 742 327 733 267 q 752 454 752 387 l 752 972 l 903 972 l 903 415 q 860 184 903 281 q 727 34 816 87 q 501 -19 638 -19 z "},"Ù":{"ha":1002,"x_min":98,"x_max":903,"o":"m 501 -19 q 275 34 364 -19 q 142 184 185 87 q 98 415 98 281 l 98 972 l 249 972 l 249 454 q 259 326 249 387 q 296 220 269 266 q 372 148 322 174 q 501 122 422 122 q 630 148 581 122 q 706 220 680 174 q 742 327 733 267 q 752 454 752 387 l 752 972 l 903 972 l 903 415 q 860 184 903 281 q 727 34 816 87 q 501 -19 638 -19 m 633 1058 l 367 1139 l 367 1277 l 633 1145 l 633 1058 z "},"Ủ":{"ha":1002,"x_min":98,"x_max":903,"o":"m 501 -19 q 275 34 364 -19 q 142 184 185 87 q 98 415 98 281 l 98 972 l 249 972 l 249 454 q 259 326 249 387 q 296 220 269 266 q 372 148 322 174 q 501 122 422 122 q 630 148 581 122 q 706 220 680 174 q 742 327 733 267 q 752 454 752 387 l 752 972 l 903 972 l 903 415 q 860 184 903 281 q 727 34 816 87 q 501 -19 638 -19 m 497 1056 l 483 1114 q 520 1134 508 1122 q 533 1165 533 1146 q 519 1197 533 1187 q 478 1207 504 1207 q 435 1200 457 1207 q 392 1181 414 1192 l 369 1258 q 420 1277 392 1270 q 480 1284 449 1284 q 577 1256 538 1284 q 617 1174 617 1227 q 589 1098 617 1126 q 497 1056 560 1069 z "},"Ư":{"ha":1002,"x_min":98,"x_max":1066,"o":"m 501 -19 q 275 34 364 -19 q 142 184 185 87 q 98 415 98 281 l 98 972 l 249 972 l 249 454 q 259 326 249 387 q 296 220 269 266 q 372 148 322 174 q 501 122 422 122 q 630 148 581 122 q 706 220 680 174 q 742 327 733 267 q 752 454 752 387 l 752 972 l 903 972 l 903 415 q 860 184 903 281 q 727 34 816 87 q 501 -19 638 -19 m 824 869 l 824 972 q 905 996 876 972 q 935 1075 935 1020 l 1066 1075 q 1032 970 1066 1017 q 944 896 999 923 q 824 869 889 869 z "},"Ứ":{"ha":1002,"x_min":98,"x_max":1066,"o":"m 501 -19 q 275 34 364 -19 q 142 184 185 87 q 98 415 98 281 l 98 972 l 249 972 l 249 454 q 259 326 249 387 q 296 220 269 266 q 372 148 322 174 q 501 122 422 122 q 630 148 581 122 q 706 220 680 174 q 742 327 733 267 q 752 454 752 387 l 752 972 l 903 972 l 903 415 q 860 184 903 281 q 727 34 816 87 q 501 -19 638 -19 m 824 869 l 824 972 q 905 996 876 972 q 935 1075 935 1020 l 1066 1075 q 1032 970 1066 1017 q 944 896 999 923 q 824 869 889 869 m 369 1058 l 369 1145 l 634 1277 l 634 1139 l 369 1058 z "},"Ự":{"ha":1002,"x_min":98,"x_max":1066,"o":"m 501 -19 q 275 34 364 -19 q 142 184 185 87 q 98 415 98 281 l 98 972 l 249 972 l 249 454 q 259 326 249 387 q 296 220 269 266 q 372 148 322 174 q 501 122 422 122 q 630 148 581 122 q 706 220 680 174 q 742 327 733 267 q 752 454 752 387 l 752 972 l 903 972 l 903 415 q 860 184 903 281 q 727 34 816 87 q 501 -19 638 -19 m 824 869 l 824 972 q 905 996 876 972 q 935 1075 935 1020 l 1066 1075 q 1032 970 1066 1017 q 944 896 999 923 q 824 869 889 869 z "},"Ừ":{"ha":1002,"x_min":98,"x_max":1066,"o":"m 501 -19 q 275 34 364 -19 q 142 184 185 87 q 98 415 98 281 l 98 972 l 249 972 l 249 454 q 259 326 249 387 q 296 220 269 266 q 372 148 322 174 q 501 122 422 122 q 630 148 581 122 q 706 220 680 174 q 742 327 733 267 q 752 454 752 387 l 752 972 l 903 972 l 903 415 q 860 184 903 281 q 727 34 816 87 q 501 -19 638 -19 m 824 869 l 824 972 q 905 996 876 972 q 935 1075 935 1020 l 1066 1075 q 1032 970 1066 1017 q 944 896 999 923 q 824 869 889 869 m 633 1058 l 367 1139 l 367 1277 l 633 1145 l 633 1058 z "},"Ử":{"ha":1002,"x_min":98,"x_max":1066,"o":"m 501 -19 q 275 34 364 -19 q 142 184 185 87 q 98 415 98 281 l 98 972 l 249 972 l 249 454 q 259 326 249 387 q 296 220 269 266 q 372 148 322 174 q 501 122 422 122 q 630 148 581 122 q 706 220 680 174 q 742 327 733 267 q 752 454 752 387 l 752 972 l 903 972 l 903 415 q 860 184 903 281 q 727 34 816 87 q 501 -19 638 -19 m 824 869 l 824 972 q 905 996 876 972 q 935 1075 935 1020 l 1066 1075 q 1032 970 1066 1017 q 944 896 999 923 q 824 869 889 869 m 497 1056 l 483 1114 q 520 1134 508 1122 q 533 1165 533 1146 q 519 1197 533 1187 q 478 1207 504 1207 q 435 1200 457 1207 q 392 1181 414 1192 l 369 1258 q 420 1277 392 1270 q 480 1284 449 1284 q 577 1256 538 1284 q 617 1174 617 1227 q 589 1098 617 1126 q 497 1056 560 1069 z "},"Ữ":{"ha":1002,"x_min":98,"x_max":1066,"o":"m 501 -19 q 275 34 364 -19 q 142 184 185 87 q 98 415 98 281 l 98 972 l 249 972 l 249 454 q 259 326 249 387 q 296 220 269 266 q 372 148 322 174 q 501 122 422 122 q 630 148 581 122 q 706 220 680 174 q 742 327 733 267 q 752 454 752 387 l 752 972 l 903 972 l 903 415 q 860 184 903 281 q 727 34 816 87 q 501 -19 638 -19 m 824 869 l 824 972 q 905 996 876 972 q 935 1075 935 1020 l 1066 1075 q 1032 970 1066 1017 q 944 896 999 923 q 824 869 889 869 m 618 1088 q 551 1103 586 1088 q 483 1132 516 1117 q 424 1146 450 1146 q 377 1097 377 1146 l 281 1097 q 307 1202 281 1166 q 383 1238 333 1238 q 450 1224 415 1238 q 518 1195 485 1210 q 578 1181 551 1181 q 624 1230 624 1181 l 721 1230 q 695 1125 721 1162 q 618 1088 669 1088 z "},"Ű":{"ha":1002,"x_min":98,"x_max":903,"o":"m 501 -19 q 275 34 364 -19 q 142 184 185 87 q 98 415 98 281 l 98 972 l 249 972 l 249 454 q 259 326 249 387 q 296 220 269 266 q 372 148 322 174 q 501 122 422 122 q 630 148 581 122 q 706 220 680 174 q 742 327 733 267 q 752 454 752 387 l 752 972 l 903 972 l 903 415 q 860 184 903 281 q 727 34 816 87 q 501 -19 638 -19 m 349 1094 l 441 1305 l 587 1305 l 449 1094 l 349 1094 m 548 1094 l 648 1305 l 794 1305 l 647 1094 l 548 1094 z "},"Ȗ":{"ha":1002,"x_min":98,"x_max":903,"o":"m 501 -19 q 275 34 364 -19 q 142 184 185 87 q 98 415 98 281 l 98 972 l 249 972 l 249 454 q 259 326 249 387 q 296 220 269 266 q 372 148 322 174 q 501 122 422 122 q 630 148 581 122 q 706 220 680 174 q 742 327 733 267 q 752 454 752 387 l 752 972 l 903 972 l 903 415 q 860 184 903 281 q 727 34 816 87 q 501 -19 638 -19 m 501 1257 q 615 1233 569 1257 q 685 1169 661 1208 q 708 1083 708 1129 l 594 1083 q 568 1146 594 1125 q 501 1167 541 1167 q 434 1146 460 1167 q 407 1083 407 1125 l 293 1083 q 317 1169 293 1129 q 386 1233 340 1208 q 501 1257 433 1257 z "},"Ū":{"ha":1002,"x_min":98,"x_max":903,"o":"m 501 -19 q 275 34 364 -19 q 142 184 185 87 q 98 415 98 281 l 98 972 l 249 972 l 249 454 q 259 326 249 387 q 296 220 269 266 q 372 148 322 174 q 501 122 422 122 q 630 148 581 122 q 706 220 680 174 q 742 327 733 267 q 752 454 752 387 l 752 972 l 903 972 l 903 415 q 860 184 903 281 q 727 34 816 87 q 501 -19 638 -19 m 276 1101 l 276 1201 l 725 1201 l 725 1101 l 276 1101 z "},"Ṻ":{"ha":1002,"x_min":98,"x_max":903,"o":"m 501 -19 q 275 34 364 -19 q 142 184 185 87 q 98 415 98 281 l 98 972 l 249 972 l 249 454 q 259 326 249 387 q 296 220 269 266 q 372 148 322 174 q 501 122 422 122 q 630 148 581 122 q 706 220 680 174 q 742 327 733 267 q 752 454 752 387 l 752 972 l 903 972 l 903 415 q 860 184 903 281 q 727 34 816 87 q 501 -19 638 -19 m 276 1101 l 276 1201 l 725 1201 l 725 1101 l 276 1101 m 302 1335 l 302 1446 l 427 1446 l 427 1335 l 302 1335 m 574 1335 l 574 1446 l 699 1446 l 699 1335 l 574 1335 z "},"Ų":{"ha":1002,"x_min":98,"x_max":903,"o":"m 501 -19 q 275 34 364 -19 q 142 184 185 87 q 98 415 98 281 l 98 972 l 249 972 l 249 454 q 259 326 249 387 q 296 220 269 266 q 372 148 322 174 q 501 122 422 122 q 630 148 581 122 q 706 220 680 174 q 742 327 733 267 q 752 454 752 387 l 752 972 l 903 972 l 903 415 q 860 184 903 281 q 727 34 816 87 q 501 -19 638 -19 m 561 0 l 640 0 q 562 -72 592 -37 q 532 -146 532 -108 q 550 -197 532 -180 q 599 -214 569 -214 q 644 -208 623 -214 q 685 -192 665 -202 l 706 -264 q 657 -283 686 -274 q 589 -291 627 -291 q 489 -260 530 -291 q 448 -170 448 -228 q 484 -70 448 -115 q 561 0 521 -25 z "},"Ů":{"ha":1002,"x_min":98,"x_max":903,"o":"m 501 -19 q 275 34 364 -19 q 142 184 185 87 q 98 415 98 281 l 98 972 l 249 972 l 249 454 q 259 326 249 387 q 296 220 269 266 q 372 148 322 174 q 501 122 422 122 q 630 148 581 122 q 706 220 680 174 q 742 327 733 267 q 752 454 752 387 l 752 972 l 903 972 l 903 415 q 860 184 903 281 q 727 34 816 87 q 501 -19 638 -19 m 501 1049 q 393 1090 431 1049 q 355 1185 355 1131 q 393 1280 355 1238 q 501 1321 431 1321 q 609 1280 572 1321 q 647 1185 647 1238 q 609 1090 647 1131 q 501 1049 572 1049 m 501 1115 q 550 1134 529 1115 q 571 1185 571 1153 q 550 1235 571 1215 q 501 1254 530 1254 q 451 1235 472 1254 q 431 1185 431 1215 q 451 1134 431 1153 q 501 1115 472 1115 z "},"Ũ":{"ha":1002,"x_min":98,"x_max":903,"o":"m 501 -19 q 275 34 364 -19 q 142 184 185 87 q 98 415 98 281 l 98 972 l 249 972 l 249 454 q 259 326 249 387 q 296 220 269 266 q 372 148 322 174 q 501 122 422 122 q 630 148 581 122 q 706 220 680 174 q 742 327 733 267 q 752 454 752 387 l 752 972 l 903 972 l 903 415 q 860 184 903 281 q 727 34 816 87 q 501 -19 638 -19 m 618 1088 q 551 1103 586 1088 q 483 1132 516 1117 q 424 1146 450 1146 q 377 1097 377 1146 l 281 1097 q 307 1202 281 1166 q 383 1238 333 1238 q 450 1224 415 1238 q 518 1195 485 1210 q 578 1181 551 1181 q 624 1230 624 1181 l 721 1230 q 695 1125 721 1162 q 618 1088 669 1088 z "},"Ṹ":{"ha":1002,"x_min":98,"x_max":903,"o":"m 501 -19 q 275 34 364 -19 q 142 184 185 87 q 98 415 98 281 l 98 972 l 249 972 l 249 454 q 259 326 249 387 q 296 220 269 266 q 372 148 322 174 q 501 122 422 122 q 630 148 581 122 q 706 220 680 174 q 742 327 733 267 q 752 454 752 387 l 752 972 l 903 972 l 903 415 q 860 184 903 281 q 727 34 816 87 q 501 -19 638 -19 m 618 1088 q 551 1103 586 1088 q 483 1132 516 1117 q 424 1146 450 1146 q 377 1097 377 1146 l 281 1097 q 307 1202 281 1166 q 383 1238 333 1238 q 450 1224 415 1238 q 518 1195 485 1210 q 578 1181 551 1181 q 624 1230 624 1181 l 721 1230 q 695 1125 721 1162 q 618 1088 669 1088 m 369 1296 l 369 1383 l 634 1515 l 634 1376 l 369 1296 z "},"V":{"ha":853,"x_min":3,"x_max":849,"o":"m 351 0 l 3 972 l 159 972 l 445 162 l 407 162 l 693 972 l 849 972 l 502 0 l 351 0 z "},"W":{"ha":1324,"x_min":9,"x_max":1317,"o":"m 283 0 l 9 972 l 167 972 l 368 218 l 597 961 l 729 961 l 962 226 l 1159 972 l 1317 972 l 1038 0 l 891 0 l 663 726 l 435 0 l 283 0 z "},"Ẃ":{"ha":1324,"x_min":9,"x_max":1317,"o":"m 283 0 l 9 972 l 167 972 l 368 218 l 597 961 l 729 961 l 962 226 l 1159 972 l 1317 972 l 1038 0 l 891 0 l 663 726 l 435 0 l 283 0 m 533 1058 l 533 1145 l 798 1277 l 798 1139 l 533 1058 z "},"Ŵ":{"ha":1324,"x_min":9,"x_max":1317,"o":"m 283 0 l 9 972 l 167 972 l 368 218 l 597 961 l 729 961 l 962 226 l 1159 972 l 1317 972 l 1038 0 l 891 0 l 663 726 l 435 0 l 283 0 m 485 1042 l 485 1134 l 665 1260 l 844 1134 l 844 1042 l 665 1137 l 485 1042 z "},"Ẅ":{"ha":1324,"x_min":9,"x_max":1317,"o":"m 283 0 l 9 972 l 167 972 l 368 218 l 597 961 l 729 961 l 962 226 l 1159 972 l 1317 972 l 1038 0 l 891 0 l 663 726 l 435 0 l 283 0 m 466 1097 l 466 1207 l 591 1207 l 591 1097 l 466 1097 m 738 1097 l 738 1207 l 863 1207 l 863 1097 l 738 1097 z "},"Ẁ":{"ha":1324,"x_min":9,"x_max":1317,"o":"m 283 0 l 9 972 l 167 972 l 368 218 l 597 961 l 729 961 l 962 226 l 1159 972 l 1317 972 l 1038 0 l 891 0 l 663 726 l 435 0 l 283 0 m 797 1058 l 531 1139 l 531 1277 l 797 1145 l 797 1058 z "},"X":{"ha":843,"x_min":2,"x_max":841,"o":"m 2 0 l 337 494 l 13 972 l 184 972 l 422 620 l 659 972 l 831 972 l 507 494 l 841 0 l 669 0 l 422 367 l 174 0 l 2 0 z "},"Y":{"ha":809,"x_min":-13,"x_max":822,"o":"m 329 0 l 329 409 l -13 972 l 156 972 l 440 491 l 369 491 l 653 972 l 822 972 l 481 409 l 481 0 l 329 0 z "},"Ý":{"ha":809,"x_min":-13,"x_max":822,"o":"m 329 0 l 329 409 l -13 972 l 156 972 l 440 491 l 369 491 l 653 972 l 822 972 l 481 409 l 481 0 l 329 0 m 272 1058 l 272 1145 l 538 1277 l 538 1139 l 272 1058 z "},"Ŷ":{"ha":809,"x_min":-13,"x_max":822,"o":"m 329 0 l 329 409 l -13 972 l 156 972 l 440 491 l 369 491 l 653 972 l 822 972 l 481 409 l 481 0 l 329 0 m 225 1042 l 225 1134 l 404 1260 l 583 1134 l 583 1042 l 404 1137 l 225 1042 z "},"Ÿ":{"ha":809,"x_min":-13,"x_max":822,"o":"m 329 0 l 329 409 l -13 972 l 156 972 l 440 491 l 369 491 l 653 972 l 822 972 l 481 409 l 481 0 l 329 0 m 206 1097 l 206 1207 l 331 1207 l 331 1097 l 206 1097 m 478 1097 l 478 1207 l 603 1207 l 603 1097 l 478 1097 z "},"Ẏ":{"ha":809,"x_min":-13,"x_max":822,"o":"m 329 0 l 329 409 l -13 972 l 156 972 l 440 491 l 369 491 l 653 972 l 822 972 l 481 409 l 481 0 l 329 0 m 335 1099 l 335 1228 l 473 1228 l 473 1099 l 335 1099 z "},"Ỵ":{"ha":809,"x_min":-13,"x_max":822,"o":"m 329 0 l 329 409 l -13 972 l 156 972 l 440 491 l 369 491 l 653 972 l 822 972 l 481 409 l 481 0 l 329 0 z "},"Ỳ":{"ha":809,"x_min":-13,"x_max":822,"o":"m 329 0 l 329 409 l -13 972 l 156 972 l 440 491 l 369 491 l 653 972 l 822 972 l 481 409 l 481 0 l 329 0 m 536 1058 l 271 1139 l 271 1277 l 536 1145 l 536 1058 z "},"Ỷ":{"ha":809,"x_min":-13,"x_max":822,"o":"m 329 0 l 329 409 l -13 972 l 156 972 l 440 491 l 369 491 l 653 972 l 822 972 l 481 409 l 481 0 l 329 0 m 401 1056 l 387 1114 q 424 1134 411 1122 q 437 1165 437 1146 q 422 1197 437 1187 q 382 1207 408 1207 q 339 1200 360 1207 q 296 1181 317 1192 l 272 1258 q 324 1277 296 1270 q 383 1284 352 1284 q 481 1256 441 1284 q 521 1174 521 1227 q 492 1098 521 1126 q 401 1056 463 1069 z "},"Ȳ":{"ha":809,"x_min":-13,"x_max":822,"o":"m 329 0 l 329 409 l -13 972 l 156 972 l 440 491 l 369 491 l 653 972 l 822 972 l 481 409 l 481 0 l 329 0 m 180 1101 l 180 1201 l 628 1201 l 628 1101 l 180 1101 z "},"Ỹ":{"ha":809,"x_min":-13,"x_max":822,"o":"m 329 0 l 329 409 l -13 972 l 156 972 l 440 491 l 369 491 l 653 972 l 822 972 l 481 409 l 481 0 l 329 0 m 522 1088 q 455 1103 490 1088 q 386 1132 419 1117 q 327 1146 353 1146 q 281 1097 281 1146 l 184 1097 q 210 1202 184 1166 q 287 1238 237 1238 q 354 1224 319 1238 q 422 1195 389 1210 q 481 1181 455 1181 q 528 1230 528 1181 l 624 1230 q 598 1125 624 1162 q 522 1088 572 1088 z "},"Z":{"ha":762,"x_min":12,"x_max":752,"o":"m 12 0 l 544 889 l 571 836 l 74 836 l 74 972 l 752 972 l 219 83 l 192 136 l 745 136 l 745 0 l 12 0 z "},"Ź":{"ha":762,"x_min":12,"x_max":752,"o":"m 12 0 l 544 889 l 571 836 l 74 836 l 74 972 l 752 972 l 219 83 l 192 136 l 745 136 l 745 0 l 12 0 m 281 1058 l 281 1145 l 547 1277 l 547 1139 l 281 1058 z "},"Ž":{"ha":762,"x_min":12,"x_max":752,"o":"m 12 0 l 544 889 l 571 836 l 74 836 l 74 972 l 752 972 l 219 83 l 192 136 l 745 136 l 745 0 l 12 0 z "},"Ż":{"ha":762,"x_min":12,"x_max":752,"o":"m 12 0 l 544 889 l 571 836 l 74 836 l 74 972 l 752 972 l 219 83 l 192 136 l 745 136 l 745 0 l 12 0 m 344 1099 l 344 1228 l 482 1228 l 482 1099 l 344 1099 z "},"Ẓ":{"ha":762,"x_min":12,"x_max":752,"o":"m 12 0 l 544 889 l 571 836 l 74 836 l 74 972 l 752 972 l 219 83 l 192 136 l 745 136 l 745 0 l 12 0 z "},"a":{"ha":677,"x_min":31,"x_max":665,"o":"m 238 -14 q 131 11 178 -14 q 58 82 85 37 q 31 188 31 127 q 58 288 31 247 q 128 357 84 329 q 224 401 172 385 q 331 425 276 417 q 431 433 385 433 q 397 543 431 515 q 293 572 363 572 q 208 560 251 572 q 109 515 164 548 l 92 633 q 204 681 142 663 q 332 699 266 699 q 469 670 415 699 q 550 574 523 641 q 577 393 577 506 l 577 233 q 582 155 577 183 q 601 115 586 127 q 648 103 617 103 l 665 103 l 647 -14 l 615 -14 q 532 -3 563 -14 q 481 29 500 8 q 448 78 461 49 q 357 11 411 36 q 238 -14 302 -14 m 282 100 q 362 119 321 100 q 432 174 403 139 l 432 335 q 298 316 354 331 q 212 272 242 301 q 182 195 182 242 q 208 123 182 145 q 282 100 235 100 z "},"á":{"ha":677,"x_min":31,"x_max":665,"o":"m 238 -14 q 131 11 178 -14 q 58 82 85 37 q 31 188 31 127 q 58 288 31 247 q 128 357 84 329 q 224 401 172 385 q 331 425 276 417 q 431 433 385 433 q 397 543 431 515 q 293 572 363 572 q 208 560 251 572 q 109 515 164 548 l 92 633 q 204 681 142 663 q 332 699 266 699 q 469 670 415 699 q 550 574 523 641 q 577 393 577 506 l 577 233 q 582 155 577 183 q 601 115 586 127 q 648 103 617 103 l 665 103 l 647 -14 l 615 -14 q 532 -3 563 -14 q 481 29 500 8 q 448 78 461 49 q 357 11 411 36 q 238 -14 302 -14 m 282 100 q 362 119 321 100 q 432 174 403 139 l 432 335 q 298 316 354 331 q 212 272 242 301 q 182 195 182 242 q 208 123 182 145 q 282 100 235 100 m 200 797 l 200 892 l 465 1046 l 465 899 l 200 797 z "},"ă":{"ha":677,"x_min":31,"x_max":665,"o":"m 238 -14 q 131 11 178 -14 q 58 82 85 37 q 31 188 31 127 q 58 288 31 247 q 128 357 84 329 q 224 401 172 385 q 331 425 276 417 q 431 433 385 433 q 397 543 431 515 q 293 572 363 572 q 208 560 251 572 q 109 515 164 548 l 92 633 q 204 681 142 663 q 332 699 266 699 q 469 670 415 699 q 550 574 523 641 q 577 393 577 506 l 577 233 q 582 155 577 183 q 601 115 586 127 q 648 103 617 103 l 665 103 l 647 -14 l 615 -14 q 532 -3 563 -14 q 481 29 500 8 q 448 78 461 49 q 357 11 411 36 q 238 -14 302 -14 m 282 100 q 362 119 321 100 q 432 174 403 139 l 432 335 q 298 316 354 331 q 212 272 242 301 q 182 195 182 242 q 208 123 182 145 q 282 100 235 100 m 332 806 q 218 832 264 806 q 148 899 172 858 q 124 990 124 941 l 238 990 q 265 926 238 948 q 332 903 292 903 q 399 926 372 903 q 426 990 426 948 l 540 990 q 516 899 540 941 q 446 832 492 858 q 332 806 400 806 z "},"ắ":{"ha":677,"x_min":31,"x_max":665,"o":"m 238 -14 q 131 11 178 -14 q 58 82 85 37 q 31 188 31 127 q 58 288 31 247 q 128 357 84 329 q 224 401 172 385 q 331 425 276 417 q 431 433 385 433 q 397 543 431 515 q 293 572 363 572 q 208 560 251 572 q 109 515 164 548 l 92 633 q 204 681 142 663 q 332 699 266 699 q 469 670 415 699 q 550 574 523 641 q 577 393 577 506 l 577 233 q 582 155 577 183 q 601 115 586 127 q 648 103 617 103 l 665 103 l 647 -14 l 615 -14 q 532 -3 563 -14 q 481 29 500 8 q 448 78 461 49 q 357 11 411 36 q 238 -14 302 -14 m 282 100 q 362 119 321 100 q 432 174 403 139 l 432 335 q 298 316 354 331 q 212 272 242 301 q 182 195 182 242 q 208 123 182 145 q 282 100 235 100 m 332 776 q 218 800 264 776 q 148 864 172 824 q 124 950 124 903 l 238 950 q 265 887 238 908 q 332 865 292 865 q 399 887 372 865 q 426 950 426 908 l 540 950 q 516 864 540 903 q 446 800 492 824 q 332 776 400 776 m 200 1012 l 200 1099 l 465 1231 l 465 1092 l 200 1012 z "},"ặ":{"ha":677,"x_min":31,"x_max":665,"o":"m 238 -14 q 131 11 178 -14 q 58 82 85 37 q 31 188 31 127 q 58 288 31 247 q 128 357 84 329 q 224 401 172 385 q 331 425 276 417 q 431 433 385 433 q 397 543 431 515 q 293 572 363 572 q 208 560 251 572 q 109 515 164 548 l 92 633 q 204 681 142 663 q 332 699 266 699 q 469 670 415 699 q 550 574 523 641 q 577 393 577 506 l 577 233 q 582 155 577 183 q 601 115 586 127 q 648 103 617 103 l 665 103 l 647 -14 l 615 -14 q 532 -3 563 -14 q 481 29 500 8 q 448 78 461 49 q 357 11 411 36 q 238 -14 302 -14 m 282 100 q 362 119 321 100 q 432 174 403 139 l 432 335 q 298 316 354 331 q 212 272 242 301 q 182 195 182 242 q 208 123 182 145 q 282 100 235 100 m 332 806 q 218 832 264 806 q 148 899 172 858 q 124 990 124 941 l 238 990 q 265 926 238 948 q 332 903 292 903 q 399 926 372 903 q 426 990 426 948 l 540 990 q 516 899 540 941 q 446 832 492 858 q 332 806 400 806 z "},"ằ":{"ha":677,"x_min":31,"x_max":665,"o":"m 238 -14 q 131 11 178 -14 q 58 82 85 37 q 31 188 31 127 q 58 288 31 247 q 128 357 84 329 q 224 401 172 385 q 331 425 276 417 q 431 433 385 433 q 397 543 431 515 q 293 572 363 572 q 208 560 251 572 q 109 515 164 548 l 92 633 q 204 681 142 663 q 332 699 266 699 q 469 670 415 699 q 550 574 523 641 q 577 393 577 506 l 577 233 q 582 155 577 183 q 601 115 586 127 q 648 103 617 103 l 665 103 l 647 -14 l 615 -14 q 532 -3 563 -14 q 481 29 500 8 q 448 78 461 49 q 357 11 411 36 q 238 -14 302 -14 m 282 100 q 362 119 321 100 q 432 174 403 139 l 432 335 q 298 316 354 331 q 212 272 242 301 q 182 195 182 242 q 208 123 182 145 q 282 100 235 100 m 332 775 q 218 799 264 775 q 148 863 172 824 q 124 949 124 903 l 238 949 q 265 886 238 908 q 332 865 292 865 q 399 886 372 865 q 426 949 426 908 l 540 949 q 516 863 540 903 q 446 799 492 824 q 332 775 400 775 m 464 1011 l 199 1092 l 199 1231 l 464 1099 l 464 1011 z "},"ẳ":{"ha":677,"x_min":31,"x_max":665,"o":"m 238 -14 q 131 11 178 -14 q 58 82 85 37 q 31 188 31 127 q 58 288 31 247 q 128 357 84 329 q 224 401 172 385 q 331 425 276 417 q 431 433 385 433 q 397 543 431 515 q 293 572 363 572 q 208 560 251 572 q 109 515 164 548 l 92 633 q 204 681 142 663 q 332 699 266 699 q 469 670 415 699 q 550 574 523 641 q 577 393 577 506 l 577 233 q 582 155 577 183 q 601 115 586 127 q 648 103 617 103 l 665 103 l 647 -14 l 615 -14 q 532 -3 563 -14 q 481 29 500 8 q 448 78 461 49 q 357 11 411 36 q 238 -14 302 -14 m 282 100 q 362 119 321 100 q 432 174 403 139 l 432 335 q 298 316 354 331 q 212 272 242 301 q 182 195 182 242 q 208 123 182 145 q 282 100 235 100 m 332 776 q 218 800 264 776 q 148 864 172 824 q 124 950 124 903 l 238 950 q 265 887 238 908 q 332 865 292 865 q 399 887 372 865 q 426 950 426 908 l 540 950 q 516 864 540 903 q 446 800 492 824 q 332 776 400 776 m 342 972 l 328 1029 q 366 1049 353 1037 q 378 1081 378 1061 q 364 1112 378 1102 q 324 1122 349 1122 q 281 1115 302 1122 q 238 1096 259 1108 l 214 1173 q 266 1192 238 1185 q 325 1199 294 1199 q 423 1171 383 1199 q 463 1089 463 1142 q 434 1014 463 1042 q 342 972 405 985 z "},"ẵ":{"ha":677,"x_min":31,"x_max":665,"o":"m 238 -14 q 131 11 178 -14 q 58 82 85 37 q 31 188 31 127 q 58 288 31 247 q 128 357 84 329 q 224 401 172 385 q 331 425 276 417 q 431 433 385 433 q 397 543 431 515 q 293 572 363 572 q 208 560 251 572 q 109 515 164 548 l 92 633 q 204 681 142 663 q 332 699 266 699 q 469 670 415 699 q 550 574 523 641 q 577 393 577 506 l 577 233 q 582 155 577 183 q 601 115 586 127 q 648 103 617 103 l 665 103 l 647 -14 l 615 -14 q 532 -3 563 -14 q 481 29 500 8 q 448 78 461 49 q 357 11 411 36 q 238 -14 302 -14 m 282 100 q 362 119 321 100 q 432 174 403 139 l 432 335 q 298 316 354 331 q 212 272 242 301 q 182 195 182 242 q 208 123 182 145 q 282 100 235 100 m 332 776 q 218 800 264 776 q 148 864 172 824 q 124 950 124 903 l 238 950 q 265 887 238 908 q 332 865 292 865 q 399 887 372 865 q 426 950 426 908 l 540 950 q 516 864 540 903 q 446 800 492 824 q 332 776 400 776 m 449 1016 q 382 1031 417 1016 q 314 1059 347 1045 q 255 1074 281 1074 q 208 1024 208 1074 l 112 1024 q 138 1130 112 1094 q 215 1166 165 1166 q 282 1152 247 1166 q 350 1123 317 1138 q 409 1108 383 1108 q 456 1158 456 1108 l 552 1158 q 526 1053 552 1090 q 449 1016 500 1016 z "},"â":{"ha":677,"x_min":31,"x_max":665,"o":"m 238 -14 q 131 11 178 -14 q 58 82 85 37 q 31 188 31 127 q 58 288 31 247 q 128 357 84 329 q 224 401 172 385 q 331 425 276 417 q 431 433 385 433 q 397 543 431 515 q 293 572 363 572 q 208 560 251 572 q 109 515 164 548 l 92 633 q 204 681 142 663 q 332 699 266 699 q 469 670 415 699 q 550 574 523 641 q 577 393 577 506 l 577 233 q 582 155 577 183 q 601 115 586 127 q 648 103 617 103 l 665 103 l 647 -14 l 615 -14 q 532 -3 563 -14 q 481 29 500 8 q 448 78 461 49 q 357 11 411 36 q 238 -14 302 -14 m 282 100 q 362 119 321 100 q 432 174 403 139 l 432 335 q 298 316 354 331 q 212 272 242 301 q 182 195 182 242 q 208 123 182 145 q 282 100 235 100 m 153 778 l 153 873 l 332 1026 l 511 873 l 511 778 l 332 890 l 153 778 z "},"ấ":{"ha":677,"x_min":31,"x_max":674,"o":"m 238 -14 q 131 11 178 -14 q 58 82 85 37 q 31 188 31 127 q 58 288 31 247 q 128 357 84 329 q 224 401 172 385 q 331 425 276 417 q 431 433 385 433 q 397 543 431 515 q 293 572 363 572 q 208 560 251 572 q 109 515 164 548 l 92 633 q 204 681 142 663 q 332 699 266 699 q 469 670 415 699 q 550 574 523 641 q 577 393 577 506 l 577 233 q 582 155 577 183 q 601 115 586 127 q 648 103 617 103 l 665 103 l 647 -14 l 615 -14 q 532 -3 563 -14 q 481 29 500 8 q 448 78 461 49 q 357 11 411 36 q 238 -14 302 -14 m 282 100 q 362 119 321 100 q 432 174 403 139 l 432 335 q 298 316 354 331 q 212 272 242 301 q 182 195 182 242 q 208 123 182 145 q 282 100 235 100 m 153 756 l 153 848 l 332 974 l 511 848 l 511 756 l 332 851 l 153 756 m 437 961 l 528 1129 l 674 1129 l 536 961 l 437 961 z "},"ậ":{"ha":677,"x_min":31,"x_max":665,"o":"m 238 -14 q 131 11 178 -14 q 58 82 85 37 q 31 188 31 127 q 58 288 31 247 q 128 357 84 329 q 224 401 172 385 q 331 425 276 417 q 431 433 385 433 q 397 543 431 515 q 293 572 363 572 q 208 560 251 572 q 109 515 164 548 l 92 633 q 204 681 142 663 q 332 699 266 699 q 469 670 415 699 q 550 574 523 641 q 577 393 577 506 l 577 233 q 582 155 577 183 q 601 115 586 127 q 648 103 617 103 l 665 103 l 647 -14 l 615 -14 q 532 -3 563 -14 q 481 29 500 8 q 448 78 461 49 q 357 11 411 36 q 238 -14 302 -14 m 282 100 q 362 119 321 100 q 432 174 403 139 l 432 335 q 298 316 354 331 q 212 272 242 301 q 182 195 182 242 q 208 123 182 145 q 282 100 235 100 m 153 778 l 153 873 l 332 1026 l 511 873 l 511 778 l 332 890 l 153 778 z "},"ầ":{"ha":677,"x_min":31,"x_max":665,"o":"m 238 -14 q 131 11 178 -14 q 58 82 85 37 q 31 188 31 127 q 58 288 31 247 q 128 357 84 329 q 224 401 172 385 q 331 425 276 417 q 431 433 385 433 q 397 543 431 515 q 293 572 363 572 q 208 560 251 572 q 109 515 164 548 l 92 633 q 204 681 142 663 q 332 699 266 699 q 469 670 415 699 q 550 574 523 641 q 577 393 577 506 l 577 233 q 582 155 577 183 q 601 115 586 127 q 648 103 617 103 l 665 103 l 647 -14 l 615 -14 q 532 -3 563 -14 q 481 29 500 8 q 448 78 461 49 q 357 11 411 36 q 238 -14 302 -14 m 282 100 q 362 119 321 100 q 432 174 403 139 l 432 335 q 298 316 354 331 q 212 272 242 301 q 182 195 182 242 q 208 123 182 145 q 282 100 235 100 m 153 756 l 153 848 l 332 974 l 511 848 l 511 756 l 332 851 l 153 756 m 461 961 l 343 1129 l 482 1129 l 557 961 l 461 961 z "},"ẩ":{"ha":677,"x_min":31,"x_max":665,"o":"m 238 -14 q 131 11 178 -14 q 58 82 85 37 q 31 188 31 127 q 58 288 31 247 q 128 357 84 329 q 224 401 172 385 q 331 425 276 417 q 431 433 385 433 q 397 543 431 515 q 293 572 363 572 q 208 560 251 572 q 109 515 164 548 l 92 633 q 204 681 142 663 q 332 699 266 699 q 469 670 415 699 q 550 574 523 641 q 577 393 577 506 l 577 233 q 582 155 577 183 q 601 115 586 127 q 648 103 617 103 l 665 103 l 647 -14 l 615 -14 q 532 -3 563 -14 q 481 29 500 8 q 448 78 461 49 q 357 11 411 36 q 238 -14 302 -14 m 282 100 q 362 119 321 100 q 432 174 403 139 l 432 335 q 298 316 354 331 q 212 272 242 301 q 182 195 182 242 q 208 123 182 145 q 282 100 235 100 m 153 756 l 153 848 l 332 974 l 511 848 l 511 756 l 332 851 l 153 756 m 465 925 l 451 983 q 489 1003 476 991 q 501 1035 501 1015 q 487 1066 501 1056 q 447 1076 472 1076 q 404 1069 426 1076 q 360 1050 382 1062 l 337 1127 q 389 1147 360 1140 q 448 1153 417 1153 q 545 1125 506 1153 q 585 1043 585 1097 q 557 967 585 996 q 465 925 528 939 z "},"ẫ":{"ha":677,"x_min":31,"x_max":665,"o":"m 238 -14 q 131 11 178 -14 q 58 82 85 37 q 31 188 31 127 q 58 288 31 247 q 128 357 84 329 q 224 401 172 385 q 331 425 276 417 q 431 433 385 433 q 397 543 431 515 q 293 572 363 572 q 208 560 251 572 q 109 515 164 548 l 92 633 q 204 681 142 663 q 332 699 266 699 q 469 670 415 699 q 550 574 523 641 q 577 393 577 506 l 577 233 q 582 155 577 183 q 601 115 586 127 q 648 103 617 103 l 665 103 l 647 -14 l 615 -14 q 532 -3 563 -14 q 481 29 500 8 q 448 78 461 49 q 357 11 411 36 q 238 -14 302 -14 m 282 100 q 362 119 321 100 q 432 174 403 139 l 432 335 q 298 316 354 331 q 212 272 242 301 q 182 195 182 242 q 208 123 182 145 q 282 100 235 100 m 153 756 l 153 848 l 332 974 l 511 848 l 511 756 l 332 851 l 153 756 m 449 1028 q 382 1042 417 1028 q 314 1071 347 1057 q 255 1085 281 1085 q 208 1036 208 1085 l 112 1036 q 138 1142 112 1106 q 215 1178 165 1178 q 282 1164 247 1178 q 350 1135 317 1149 q 409 1120 383 1120 q 456 1169 456 1120 l 552 1169 q 526 1065 552 1101 q 449 1028 500 1028 z "},"ȁ":{"ha":677,"x_min":31,"x_max":665,"o":"m 238 -14 q 131 11 178 -14 q 58 82 85 37 q 31 188 31 127 q 58 288 31 247 q 128 357 84 329 q 224 401 172 385 q 331 425 276 417 q 431 433 385 433 q 397 543 431 515 q 293 572 363 572 q 208 560 251 572 q 109 515 164 548 l 92 633 q 204 681 142 663 q 332 699 266 699 q 469 670 415 699 q 550 574 523 641 q 577 393 577 506 l 577 233 q 582 155 577 183 q 601 115 586 127 q 648 103 617 103 l 665 103 l 647 -14 l 615 -14 q 532 -3 563 -14 q 481 29 500 8 q 448 78 461 49 q 357 11 411 36 q 238 -14 302 -14 m 282 100 q 362 119 321 100 q 432 174 403 139 l 432 335 q 298 316 354 331 q 212 272 242 301 q 182 195 182 242 q 208 123 182 145 q 282 100 235 100 m 485 808 l 386 808 l 249 1047 l 394 1047 l 485 808 m 287 808 l 188 808 l 41 1047 l 188 1047 l 287 808 z "},"ä":{"ha":677,"x_min":31,"x_max":665,"o":"m 238 -14 q 131 11 178 -14 q 58 82 85 37 q 31 188 31 127 q 58 288 31 247 q 128 357 84 329 q 224 401 172 385 q 331 425 276 417 q 431 433 385 433 q 397 543 431 515 q 293 572 363 572 q 208 560 251 572 q 109 515 164 548 l 92 633 q 204 681 142 663 q 332 699 266 699 q 469 670 415 699 q 550 574 523 641 q 577 393 577 506 l 577 233 q 582 155 577 183 q 601 115 586 127 q 648 103 617 103 l 665 103 l 647 -14 l 615 -14 q 532 -3 563 -14 q 481 29 500 8 q 448 78 461 49 q 357 11 411 36 q 238 -14 302 -14 m 282 100 q 362 119 321 100 q 432 174 403 139 l 432 335 q 298 316 354 331 q 212 272 242 301 q 182 195 182 242 q 208 123 182 145 q 282 100 235 100 m 406 821 l 406 938 l 531 938 l 531 821 l 406 821 m 133 821 l 133 938 l 258 938 l 258 821 l 133 821 z "},"ạ":{"ha":677,"x_min":31,"x_max":665,"o":"m 238 -14 q 131 11 178 -14 q 58 82 85 37 q 31 188 31 127 q 58 288 31 247 q 128 357 84 329 q 224 401 172 385 q 331 425 276 417 q 431 433 385 433 q 397 543 431 515 q 293 572 363 572 q 208 560 251 572 q 109 515 164 548 l 92 633 q 204 681 142 663 q 332 699 266 699 q 469 670 415 699 q 550 574 523 641 q 577 393 577 506 l 577 233 q 582 155 577 183 q 601 115 586 127 q 648 103 617 103 l 665 103 l 647 -14 l 615 -14 q 532 -3 563 -14 q 481 29 500 8 q 448 78 461 49 q 357 11 411 36 q 238 -14 302 -14 m 282 100 q 362 119 321 100 q 432 174 403 139 l 432 335 q 298 316 354 331 q 212 272 242 301 q 182 195 182 242 q 208 123 182 145 q 282 100 235 100 z "},"à":{"ha":677,"x_min":31,"x_max":665,"o":"m 238 -14 q 131 11 178 -14 q 58 82 85 37 q 31 188 31 127 q 58 288 31 247 q 128 357 84 329 q 224 401 172 385 q 331 425 276 417 q 431 433 385 433 q 397 543 431 515 q 293 572 363 572 q 208 560 251 572 q 109 515 164 548 l 92 633 q 204 681 142 663 q 332 699 266 699 q 469 670 415 699 q 550 574 523 641 q 577 393 577 506 l 577 233 q 582 155 577 183 q 601 115 586 127 q 648 103 617 103 l 665 103 l 647 -14 l 615 -14 q 532 -3 563 -14 q 481 29 500 8 q 448 78 461 49 q 357 11 411 36 q 238 -14 302 -14 m 282 100 q 362 119 321 100 q 432 174 403 139 l 432 335 q 298 316 354 331 q 212 272 242 301 q 182 195 182 242 q 208 123 182 145 q 282 100 235 100 m 464 797 l 199 899 l 199 1046 l 464 892 l 464 797 z "},"ả":{"ha":677,"x_min":31,"x_max":665,"o":"m 238 -14 q 131 11 178 -14 q 58 82 85 37 q 31 188 31 127 q 58 288 31 247 q 128 357 84 329 q 224 401 172 385 q 331 425 276 417 q 431 433 385 433 q 397 543 431 515 q 293 572 363 572 q 208 560 251 572 q 109 515 164 548 l 92 633 q 204 681 142 663 q 332 699 266 699 q 469 670 415 699 q 550 574 523 641 q 577 393 577 506 l 577 233 q 582 155 577 183 q 601 115 586 127 q 648 103 617 103 l 665 103 l 647 -14 l 615 -14 q 532 -3 563 -14 q 481 29 500 8 q 448 78 461 49 q 357 11 411 36 q 238 -14 302 -14 m 282 100 q 362 119 321 100 q 432 174 403 139 l 432 335 q 298 316 354 331 q 212 272 242 301 q 182 195 182 242 q 208 123 182 145 q 282 100 235 100 m 353 735 l 304 783 q 350 830 335 812 q 365 874 365 849 q 350 909 365 897 q 310 921 335 921 q 267 914 288 921 q 224 894 245 906 l 200 972 q 252 991 224 984 q 311 998 280 998 q 409 967 369 998 q 449 878 449 936 q 425 802 449 833 q 353 735 401 770 z "},"ȃ":{"ha":677,"x_min":31,"x_max":665,"o":"m 238 -14 q 131 11 178 -14 q 58 82 85 37 q 31 188 31 127 q 58 288 31 247 q 128 357 84 329 q 224 401 172 385 q 331 425 276 417 q 431 433 385 433 q 397 543 431 515 q 293 572 363 572 q 208 560 251 572 q 109 515 164 548 l 92 633 q 204 681 142 663 q 332 699 266 699 q 469 670 415 699 q 550 574 523 641 q 577 393 577 506 l 577 233 q 582 155 577 183 q 601 115 586 127 q 648 103 617 103 l 665 103 l 647 -14 l 615 -14 q 532 -3 563 -14 q 481 29 500 8 q 448 78 461 49 q 357 11 411 36 q 238 -14 302 -14 m 282 100 q 362 119 321 100 q 432 174 403 139 l 432 335 q 298 316 354 331 q 212 272 242 301 q 182 195 182 242 q 208 123 182 145 q 282 100 235 100 m 332 990 q 446 965 400 990 q 516 897 492 939 q 540 806 540 856 l 426 806 q 399 871 426 849 q 332 893 372 893 q 265 871 292 893 q 238 806 238 849 l 124 806 q 148 897 124 856 q 218 965 172 939 q 332 990 264 990 z "},"ā":{"ha":677,"x_min":31,"x_max":665,"o":"m 238 -14 q 131 11 178 -14 q 58 82 85 37 q 31 188 31 127 q 58 288 31 247 q 128 357 84 329 q 224 401 172 385 q 331 425 276 417 q 431 433 385 433 q 397 543 431 515 q 293 572 363 572 q 208 560 251 572 q 109 515 164 548 l 92 633 q 204 681 142 663 q 332 699 266 699 q 469 670 415 699 q 550 574 523 641 q 577 393 577 506 l 577 233 q 582 155 577 183 q 601 115 586 127 q 648 103 617 103 l 665 103 l 647 -14 l 615 -14 q 532 -3 563 -14 q 481 29 500 8 q 448 78 461 49 q 357 11 411 36 q 238 -14 302 -14 m 282 100 q 362 119 321 100 q 432 174 403 139 l 432 335 q 298 316 354 331 q 212 272 242 301 q 182 195 182 242 q 208 123 182 145 q 282 100 235 100 m 108 826 l 108 931 l 556 931 l 556 826 l 108 826 z "},"ą":{"ha":677,"x_min":31,"x_max":704,"o":"m 238 -14 q 131 11 178 -14 q 58 82 85 37 q 31 188 31 127 q 58 288 31 247 q 128 357 84 329 q 224 401 172 385 q 331 425 276 417 q 431 433 385 433 q 397 543 431 515 q 293 572 363 572 q 208 560 251 572 q 109 515 164 548 l 92 633 q 204 681 142 663 q 332 699 266 699 q 469 670 415 699 q 550 574 523 641 q 577 393 577 506 l 577 233 q 582 155 577 183 q 601 115 586 127 q 648 103 617 103 l 665 103 l 647 -14 l 615 -14 q 532 -3 563 -14 q 481 29 500 8 q 448 78 461 49 q 357 11 411 36 q 238 -14 302 -14 m 282 100 q 362 119 321 100 q 432 174 403 139 l 432 335 q 298 316 354 331 q 212 272 242 301 q 182 195 182 242 q 208 123 182 145 q 282 100 235 100 m 558 0 l 637 0 q 559 -72 589 -37 q 529 -146 529 -108 q 548 -197 529 -180 q 596 -214 566 -214 q 641 -208 620 -214 q 682 -192 662 -202 l 703 -264 q 654 -283 683 -274 q 586 -291 624 -291 q 486 -260 527 -291 q 445 -170 445 -228 q 482 -70 445 -115 q 558 0 518 -25 z "},"å":{"ha":677,"x_min":31,"x_max":665,"o":"m 238 -14 q 131 11 178 -14 q 58 82 85 37 q 31 188 31 127 q 58 288 31 247 q 128 357 84 329 q 224 401 172 385 q 331 425 276 417 q 431 433 385 433 q 397 543 431 515 q 293 572 363 572 q 208 560 251 572 q 109 515 164 548 l 92 633 q 204 681 142 663 q 332 699 266 699 q 469 670 415 699 q 550 574 523 641 q 577 393 577 506 l 577 233 q 582 155 577 183 q 601 115 586 127 q 648 103 617 103 l 665 103 l 647 -14 l 615 -14 q 532 -3 563 -14 q 481 29 500 8 q 448 78 461 49 q 357 11 411 36 q 238 -14 302 -14 m 282 100 q 362 119 321 100 q 432 174 403 139 l 432 335 q 298 316 354 331 q 212 272 242 301 q 182 195 182 242 q 208 123 182 145 q 282 100 235 100 m 332 790 q 225 832 263 790 q 188 927 188 873 q 225 1023 188 981 q 332 1065 263 1065 q 439 1023 402 1065 q 476 927 476 981 q 440 832 476 873 q 332 790 403 790 m 332 856 q 382 875 360 856 q 403 927 403 894 q 382 978 403 958 q 332 999 361 999 q 282 978 303 999 q 261 927 261 958 q 283 875 261 894 q 332 856 304 856 z "},"ǻ":{"ha":677,"x_min":31,"x_max":665,"o":"m 238 -14 q 131 11 178 -14 q 58 82 85 37 q 31 188 31 127 q 58 288 31 247 q 128 357 84 329 q 224 401 172 385 q 331 425 276 417 q 431 433 385 433 q 397 543 431 515 q 293 572 363 572 q 208 560 251 572 q 109 515 164 548 l 92 633 q 204 681 142 663 q 332 699 266 699 q 469 670 415 699 q 550 574 523 641 q 577 393 577 506 l 577 233 q 582 155 577 183 q 601 115 586 127 q 648 103 617 103 l 665 103 l 647 -14 l 615 -14 q 532 -3 563 -14 q 481 29 500 8 q 448 78 461 49 q 357 11 411 36 q 238 -14 302 -14 m 282 100 q 362 119 321 100 q 432 174 403 139 l 432 335 q 298 316 354 331 q 212 272 242 301 q 182 195 182 242 q 208 123 182 145 q 282 100 235 100 m 332 790 q 225 832 263 790 q 188 927 188 873 q 225 1023 188 981 q 332 1065 263 1065 q 439 1023 402 1065 q 476 927 476 981 q 440 832 476 873 q 332 790 403 790 m 332 856 q 382 875 360 856 q 403 927 403 894 q 382 978 403 958 q 332 999 361 999 q 282 978 303 999 q 261 927 261 958 q 283 875 261 894 q 332 856 304 856 m 200 1119 l 200 1206 l 465 1338 l 465 1200 l 200 1119 z "},"ã":{"ha":677,"x_min":31,"x_max":665,"o":"m 238 -14 q 131 11 178 -14 q 58 82 85 37 q 31 188 31 127 q 58 288 31 247 q 128 357 84 329 q 224 401 172 385 q 331 425 276 417 q 431 433 385 433 q 397 543 431 515 q 293 572 363 572 q 208 560 251 572 q 109 515 164 548 l 92 633 q 204 681 142 663 q 332 699 266 699 q 469 670 415 699 q 550 574 523 641 q 577 393 577 506 l 577 233 q 582 155 577 183 q 601 115 586 127 q 648 103 617 103 l 665 103 l 647 -14 l 615 -14 q 532 -3 563 -14 q 481 29 500 8 q 448 78 461 49 q 357 11 411 36 q 238 -14 302 -14 m 282 100 q 362 119 321 100 q 432 174 403 139 l 432 335 q 298 316 354 331 q 212 272 242 301 q 182 195 182 242 q 208 123 182 145 q 282 100 235 100 m 446 804 q 378 820 411 804 q 315 852 346 836 q 256 868 285 868 q 208 815 208 868 l 99 815 q 132 934 102 893 q 218 976 162 976 q 285 960 253 976 q 349 928 318 944 q 408 912 379 912 q 456 965 456 912 l 565 965 q 532 845 563 887 q 446 804 502 804 z "},"æ":{"ha":1085,"x_min":31,"x_max":1045,"o":"m 257 -14 q 139 11 190 -14 q 60 79 88 35 q 31 182 31 123 q 70 303 31 256 q 172 377 109 351 q 308 415 234 404 q 452 426 382 426 l 897 426 q 863 532 897 488 q 759 575 830 575 q 633 519 680 575 q 586 360 586 463 q 618 213 586 268 q 700 134 649 158 q 809 110 751 110 q 906 123 857 110 q 1001 158 955 136 l 1015 39 q 921 2 975 17 q 796 -14 867 -14 q 597 36 677 -14 q 476 168 517 85 q 435 348 435 250 l 435 397 q 406 526 435 481 q 293 572 377 572 q 208 560 251 572 q 109 515 164 548 l 92 633 q 204 681 142 663 q 332 699 266 699 q 481 663 424 699 q 560 540 537 626 l 484 527 q 594 651 522 603 q 766 699 667 699 q 919 660 856 699 q 1013 555 981 622 q 1045 406 1045 488 q 1043 368 1045 388 q 1038 327 1042 349 l 449 327 q 247 294 311 327 q 182 194 182 261 q 214 123 182 145 q 294 100 246 100 q 398 127 349 100 q 483 205 447 153 l 529 139 q 413 30 487 73 q 257 -14 340 -14 z "},"ǽ":{"ha":1085,"x_min":31,"x_max":1045,"o":"m 257 -14 q 139 11 190 -14 q 60 79 88 35 q 31 182 31 123 q 70 303 31 256 q 172 377 109 351 q 308 415 234 404 q 452 426 382 426 l 897 426 q 863 532 897 488 q 759 575 830 575 q 633 519 680 575 q 586 360 586 463 q 618 213 586 268 q 700 134 649 158 q 809 110 751 110 q 906 123 857 110 q 1001 158 955 136 l 1015 39 q 921 2 975 17 q 796 -14 867 -14 q 597 36 677 -14 q 476 168 517 85 q 435 348 435 250 l 435 397 q 406 526 435 481 q 293 572 377 572 q 208 560 251 572 q 109 515 164 548 l 92 633 q 204 681 142 663 q 332 699 266 699 q 481 663 424 699 q 560 540 537 626 l 484 527 q 594 651 522 603 q 766 699 667 699 q 919 660 856 699 q 1013 555 981 622 q 1045 406 1045 488 q 1043 368 1045 388 q 1038 327 1042 349 l 449 327 q 247 294 311 327 q 182 194 182 261 q 214 123 182 145 q 294 100 246 100 q 398 127 349 100 q 483 205 447 153 l 529 139 q 413 30 487 73 q 257 -14 340 -14 m 428 797 l 428 892 l 694 1046 l 694 899 l 428 797 z "},"b":{"ha":781,"x_min":81,"x_max":738,"o":"m 429 -14 q 291 17 354 -14 q 192 105 228 47 l 231 133 l 214 0 l 81 0 l 81 1042 l 226 1042 l 226 561 l 194 583 q 294 667 233 635 q 429 699 356 699 q 596 650 527 699 q 702 519 665 600 q 738 342 738 438 q 699 164 738 244 q 591 34 660 83 q 429 -14 522 -14 m 410 110 q 506 141 466 110 q 568 224 547 172 q 590 342 590 277 q 568 462 590 410 q 506 545 547 515 q 410 575 466 575 q 310 548 353 575 q 243 469 267 521 q 219 342 219 417 q 243 215 219 266 q 310 137 267 163 q 410 110 353 110 z "},"c":{"ha":631,"x_min":43,"x_max":594,"o":"m 399 -14 q 203 34 283 -14 q 83 162 124 82 q 43 340 43 242 q 83 523 43 441 q 203 652 122 604 q 408 700 283 700 q 510 689 463 700 q 594 658 558 677 l 576 536 q 499 564 541 553 q 413 575 458 575 q 248 513 306 575 q 191 344 191 450 q 247 175 191 240 q 411 110 303 110 q 498 121 456 110 q 578 153 540 133 l 594 33 q 510 0 563 14 q 399 -14 458 -14 z "},"ć":{"ha":631,"x_min":43,"x_max":594,"o":"m 399 -14 q 203 34 283 -14 q 83 162 124 82 q 43 340 43 242 q 83 523 43 441 q 203 652 122 604 q 408 700 283 700 q 510 689 463 700 q 594 658 558 677 l 576 536 q 499 564 541 553 q 413 575 458 575 q 248 513 306 575 q 191 344 191 450 q 247 175 191 240 q 411 110 303 110 q 498 121 456 110 q 578 153 540 133 l 594 33 q 510 0 563 14 q 399 -14 458 -14 m 245 797 l 245 892 l 510 1046 l 510 899 l 245 797 z "},"č":{"ha":631,"x_min":43,"x_max":594,"o":"m 399 -14 q 203 34 283 -14 q 83 162 124 82 q 43 340 43 242 q 83 523 43 441 q 203 652 122 604 q 408 700 283 700 q 510 689 463 700 q 594 658 558 677 l 576 536 q 499 564 541 553 q 413 575 458 575 q 248 513 306 575 q 191 344 191 450 q 247 175 191 240 q 411 110 303 110 q 498 121 456 110 q 578 153 540 133 l 594 33 q 510 0 563 14 q 399 -14 458 -14 m 377 776 l 198 930 l 198 1025 l 377 912 l 556 1025 l 556 930 l 377 776 z "},"ç":{"ha":631,"x_min":43,"x_max":594,"o":"m 399 -14 q 203 34 283 -14 q 83 162 124 82 q 43 340 43 242 q 83 523 43 441 q 203 652 122 604 q 408 700 283 700 q 510 689 463 700 q 594 658 558 677 l 576 536 q 499 564 541 553 q 413 575 458 575 q 248 513 306 575 q 191 344 191 450 q 247 175 191 240 q 411 110 303 110 q 498 121 456 110 q 578 153 540 133 l 594 33 q 510 0 563 14 q 399 -14 458 -14 m 379 -110 l 329 -89 q 362 -79 346 -83 q 397 -75 378 -75 q 489 -106 456 -75 q 522 -191 522 -137 q 478 -288 522 -255 q 371 -322 435 -322 q 307 -314 335 -322 q 260 -295 280 -306 l 283 -222 q 326 -239 305 -232 q 372 -245 348 -245 q 420 -232 402 -245 q 438 -195 438 -219 q 421 -156 438 -170 q 368 -142 403 -142 q 337 -145 353 -142 q 303 -153 322 -147 l 340 0 l 413 0 l 379 -110 z "},"ḉ":{"ha":631,"x_min":43,"x_max":594,"o":"m 399 -14 q 203 34 283 -14 q 83 162 124 82 q 43 340 43 242 q 83 523 43 441 q 203 652 122 604 q 408 700 283 700 q 510 689 463 700 q 594 658 558 677 l 576 536 q 499 564 541 553 q 413 575 458 575 q 248 513 306 575 q 191 344 191 450 q 247 175 191 240 q 411 110 303 110 q 498 121 456 110 q 578 153 540 133 l 594 33 q 510 0 563 14 q 399 -14 458 -14 m 379 -110 l 329 -89 q 362 -79 346 -83 q 397 -75 378 -75 q 489 -106 456 -75 q 522 -191 522 -137 q 478 -288 522 -255 q 371 -322 435 -322 q 307 -314 335 -322 q 260 -295 280 -306 l 283 -222 q 326 -239 305 -232 q 372 -245 348 -245 q 420 -232 402 -245 q 438 -195 438 -219 q 421 -156 438 -170 q 368 -142 403 -142 q 337 -145 353 -142 q 303 -153 322 -147 l 340 0 l 413 0 l 379 -110 m 245 797 l 245 892 l 510 1046 l 510 899 l 245 797 z "},"ĉ":{"ha":631,"x_min":43,"x_max":594,"o":"m 399 -14 q 203 34 283 -14 q 83 162 124 82 q 43 340 43 242 q 83 523 43 441 q 203 652 122 604 q 408 700 283 700 q 510 689 463 700 q 594 658 558 677 l 576 536 q 499 564 541 553 q 413 575 458 575 q 248 513 306 575 q 191 344 191 450 q 247 175 191 240 q 411 110 303 110 q 498 121 456 110 q 578 153 540 133 l 594 33 q 510 0 563 14 q 399 -14 458 -14 m 198 778 l 198 873 l 377 1026 l 556 873 l 556 778 l 377 890 l 198 778 z "},"ċ":{"ha":631,"x_min":43,"x_max":594,"o":"m 399 -14 q 203 34 283 -14 q 83 162 124 82 q 43 340 43 242 q 83 523 43 441 q 203 652 122 604 q 408 700 283 700 q 510 689 463 700 q 594 658 558 677 l 576 536 q 499 564 541 553 q 413 575 458 575 q 248 513 306 575 q 191 344 191 450 q 247 175 191 240 q 411 110 303 110 q 498 121 456 110 q 578 153 540 133 l 594 33 q 510 0 563 14 q 399 -14 458 -14 m 308 827 l 308 956 l 446 956 l 446 827 l 308 827 z "},"d":{"ha":781,"x_min":42,"x_max":699,"o":"m 357 -14 q 192 34 263 -14 q 82 163 121 83 q 42 342 42 244 q 80 518 42 437 q 187 650 117 600 q 357 699 258 699 q 488 672 428 699 q 587 588 547 644 l 553 562 l 553 1042 l 699 1042 l 699 0 l 566 0 l 549 133 l 588 105 q 492 17 551 47 q 357 -14 433 -14 m 381 110 q 474 136 432 110 q 541 213 516 162 q 565 342 565 265 q 541 468 565 415 q 474 548 516 520 q 381 575 432 575 q 278 545 321 575 q 213 462 235 515 q 190 342 190 410 q 213 224 190 276 q 278 141 235 172 q 381 110 321 110 z "},"ð":{"ha":708,"x_min":32,"x_max":665,"o":"m 342 -17 q 179 23 249 -17 q 70 133 109 64 q 32 285 32 201 q 68 434 32 364 q 170 548 103 504 q 328 592 237 592 q 452 563 404 592 q 526 497 500 535 l 506 478 q 466 661 501 576 q 361 808 431 746 q 185 897 292 869 l 210 974 q 401 900 317 956 q 545 759 486 844 q 634 572 603 675 q 665 358 665 469 q 639 190 665 260 q 566 73 612 119 q 463 5 521 27 q 342 -17 405 -17 m 346 108 q 469 160 424 108 q 514 288 514 213 q 469 416 514 365 q 345 468 425 468 q 252 443 290 468 q 195 377 215 418 q 175 289 175 336 q 219 162 175 215 q 346 108 264 108 m 234 688 l 185 768 l 544 972 l 591 892 l 234 688 z "},"ď":{"ha":872,"x_min":42,"x_max":899,"o":"m 357 -14 q 192 34 263 -14 q 82 163 121 83 q 42 342 42 244 q 80 518 42 437 q 187 650 117 600 q 357 699 258 699 q 488 672 428 699 q 587 588 547 644 l 553 562 l 553 1042 l 699 1042 l 699 0 l 566 0 l 549 133 l 588 105 q 492 17 551 47 q 357 -14 433 -14 m 381 110 q 474 136 432 110 q 541 213 516 162 q 565 342 565 265 q 541 468 565 415 q 474 548 516 520 q 381 575 432 575 q 278 545 321 575 q 213 462 235 515 q 190 342 190 410 q 213 224 190 276 q 278 141 235 172 q 381 110 321 110 m 765 804 l 765 1042 l 899 1042 l 859 804 l 765 804 z "},"đ":{"ha":783,"x_min":42,"x_max":801,"o":"m 345 815 l 345 920 l 801 920 l 801 815 l 345 815 m 357 -14 q 192 34 263 -14 q 82 163 121 83 q 42 342 42 244 q 80 518 42 437 q 187 650 117 600 q 357 699 258 699 q 488 672 428 699 q 587 588 547 644 l 553 562 l 553 1042 l 699 1042 l 699 0 l 566 0 l 549 133 l 588 105 q 492 17 551 47 q 357 -14 433 -14 m 381 110 q 474 136 432 110 q 541 213 516 162 q 565 342 565 265 q 541 468 565 415 q 474 548 516 520 q 381 575 432 575 q 278 545 321 575 q 213 462 235 515 q 190 342 190 410 q 213 224 190 276 q 278 141 235 172 q 381 110 321 110 z "},"ḍ":{"ha":781,"x_min":42,"x_max":699,"o":"m 357 -14 q 192 34 263 -14 q 82 163 121 83 q 42 342 42 244 q 80 518 42 437 q 187 650 117 600 q 357 699 258 699 q 488 672 428 699 q 587 588 547 644 l 553 562 l 553 1042 l 699 1042 l 699 0 l 566 0 l 549 133 l 588 105 q 492 17 551 47 q 357 -14 433 -14 m 381 110 q 474 136 432 110 q 541 213 516 162 q 565 342 565 265 q 541 468 565 415 q 474 548 516 520 q 381 575 432 575 q 278 545 321 575 q 213 462 235 515 q 190 342 190 410 q 213 224 190 276 q 278 141 235 172 q 381 110 321 110 z "},"ḏ":{"ha":781,"x_min":42,"x_max":699,"o":"m 357 -14 q 192 34 263 -14 q 82 163 121 83 q 42 342 42 244 q 80 518 42 437 q 187 650 117 600 q 357 699 258 699 q 488 672 428 699 q 587 588 547 644 l 553 562 l 553 1042 l 699 1042 l 699 0 l 566 0 l 549 133 l 588 105 q 492 17 551 47 q 357 -14 433 -14 m 381 110 q 474 136 432 110 q 541 213 516 162 q 565 342 565 265 q 541 468 565 415 q 474 548 516 520 q 381 575 432 575 q 278 545 321 575 q 213 462 235 515 q 190 342 190 410 q 213 224 190 276 q 278 141 235 172 q 381 110 321 110 z "},"ǆ":{"ha":1435,"x_min":42,"x_max":1405,"o":"m 357 -14 q 192 34 263 -14 q 82 163 121 83 q 42 342 42 244 q 80 518 42 437 q 187 650 117 600 q 357 699 258 699 q 488 672 428 699 q 587 588 547 644 l 553 562 l 553 1042 l 699 1042 l 699 0 l 566 0 l 549 133 l 588 105 q 492 17 551 47 q 357 -14 433 -14 m 381 110 q 474 136 432 110 q 541 213 516 162 q 565 342 565 265 q 541 468 565 415 q 474 548 516 520 q 381 575 432 575 q 278 545 321 575 q 213 462 235 515 q 190 342 190 410 q 213 224 190 276 q 278 141 235 172 q 381 110 321 110 z "},"e":{"ha":713,"x_min":41,"x_max":673,"o":"m 413 -14 q 208 36 290 -14 q 83 168 125 85 q 41 348 41 250 q 80 523 41 443 q 195 651 119 603 q 377 699 270 699 q 535 663 468 699 q 637 560 601 626 q 673 406 673 494 q 671 368 673 388 q 665 327 669 349 l 191 327 q 234 198 200 246 q 319 131 268 151 q 428 110 369 110 q 533 123 481 110 q 629 158 584 135 l 642 39 q 545 3 603 20 q 413 -14 488 -14 m 199 426 l 524 426 q 509 501 524 467 q 461 555 494 535 q 376 575 428 575 q 257 535 299 575 q 199 426 215 494 z "},"é":{"ha":713,"x_min":41,"x_max":673,"o":"m 413 -14 q 208 36 290 -14 q 83 168 125 85 q 41 348 41 250 q 80 523 41 443 q 195 651 119 603 q 377 699 270 699 q 535 663 468 699 q 637 560 601 626 q 673 406 673 494 q 671 368 673 388 q 665 327 669 349 l 191 327 q 234 198 200 246 q 319 131 268 151 q 428 110 369 110 q 533 123 481 110 q 629 158 584 135 l 642 39 q 545 3 603 20 q 413 -14 488 -14 m 199 426 l 524 426 q 509 501 524 467 q 461 555 494 535 q 376 575 428 575 q 257 535 299 575 q 199 426 215 494 m 256 797 l 256 892 l 522 1046 l 522 899 l 256 797 z "},"ĕ":{"ha":713,"x_min":41,"x_max":673,"o":"m 413 -14 q 208 36 290 -14 q 83 168 125 85 q 41 348 41 250 q 80 523 41 443 q 195 651 119 603 q 377 699 270 699 q 535 663 468 699 q 637 560 601 626 q 673 406 673 494 q 671 368 673 388 q 665 327 669 349 l 191 327 q 234 198 200 246 q 319 131 268 151 q 428 110 369 110 q 533 123 481 110 q 629 158 584 135 l 642 39 q 545 3 603 20 q 413 -14 488 -14 m 199 426 l 524 426 q 509 501 524 467 q 461 555 494 535 q 376 575 428 575 q 257 535 299 575 q 199 426 215 494 m 388 806 q 274 832 320 806 q 204 899 228 858 q 181 990 181 941 l 294 990 q 321 926 294 948 q 388 903 348 903 q 455 926 428 903 q 482 990 482 948 l 596 990 q 572 899 596 941 q 502 832 549 858 q 388 806 456 806 z "},"ě":{"ha":713,"x_min":41,"x_max":673,"o":"m 413 -14 q 208 36 290 -14 q 83 168 125 85 q 41 348 41 250 q 80 523 41 443 q 195 651 119 603 q 377 699 270 699 q 535 663 468 699 q 637 560 601 626 q 673 406 673 494 q 671 368 673 388 q 665 327 669 349 l 191 327 q 234 198 200 246 q 319 131 268 151 q 428 110 369 110 q 533 123 481 110 q 629 158 584 135 l 642 39 q 545 3 603 20 q 413 -14 488 -14 m 199 426 l 524 426 q 509 501 524 467 q 461 555 494 535 q 376 575 428 575 q 257 535 299 575 q 199 426 215 494 z "},"ḝ":{"ha":713,"x_min":41,"x_max":673,"o":"m 413 -14 q 208 36 290 -14 q 83 168 125 85 q 41 348 41 250 q 80 523 41 443 q 195 651 119 603 q 377 699 270 699 q 535 663 468 699 q 637 560 601 626 q 673 406 673 494 q 671 368 673 388 q 665 327 669 349 l 191 327 q 234 198 200 246 q 319 131 268 151 q 428 110 369 110 q 533 123 481 110 q 629 158 584 135 l 642 39 q 545 3 603 20 q 413 -14 488 -14 m 199 426 l 524 426 q 509 501 524 467 q 461 555 494 535 q 376 575 428 575 q 257 535 299 575 q 199 426 215 494 m 363 -110 l 313 -89 q 346 -79 330 -83 q 381 -75 363 -75 q 473 -106 440 -75 q 506 -191 506 -137 q 463 -288 506 -255 q 355 -322 419 -322 q 291 -314 319 -322 q 244 -295 264 -306 l 267 -222 q 310 -239 289 -232 q 356 -245 332 -245 q 404 -232 386 -245 q 422 -195 422 -219 q 405 -156 422 -170 q 352 -142 388 -142 q 321 -145 337 -142 q 288 -153 306 -147 l 324 0 l 397 0 l 363 -110 m 388 806 q 274 832 320 806 q 204 899 228 858 q 181 990 181 941 l 294 990 q 321 926 294 948 q 388 903 348 903 q 455 926 428 903 q 482 990 482 948 l 596 990 q 572 899 596 941 q 502 832 549 858 q 388 806 456 806 z "},"ê":{"ha":713,"x_min":41,"x_max":673,"o":"m 413 -14 q 208 36 290 -14 q 83 168 125 85 q 41 348 41 250 q 80 523 41 443 q 195 651 119 603 q 377 699 270 699 q 535 663 468 699 q 637 560 601 626 q 673 406 673 494 q 671 368 673 388 q 665 327 669 349 l 191 327 q 234 198 200 246 q 319 131 268 151 q 428 110 369 110 q 533 123 481 110 q 629 158 584 135 l 642 39 q 545 3 603 20 q 413 -14 488 -14 m 199 426 l 524 426 q 509 501 524 467 q 461 555 494 535 q 376 575 428 575 q 257 535 299 575 q 199 426 215 494 m 209 778 l 209 873 l 388 1026 l 567 873 l 567 778 l 388 890 l 209 778 z "},"ế":{"ha":713,"x_min":41,"x_max":731,"o":"m 413 -14 q 208 36 290 -14 q 83 168 125 85 q 41 348 41 250 q 80 523 41 443 q 195 651 119 603 q 377 699 270 699 q 535 663 468 699 q 637 560 601 626 q 673 406 673 494 q 671 368 673 388 q 665 327 669 349 l 191 327 q 234 198 200 246 q 319 131 268 151 q 428 110 369 110 q 533 123 481 110 q 629 158 584 135 l 642 39 q 545 3 603 20 q 413 -14 488 -14 m 199 426 l 524 426 q 509 501 524 467 q 461 555 494 535 q 376 575 428 575 q 257 535 299 575 q 199 426 215 494 m 209 756 l 209 848 l 388 974 l 567 848 l 567 756 l 388 851 l 209 756 m 493 961 l 585 1129 l 731 1129 l 592 961 l 493 961 z "},"ệ":{"ha":713,"x_min":41,"x_max":673,"o":"m 413 -14 q 208 36 290 -14 q 83 168 125 85 q 41 348 41 250 q 80 523 41 443 q 195 651 119 603 q 377 699 270 699 q 535 663 468 699 q 637 560 601 626 q 673 406 673 494 q 671 368 673 388 q 665 327 669 349 l 191 327 q 234 198 200 246 q 319 131 268 151 q 428 110 369 110 q 533 123 481 110 q 629 158 584 135 l 642 39 q 545 3 603 20 q 413 -14 488 -14 m 199 426 l 524 426 q 509 501 524 467 q 461 555 494 535 q 376 575 428 575 q 257 535 299 575 q 199 426 215 494 m 209 778 l 209 873 l 388 1026 l 567 873 l 567 778 l 388 890 l 209 778 z "},"ề":{"ha":713,"x_min":41,"x_max":673,"o":"m 413 -14 q 208 36 290 -14 q 83 168 125 85 q 41 348 41 250 q 80 523 41 443 q 195 651 119 603 q 377 699 270 699 q 535 663 468 699 q 637 560 601 626 q 673 406 673 494 q 671 368 673 388 q 665 327 669 349 l 191 327 q 234 198 200 246 q 319 131 268 151 q 428 110 369 110 q 533 123 481 110 q 629 158 584 135 l 642 39 q 545 3 603 20 q 413 -14 488 -14 m 199 426 l 524 426 q 509 501 524 467 q 461 555 494 535 q 376 575 428 575 q 257 535 299 575 q 199 426 215 494 m 209 756 l 209 848 l 388 974 l 567 848 l 567 756 l 388 851 l 209 756 m 517 961 l 399 1129 l 538 1129 l 613 961 l 517 961 z "},"ể":{"ha":713,"x_min":41,"x_max":673,"o":"m 413 -14 q 208 36 290 -14 q 83 168 125 85 q 41 348 41 250 q 80 523 41 443 q 195 651 119 603 q 377 699 270 699 q 535 663 468 699 q 637 560 601 626 q 673 406 673 494 q 671 368 673 388 q 665 327 669 349 l 191 327 q 234 198 200 246 q 319 131 268 151 q 428 110 369 110 q 533 123 481 110 q 629 158 584 135 l 642 39 q 545 3 603 20 q 413 -14 488 -14 m 199 426 l 524 426 q 509 501 524 467 q 461 555 494 535 q 376 575 428 575 q 257 535 299 575 q 199 426 215 494 m 209 756 l 209 848 l 388 974 l 567 848 l 567 756 l 388 851 l 209 756 m 522 925 l 508 983 q 545 1003 533 991 q 558 1035 558 1015 q 543 1066 558 1056 q 503 1076 528 1076 q 460 1069 482 1076 q 417 1050 438 1062 l 393 1127 q 445 1147 417 1140 q 504 1153 473 1153 q 602 1125 562 1153 q 642 1043 642 1097 q 613 967 642 996 q 522 925 585 939 z "},"ễ":{"ha":713,"x_min":41,"x_max":673,"o":"m 413 -14 q 208 36 290 -14 q 83 168 125 85 q 41 348 41 250 q 80 523 41 443 q 195 651 119 603 q 377 699 270 699 q 535 663 468 699 q 637 560 601 626 q 673 406 673 494 q 671 368 673 388 q 665 327 669 349 l 191 327 q 234 198 200 246 q 319 131 268 151 q 428 110 369 110 q 533 123 481 110 q 629 158 584 135 l 642 39 q 545 3 603 20 q 413 -14 488 -14 m 199 426 l 524 426 q 509 501 524 467 q 461 555 494 535 q 376 575 428 575 q 257 535 299 575 q 199 426 215 494 m 209 756 l 209 848 l 388 974 l 567 848 l 567 756 l 388 851 l 209 756 m 506 1028 q 439 1042 474 1028 q 370 1071 403 1057 q 311 1085 338 1085 q 265 1036 265 1085 l 168 1036 q 194 1142 168 1106 q 271 1178 221 1178 q 338 1164 303 1178 q 406 1135 373 1149 q 465 1120 439 1120 q 512 1169 512 1120 l 608 1169 q 582 1065 608 1101 q 506 1028 556 1028 z "},"ȅ":{"ha":713,"x_min":41,"x_max":673,"o":"m 413 -14 q 208 36 290 -14 q 83 168 125 85 q 41 348 41 250 q 80 523 41 443 q 195 651 119 603 q 377 699 270 699 q 535 663 468 699 q 637 560 601 626 q 673 406 673 494 q 671 368 673 388 q 665 327 669 349 l 191 327 q 234 198 200 246 q 319 131 268 151 q 428 110 369 110 q 533 123 481 110 q 629 158 584 135 l 642 39 q 545 3 603 20 q 413 -14 488 -14 m 199 426 l 524 426 q 509 501 524 467 q 461 555 494 535 q 376 575 428 575 q 257 535 299 575 q 199 426 215 494 m 542 808 l 442 808 l 305 1047 l 451 1047 l 542 808 m 343 808 l 244 808 l 97 1047 l 244 1047 l 343 808 z "},"ë":{"ha":713,"x_min":41,"x_max":673,"o":"m 413 -14 q 208 36 290 -14 q 83 168 125 85 q 41 348 41 250 q 80 523 41 443 q 195 651 119 603 q 377 699 270 699 q 535 663 468 699 q 637 560 601 626 q 673 406 673 494 q 671 368 673 388 q 665 327 669 349 l 191 327 q 234 198 200 246 q 319 131 268 151 q 428 110 369 110 q 533 123 481 110 q 629 158 584 135 l 642 39 q 545 3 603 20 q 413 -14 488 -14 m 199 426 l 524 426 q 509 501 524 467 q 461 555 494 535 q 376 575 428 575 q 257 535 299 575 q 199 426 215 494 m 462 821 l 462 938 l 587 938 l 587 821 l 462 821 m 190 821 l 190 938 l 315 938 l 315 821 l 190 821 z "},"ė":{"ha":713,"x_min":41,"x_max":673,"o":"m 413 -14 q 208 36 290 -14 q 83 168 125 85 q 41 348 41 250 q 80 523 41 443 q 195 651 119 603 q 377 699 270 699 q 535 663 468 699 q 637 560 601 626 q 673 406 673 494 q 671 368 673 388 q 665 327 669 349 l 191 327 q 234 198 200 246 q 319 131 268 151 q 428 110 369 110 q 533 123 481 110 q 629 158 584 135 l 642 39 q 545 3 603 20 q 413 -14 488 -14 m 199 426 l 524 426 q 509 501 524 467 q 461 555 494 535 q 376 575 428 575 q 257 535 299 575 q 199 426 215 494 m 319 827 l 319 956 l 457 956 l 457 827 l 319 827 z "},"ẹ":{"ha":713,"x_min":41,"x_max":673,"o":"m 413 -14 q 208 36 290 -14 q 83 168 125 85 q 41 348 41 250 q 80 523 41 443 q 195 651 119 603 q 377 699 270 699 q 535 663 468 699 q 637 560 601 626 q 673 406 673 494 q 671 368 673 388 q 665 327 669 349 l 191 327 q 234 198 200 246 q 319 131 268 151 q 428 110 369 110 q 533 123 481 110 q 629 158 584 135 l 642 39 q 545 3 603 20 q 413 -14 488 -14 m 199 426 l 524 426 q 509 501 524 467 q 461 555 494 535 q 376 575 428 575 q 257 535 299 575 q 199 426 215 494 z "},"è":{"ha":713,"x_min":41,"x_max":673,"o":"m 413 -14 q 208 36 290 -14 q 83 168 125 85 q 41 348 41 250 q 80 523 41 443 q 195 651 119 603 q 377 699 270 699 q 535 663 468 699 q 637 560 601 626 q 673 406 673 494 q 671 368 673 388 q 665 327 669 349 l 191 327 q 234 198 200 246 q 319 131 268 151 q 428 110 369 110 q 533 123 481 110 q 629 158 584 135 l 642 39 q 545 3 603 20 q 413 -14 488 -14 m 199 426 l 524 426 q 509 501 524 467 q 461 555 494 535 q 376 575 428 575 q 257 535 299 575 q 199 426 215 494 m 520 797 l 255 899 l 255 1046 l 520 892 l 520 797 z "},"ẻ":{"ha":713,"x_min":41,"x_max":673,"o":"m 413 -14 q 208 36 290 -14 q 83 168 125 85 q 41 348 41 250 q 80 523 41 443 q 195 651 119 603 q 377 699 270 699 q 535 663 468 699 q 637 560 601 626 q 673 406 673 494 q 671 368 673 388 q 665 327 669 349 l 191 327 q 234 198 200 246 q 319 131 268 151 q 428 110 369 110 q 533 123 481 110 q 629 158 584 135 l 642 39 q 545 3 603 20 q 413 -14 488 -14 m 199 426 l 524 426 q 509 501 524 467 q 461 555 494 535 q 376 575 428 575 q 257 535 299 575 q 199 426 215 494 m 410 735 l 360 783 q 406 830 391 812 q 421 874 421 849 q 406 909 421 897 q 366 921 392 921 q 323 914 344 921 q 280 894 301 906 l 256 972 q 308 991 280 984 q 367 998 336 998 q 465 967 425 998 q 505 878 505 936 q 481 802 505 833 q 410 735 457 770 z "},"ȇ":{"ha":713,"x_min":41,"x_max":673,"o":"m 413 -14 q 208 36 290 -14 q 83 168 125 85 q 41 348 41 250 q 80 523 41 443 q 195 651 119 603 q 377 699 270 699 q 535 663 468 699 q 637 560 601 626 q 673 406 673 494 q 671 368 673 388 q 665 327 669 349 l 191 327 q 234 198 200 246 q 319 131 268 151 q 428 110 369 110 q 533 123 481 110 q 629 158 584 135 l 642 39 q 545 3 603 20 q 413 -14 488 -14 m 199 426 l 524 426 q 509 501 524 467 q 461 555 494 535 q 376 575 428 575 q 257 535 299 575 q 199 426 215 494 m 388 990 q 502 965 456 990 q 572 897 549 939 q 596 806 596 856 l 482 806 q 455 871 482 849 q 388 893 428 893 q 321 871 348 893 q 294 806 294 849 l 181 806 q 204 897 181 856 q 274 965 228 939 q 388 990 320 990 z "},"ē":{"ha":713,"x_min":41,"x_max":673,"o":"m 413 -14 q 208 36 290 -14 q 83 168 125 85 q 41 348 41 250 q 80 523 41 443 q 195 651 119 603 q 377 699 270 699 q 535 663 468 699 q 637 560 601 626 q 673 406 673 494 q 671 368 673 388 q 665 327 669 349 l 191 327 q 234 198 200 246 q 319 131 268 151 q 428 110 369 110 q 533 123 481 110 q 629 158 584 135 l 642 39 q 545 3 603 20 q 413 -14 488 -14 m 199 426 l 524 426 q 509 501 524 467 q 461 555 494 535 q 376 575 428 575 q 257 535 299 575 q 199 426 215 494 m 164 826 l 164 931 l 613 931 l 613 826 l 164 826 z "},"ḗ":{"ha":713,"x_min":41,"x_max":673,"o":"m 413 -14 q 208 36 290 -14 q 83 168 125 85 q 41 348 41 250 q 80 523 41 443 q 195 651 119 603 q 377 699 270 699 q 535 663 468 699 q 637 560 601 626 q 673 406 673 494 q 671 368 673 388 q 665 327 669 349 l 191 327 q 234 198 200 246 q 319 131 268 151 q 428 110 369 110 q 533 123 481 110 q 629 158 584 135 l 642 39 q 545 3 603 20 q 413 -14 488 -14 m 199 426 l 524 426 q 509 501 524 467 q 461 555 494 535 q 376 575 428 575 q 257 535 299 575 q 199 426 215 494 m 164 815 l 164 915 l 613 915 l 613 815 l 164 815 m 256 1011 l 256 1098 l 522 1230 l 522 1092 l 256 1011 z "},"ḕ":{"ha":713,"x_min":41,"x_max":673,"o":"m 413 -14 q 208 36 290 -14 q 83 168 125 85 q 41 348 41 250 q 80 523 41 443 q 195 651 119 603 q 377 699 270 699 q 535 663 468 699 q 637 560 601 626 q 673 406 673 494 q 671 368 673 388 q 665 327 669 349 l 191 327 q 234 198 200 246 q 319 131 268 151 q 428 110 369 110 q 533 123 481 110 q 629 158 584 135 l 642 39 q 545 3 603 20 q 413 -14 488 -14 m 199 426 l 524 426 q 509 501 524 467 q 461 555 494 535 q 376 575 428 575 q 257 535 299 575 q 199 426 215 494 m 164 815 l 164 915 l 613 915 l 613 815 l 164 815 m 520 1011 l 255 1092 l 255 1230 l 520 1098 l 520 1011 z "},"ę":{"ha":713,"x_min":41,"x_max":709,"o":"m 413 -14 q 208 36 290 -14 q 83 168 125 85 q 41 348 41 250 q 80 523 41 443 q 195 651 119 603 q 377 699 270 699 q 535 663 468 699 q 637 560 601 626 q 673 406 673 494 q 671 368 673 388 q 665 327 669 349 l 191 327 q 234 198 200 246 q 319 131 268 151 q 428 110 369 110 q 533 123 481 110 q 629 158 584 135 l 642 39 q 545 3 603 20 q 413 -14 488 -14 m 199 426 l 524 426 q 509 501 524 467 q 461 555 494 535 q 376 575 428 575 q 257 535 299 575 q 199 426 215 494 m 564 39 l 642 39 q 565 -33 594 2 q 535 -107 535 -69 q 553 -158 535 -141 q 601 -175 572 -175 q 647 -169 626 -175 q 688 -153 667 -163 l 709 -225 q 659 -244 689 -235 q 592 -252 630 -252 q 492 -221 533 -252 q 451 -131 451 -190 q 487 -31 451 -76 q 564 39 524 14 z "},"ẽ":{"ha":713,"x_min":41,"x_max":673,"o":"m 413 -14 q 208 36 290 -14 q 83 168 125 85 q 41 348 41 250 q 80 523 41 443 q 195 651 119 603 q 377 699 270 699 q 535 663 468 699 q 637 560 601 626 q 673 406 673 494 q 671 368 673 388 q 665 327 669 349 l 191 327 q 234 198 200 246 q 319 131 268 151 q 428 110 369 110 q 533 123 481 110 q 629 158 584 135 l 642 39 q 545 3 603 20 q 413 -14 488 -14 m 199 426 l 524 426 q 509 501 524 467 q 461 555 494 535 q 376 575 428 575 q 257 535 299 575 q 199 426 215 494 m 502 804 q 435 820 467 804 q 372 852 402 836 q 312 868 341 868 q 265 815 265 868 l 155 815 q 188 934 158 893 q 274 976 218 976 q 342 960 309 976 q 405 928 374 944 q 465 912 435 912 q 512 965 512 912 l 622 965 q 589 845 619 887 q 502 804 558 804 z "},"ə":{"ha":713,"x_min":40,"x_max":672,"o":"m 300 700 q 506 650 423 700 q 630 518 588 601 q 672 338 672 436 q 633 163 672 243 q 518 35 594 83 q 336 -13 443 -13 q 178 24 245 -13 q 76 126 112 60 q 40 281 40 192 q 42 318 40 299 q 48 359 44 338 l 522 359 q 479 488 513 440 q 394 556 445 535 q 285 576 344 576 q 181 564 232 576 q 84 528 129 551 l 71 647 q 168 683 110 666 q 300 700 226 700 m 514 260 l 189 260 q 204 185 189 219 q 252 131 219 151 q 338 111 285 111 q 456 151 414 111 q 514 260 498 192 z "},"f":{"ha":465,"x_min":18,"x_max":443,"o":"m 128 0 l 128 570 l 18 570 l 34 686 l 128 686 l 128 842 q 179 987 128 933 q 328 1042 230 1042 q 389 1038 362 1042 q 438 1026 416 1033 l 420 906 q 392 914 406 911 q 357 917 377 917 q 295 895 318 917 q 273 824 273 874 l 273 686 l 443 686 l 443 570 l 273 570 l 273 0 l 128 0 z "},"g":{"ha":694,"x_min":35,"x_max":694,"o":"m 358 -349 q 190 -325 263 -349 q 76 -257 117 -301 q 35 -147 35 -212 q 65 -53 35 -93 q 151 14 96 -13 q 103 54 120 31 q 86 106 86 77 q 105 163 86 138 q 163 203 124 188 q 78 299 107 240 q 49 431 49 359 q 82 566 49 505 q 177 664 115 628 q 330 700 240 700 q 418 687 377 700 q 493 651 460 674 q 561 677 520 667 q 653 688 603 688 q 667 688 660 688 q 679 688 673 688 l 665 594 q 643 594 654 594 q 621 594 632 594 q 595 593 614 594 q 559 588 576 592 q 598 515 585 555 q 611 431 611 474 q 578 292 611 353 q 482 193 545 230 q 330 156 419 156 q 286 159 308 156 q 246 167 265 163 q 221 138 221 159 q 241 110 221 121 q 305 92 261 99 l 460 69 q 633 6 572 53 q 694 -129 694 -42 q 654 -248 694 -199 q 538 -323 613 -297 q 358 -349 462 -349 m 367 -229 q 508 -206 460 -229 q 557 -136 557 -183 q 525 -77 557 -97 q 429 -46 493 -57 l 253 -18 q 191 -59 217 -33 q 165 -123 165 -85 q 219 -203 165 -178 q 367 -229 274 -229 m 330 268 q 439 313 402 268 q 476 430 476 358 q 439 545 476 501 q 330 589 402 589 q 220 545 258 589 q 183 430 183 501 q 220 313 183 358 q 330 268 258 268 z "},"ğ":{"ha":694,"x_min":35,"x_max":694,"o":"m 358 -349 q 190 -325 263 -349 q 76 -257 117 -301 q 35 -147 35 -212 q 65 -53 35 -93 q 151 14 96 -13 q 103 54 120 31 q 86 106 86 77 q 105 163 86 138 q 163 203 124 188 q 78 299 107 240 q 49 431 49 359 q 82 566 49 505 q 177 664 115 628 q 330 700 240 700 q 418 687 377 700 q 493 651 460 674 q 561 677 520 667 q 653 688 603 688 q 667 688 660 688 q 679 688 673 688 l 665 594 q 643 594 654 594 q 621 594 632 594 q 595 593 614 594 q 559 588 576 592 q 598 515 585 555 q 611 431 611 474 q 578 292 611 353 q 482 193 545 230 q 330 156 419 156 q 286 159 308 156 q 246 167 265 163 q 221 138 221 159 q 241 110 221 121 q 305 92 261 99 l 460 69 q 633 6 572 53 q 694 -129 694 -42 q 654 -248 694 -199 q 538 -323 613 -297 q 358 -349 462 -349 m 367 -229 q 508 -206 460 -229 q 557 -136 557 -183 q 525 -77 557 -97 q 429 -46 493 -57 l 253 -18 q 191 -59 217 -33 q 165 -123 165 -85 q 219 -203 165 -178 q 367 -229 274 -229 m 330 268 q 439 313 402 268 q 476 430 476 358 q 439 545 476 501 q 330 589 402 589 q 220 545 258 589 q 183 430 183 501 q 220 313 183 358 q 330 268 258 268 m 350 806 q 236 832 282 806 q 166 899 190 858 q 142 990 142 941 l 256 990 q 283 926 256 948 q 350 903 310 903 q 417 926 390 903 q 444 990 444 948 l 558 990 q 534 899 558 941 q 464 832 510 858 q 350 806 418 806 z "},"ǧ":{"ha":694,"x_min":35,"x_max":694,"o":"m 358 -349 q 190 -325 263 -349 q 76 -257 117 -301 q 35 -147 35 -212 q 65 -53 35 -93 q 151 14 96 -13 q 103 54 120 31 q 86 106 86 77 q 105 163 86 138 q 163 203 124 188 q 78 299 107 240 q 49 431 49 359 q 82 566 49 505 q 177 664 115 628 q 330 700 240 700 q 418 687 377 700 q 493 651 460 674 q 561 677 520 667 q 653 688 603 688 q 667 688 660 688 q 679 688 673 688 l 665 594 q 643 594 654 594 q 621 594 632 594 q 595 593 614 594 q 559 588 576 592 q 598 515 585 555 q 611 431 611 474 q 578 292 611 353 q 482 193 545 230 q 330 156 419 156 q 286 159 308 156 q 246 167 265 163 q 221 138 221 159 q 241 110 221 121 q 305 92 261 99 l 460 69 q 633 6 572 53 q 694 -129 694 -42 q 654 -248 694 -199 q 538 -323 613 -297 q 358 -349 462 -349 m 367 -229 q 508 -206 460 -229 q 557 -136 557 -183 q 525 -77 557 -97 q 429 -46 493 -57 l 253 -18 q 191 -59 217 -33 q 165 -123 165 -85 q 219 -203 165 -178 q 367 -229 274 -229 m 330 268 q 439 313 402 268 q 476 430 476 358 q 439 545 476 501 q 330 589 402 589 q 220 545 258 589 q 183 430 183 501 q 220 313 183 358 q 330 268 258 268 m 350 776 l 171 930 l 171 1025 l 350 912 l 529 1025 l 529 930 l 350 776 z "},"ĝ":{"ha":694,"x_min":35,"x_max":694,"o":"m 358 -349 q 190 -325 263 -349 q 76 -257 117 -301 q 35 -147 35 -212 q 65 -53 35 -93 q 151 14 96 -13 q 103 54 120 31 q 86 106 86 77 q 105 163 86 138 q 163 203 124 188 q 78 299 107 240 q 49 431 49 359 q 82 566 49 505 q 177 664 115 628 q 330 700 240 700 q 418 687 377 700 q 493 651 460 674 q 561 677 520 667 q 653 688 603 688 q 667 688 660 688 q 679 688 673 688 l 665 594 q 643 594 654 594 q 621 594 632 594 q 595 593 614 594 q 559 588 576 592 q 598 515 585 555 q 611 431 611 474 q 578 292 611 353 q 482 193 545 230 q 330 156 419 156 q 286 159 308 156 q 246 167 265 163 q 221 138 221 159 q 241 110 221 121 q 305 92 261 99 l 460 69 q 633 6 572 53 q 694 -129 694 -42 q 654 -248 694 -199 q 538 -323 613 -297 q 358 -349 462 -349 m 367 -229 q 508 -206 460 -229 q 557 -136 557 -183 q 525 -77 557 -97 q 429 -46 493 -57 l 253 -18 q 191 -59 217 -33 q 165 -123 165 -85 q 219 -203 165 -178 q 367 -229 274 -229 m 330 268 q 439 313 402 268 q 476 430 476 358 q 439 545 476 501 q 330 589 402 589 q 220 545 258 589 q 183 430 183 501 q 220 313 183 358 q 330 268 258 268 m 171 778 l 171 873 l 350 1026 l 529 873 l 529 778 l 350 890 l 171 778 z "},"ģ":{"ha":694,"x_min":35,"x_max":694,"o":"m 358 -349 q 190 -325 263 -349 q 76 -257 117 -301 q 35 -147 35 -212 q 65 -53 35 -93 q 151 14 96 -13 q 103 54 120 31 q 86 106 86 77 q 105 163 86 138 q 163 203 124 188 q 78 299 107 240 q 49 431 49 359 q 82 566 49 505 q 177 664 115 628 q 330 700 240 700 q 418 687 377 700 q 493 651 460 674 q 561 677 520 667 q 653 688 603 688 q 667 688 660 688 q 679 688 673 688 l 665 594 q 643 594 654 594 q 621 594 632 594 q 595 593 614 594 q 559 588 576 592 q 598 515 585 555 q 611 431 611 474 q 578 292 611 353 q 482 193 545 230 q 330 156 419 156 q 286 159 308 156 q 246 167 265 163 q 221 138 221 159 q 241 110 221 121 q 305 92 261 99 l 460 69 q 633 6 572 53 q 694 -129 694 -42 q 654 -248 694 -199 q 538 -323 613 -297 q 358 -349 462 -349 m 367 -229 q 508 -206 460 -229 q 557 -136 557 -183 q 525 -77 557 -97 q 429 -46 493 -57 l 253 -18 q 191 -59 217 -33 q 165 -123 165 -85 q 219 -203 165 -178 q 367 -229 274 -229 m 330 268 q 439 313 402 268 q 476 430 476 358 q 439 545 476 501 q 330 589 402 589 q 220 545 258 589 q 183 430 183 501 q 220 313 183 358 q 330 268 258 268 z "},"ġ":{"ha":694,"x_min":35,"x_max":694,"o":"m 358 -349 q 190 -325 263 -349 q 76 -257 117 -301 q 35 -147 35 -212 q 65 -53 35 -93 q 151 14 96 -13 q 103 54 120 31 q 86 106 86 77 q 105 163 86 138 q 163 203 124 188 q 78 299 107 240 q 49 431 49 359 q 82 566 49 505 q 177 664 115 628 q 330 700 240 700 q 418 687 377 700 q 493 651 460 674 q 561 677 520 667 q 653 688 603 688 q 667 688 660 688 q 679 688 673 688 l 665 594 q 643 594 654 594 q 621 594 632 594 q 595 593 614 594 q 559 588 576 592 q 598 515 585 555 q 611 431 611 474 q 578 292 611 353 q 482 193 545 230 q 330 156 419 156 q 286 159 308 156 q 246 167 265 163 q 221 138 221 159 q 241 110 221 121 q 305 92 261 99 l 460 69 q 633 6 572 53 q 694 -129 694 -42 q 654 -248 694 -199 q 538 -323 613 -297 q 358 -349 462 -349 m 367 -229 q 508 -206 460 -229 q 557 -136 557 -183 q 525 -77 557 -97 q 429 -46 493 -57 l 253 -18 q 191 -59 217 -33 q 165 -123 165 -85 q 219 -203 165 -178 q 367 -229 274 -229 m 330 268 q 439 313 402 268 q 476 430 476 358 q 439 545 476 501 q 330 589 402 589 q 220 545 258 589 q 183 430 183 501 q 220 313 183 358 q 330 268 258 268 m 281 827 l 281 956 l 419 956 l 419 827 l 281 827 z "},"ḡ":{"ha":694,"x_min":35,"x_max":694,"o":"m 358 -349 q 190 -325 263 -349 q 76 -257 117 -301 q 35 -147 35 -212 q 65 -53 35 -93 q 151 14 96 -13 q 103 54 120 31 q 86 106 86 77 q 105 163 86 138 q 163 203 124 188 q 78 299 107 240 q 49 431 49 359 q 82 566 49 505 q 177 664 115 628 q 330 700 240 700 q 418 687 377 700 q 493 651 460 674 q 561 677 520 667 q 653 688 603 688 q 667 688 660 688 q 679 688 673 688 l 665 594 q 643 594 654 594 q 621 594 632 594 q 595 593 614 594 q 559 588 576 592 q 598 515 585 555 q 611 431 611 474 q 578 292 611 353 q 482 193 545 230 q 330 156 419 156 q 286 159 308 156 q 246 167 265 163 q 221 138 221 159 q 241 110 221 121 q 305 92 261 99 l 460 69 q 633 6 572 53 q 694 -129 694 -42 q 654 -248 694 -199 q 538 -323 613 -297 q 358 -349 462 -349 m 367 -229 q 508 -206 460 -229 q 557 -136 557 -183 q 525 -77 557 -97 q 429 -46 493 -57 l 253 -18 q 191 -59 217 -33 q 165 -123 165 -85 q 219 -203 165 -178 q 367 -229 274 -229 m 330 268 q 439 313 402 268 q 476 430 476 358 q 439 545 476 501 q 330 589 402 589 q 220 545 258 589 q 183 430 183 501 q 220 313 183 358 q 330 268 258 268 m 126 826 l 126 931 l 574 931 l 574 826 l 126 826 z "},"h":{"ha":758,"x_min":81,"x_max":682,"o":"m 81 0 l 81 1042 l 227 1042 l 227 576 l 185 590 q 285 668 231 638 q 419 699 339 699 q 567 659 508 699 q 653 548 625 619 q 682 382 682 476 l 682 0 l 537 0 l 537 368 q 500 525 537 474 q 384 575 463 575 q 276 543 321 575 q 202 458 231 511 l 227 541 l 227 0 l 81 0 z "},"ħ":{"ha":760,"x_min":-18,"x_max":685,"o":"m 84 0 l 84 1042 l 230 1042 l 230 583 l 200 595 q 295 672 241 644 q 426 699 349 699 q 576 658 519 699 q 659 543 633 616 q 685 374 685 469 l 685 0 l 540 0 l 540 368 q 506 527 540 479 q 390 575 472 575 q 278 545 322 575 q 204 458 234 516 l 230 549 l 230 0 l 84 0 m -18 815 l -18 920 l 438 920 l 438 815 l -18 815 z "},"ḫ":{"ha":758,"x_min":81,"x_max":682,"o":"m 81 0 l 81 1042 l 227 1042 l 227 576 l 185 590 q 285 668 231 638 q 419 699 339 699 q 567 659 508 699 q 653 548 625 619 q 682 382 682 476 l 682 0 l 537 0 l 537 368 q 500 525 537 474 q 384 575 463 575 q 276 543 321 575 q 202 458 231 511 l 227 541 l 227 0 l 81 0 z "},"ĥ":{"ha":758,"x_min":-24,"x_max":682,"o":"m 81 0 l 81 1042 l 227 1042 l 227 576 l 185 590 q 285 668 231 638 q 419 699 339 699 q 567 659 508 699 q 653 548 625 619 q 682 382 682 476 l 682 0 l 537 0 l 537 368 q 500 525 537 474 q 384 575 463 575 q 276 543 321 575 q 202 458 231 511 l 227 541 l 227 0 l 81 0 m -24 1089 l -24 1181 l 155 1307 l 334 1181 l 334 1089 l 155 1184 l -24 1089 z "},"ḥ":{"ha":758,"x_min":81,"x_max":682,"o":"m 81 0 l 81 1042 l 227 1042 l 227 576 l 185 590 q 285 668 231 638 q 419 699 339 699 q 567 659 508 699 q 653 548 625 619 q 682 382 682 476 l 682 0 l 537 0 l 537 368 q 500 525 537 474 q 384 575 463 575 q 276 543 321 575 q 202 458 231 511 l 227 541 l 227 0 l 81 0 z "},"i":{"ha":311,"x_min":83,"x_max":228,"o":"m 83 0 l 83 686 l 228 686 l 228 0 l 83 0 m 83 819 l 83 972 l 228 972 l 228 819 l 83 819 z "},"ı":{"ha":311,"x_min":83,"x_max":228,"o":"m 83 0 l 83 686 l 228 686 l 228 0 l 83 0 z "},"í":{"ha":311,"x_min":24,"x_max":289,"o":"m 83 0 l 83 686 l 228 686 l 228 0 l 83 0 m 24 797 l 24 892 l 289 1046 l 289 899 l 24 797 z "},"ĭ":{"ha":311,"x_min":-52,"x_max":363,"o":"m 83 0 l 83 686 l 228 686 l 228 0 l 83 0 m 156 806 q 41 832 88 806 q -28 899 -5 858 q -52 990 -52 941 l 62 990 q 89 926 62 948 q 156 903 115 903 q 223 926 196 903 q 249 990 249 948 l 363 990 q 340 899 363 941 q 270 832 316 858 q 156 806 224 806 z "},"î":{"ha":311,"x_min":-24,"x_max":335,"o":"m 83 0 l 83 686 l 228 686 l 228 0 l 83 0 m -24 778 l -24 873 l 156 1026 l 335 873 l 335 778 l 156 890 l -24 778 z "},"ȉ":{"ha":311,"x_min":-135,"x_max":309,"o":"m 83 0 l 83 686 l 228 686 l 228 0 l 83 0 m 309 808 l 210 808 l 72 1047 l 218 1047 l 309 808 m 110 808 l 11 808 l -135 1047 l 11 1047 l 110 808 z "},"ï":{"ha":311,"x_min":-44,"x_max":354,"o":"m 83 0 l 83 686 l 228 686 l 228 0 l 83 0 m 229 821 l 229 938 l 354 938 l 354 821 l 229 821 m -43 821 l -43 938 l 82 938 l 82 821 l -43 821 z "},"ḯ":{"ha":311,"x_min":-44,"x_max":354,"o":"m 83 0 l 83 686 l 228 686 l 228 0 l 83 0 m -43 810 l -43 921 l 82 921 l 82 810 l -43 810 m 229 810 l 229 921 l 354 921 l 354 810 l 229 810 m 24 989 l 24 1076 l 289 1208 l 289 1069 l 24 989 z "},"ị":{"ha":311,"x_min":83,"x_max":228,"o":"m 83 0 l 83 686 l 228 686 l 228 0 l 83 0 m 83 819 l 83 972 l 228 972 l 228 819 l 83 819 z "},"ì":{"ha":311,"x_min":22,"x_max":288,"o":"m 83 0 l 83 686 l 228 686 l 228 0 l 83 0 m 288 797 l 22 899 l 22 1046 l 288 892 l 288 797 z "},"ỉ":{"ha":311,"x_min":24,"x_max":272,"o":"m 83 0 l 83 686 l 228 686 l 228 0 l 83 0 m 177 735 l 128 783 q 173 830 158 812 q 188 874 188 849 q 174 909 188 897 q 133 921 159 921 q 90 914 112 921 q 47 894 69 906 l 24 972 q 75 991 47 984 q 135 998 103 998 q 232 967 192 998 q 272 878 272 936 q 248 802 272 833 q 177 735 224 770 z "},"ȋ":{"ha":311,"x_min":-52,"x_max":363,"o":"m 83 0 l 83 686 l 228 686 l 228 0 l 83 0 m 156 990 q 270 965 224 990 q 340 897 316 939 q 363 806 363 856 l 249 806 q 223 871 249 849 q 156 893 196 893 q 89 871 115 893 q 62 806 62 849 l -52 806 q -28 897 -52 856 q 41 965 -5 939 q 156 990 88 990 z "},"ĳ":{"ha":622,"x_min":83,"x_max":539,"o":"m 83 0 l 83 686 l 228 686 l 228 0 l 83 0 m 83 819 l 83 972 l 228 972 l 228 819 l 83 819 m 315 -336 l 300 -221 q 358 -208 338 -219 q 386 -170 378 -197 q 394 -94 394 -143 l 394 686 l 539 686 l 539 -151 q 514 -258 539 -219 q 448 -312 488 -296 q 362 -332 408 -329 l 315 -336 m 394 819 l 394 972 l 539 972 l 539 819 l 394 819 z "},"ī":{"ha":311,"x_min":-69,"x_max":380,"o":"m 83 0 l 83 686 l 228 686 l 228 0 l 83 0 m -69 826 l -69 931 l 380 931 l 380 826 l -69 826 z "},"į":{"ha":311,"x_min":36,"x_max":294,"o":"m 83 0 l 83 686 l 228 686 l 228 0 l 83 0 m 83 819 l 83 972 l 228 972 l 228 819 l 83 819 m 149 0 l 228 0 q 150 -72 180 -37 q 120 -146 120 -108 q 139 -197 120 -180 q 187 -214 157 -214 q 232 -208 211 -214 q 273 -192 253 -202 l 294 -264 q 245 -283 274 -274 q 177 -291 215 -291 q 77 -260 118 -291 q 36 -170 36 -228 q 73 -70 36 -115 q 149 0 109 -25 z "},"ĩ":{"ha":311,"x_min":-78,"x_max":389,"o":"m 83 0 l 83 686 l 228 686 l 228 0 l 83 0 m 269 804 q 202 820 235 804 q 139 852 169 836 q 79 868 108 868 q 32 815 32 868 l -78 815 q -44 934 -74 893 q 42 976 -15 976 q 109 960 76 976 q 172 928 142 944 q 232 912 203 912 q 279 965 279 912 l 389 965 q 356 845 386 887 q 269 804 326 804 z "},"j":{"ha":311,"x_min":-11,"x_max":228,"o":"m 3 -336 l -11 -221 q 47 -208 26 -219 q 75 -170 67 -197 q 83 -94 83 -143 l 83 686 l 228 686 l 228 -151 q 202 -258 228 -219 q 137 -312 177 -296 q 51 -332 97 -329 l 3 -336 m 83 819 l 83 972 l 228 972 l 228 819 l 83 819 z "},"ȷ":{"ha":311,"x_min":-11,"x_max":228,"o":"m 3 -336 l -11 -221 q 49 -210 28 -219 q 76 -175 69 -201 q 83 -94 83 -149 l 83 686 l 228 686 l 228 -151 q 204 -249 228 -210 q 140 -309 180 -288 q 54 -332 101 -329 l 3 -336 z "},"ĵ":{"ha":311,"x_min":-24,"x_max":335,"o":"m 3 -336 l -11 -221 q 49 -210 28 -219 q 76 -175 69 -201 q 83 -94 83 -149 l 83 686 l 228 686 l 228 -151 q 204 -249 228 -210 q 140 -309 180 -288 q 54 -332 101 -329 l 3 -336 m -24 778 l -24 873 l 156 1026 l 335 873 l 335 778 l 156 890 l -24 778 z "},"k":{"ha":644,"x_min":81,"x_max":639,"o":"m 81 0 l 81 1042 l 226 1042 l 226 389 l 462 686 l 633 686 l 369 363 l 639 0 l 468 0 l 226 330 l 226 0 l 81 0 z "},"ķ":{"ha":644,"x_min":81,"x_max":639,"o":"m 81 0 l 81 1042 l 226 1042 l 226 389 l 462 686 l 633 686 l 369 363 l 639 0 l 468 0 l 226 330 l 226 0 l 81 0 m 351 -428 l 274 -428 l 325 -278 l 270 -278 l 270 -126 l 429 -126 l 429 -262 l 351 -428 z "},"ĸ":{"ha":706,"x_min":83,"x_max":698,"o":"m 83 0 l 83 686 l 228 686 l 228 381 l 524 686 l 694 686 l 357 356 l 698 0 l 527 0 l 228 322 l 228 0 l 83 0 z "},"l":{"ha":344,"x_min":82,"x_max":326,"o":"m 259 -14 q 156 10 195 -14 q 100 74 117 35 q 82 158 82 113 l 82 1042 l 227 1042 l 227 229 q 234 145 227 172 q 263 111 242 119 q 326 103 284 103 l 309 -14 l 259 -14 z "},"ĺ":{"ha":344,"x_min":22,"x_max":326,"o":"m 259 -14 q 156 10 195 -14 q 100 74 117 35 q 82 158 82 113 l 82 1042 l 227 1042 l 227 229 q 234 145 227 172 q 263 111 242 119 q 326 103 284 103 l 309 -14 l 259 -14 m 23 1128 l 23 1215 l 288 1347 l 288 1208 l 23 1128 z "},"ľ":{"ha":406,"x_min":82,"x_max":427,"o":"m 259 -14 q 156 10 195 -14 q 100 74 117 35 q 82 158 82 113 l 82 1042 l 227 1042 l 227 229 q 234 145 227 172 q 263 111 242 119 q 326 103 284 103 l 309 -14 l 259 -14 m 294 804 l 294 1042 l 427 1042 l 388 804 l 294 804 z "},"ļ":{"ha":344,"x_min":82,"x_max":326,"o":"m 259 -14 q 156 10 195 -14 q 100 74 117 35 q 82 158 82 113 l 82 1042 l 227 1042 l 227 229 q 234 145 227 172 q 263 111 242 119 q 326 103 284 103 l 309 -14 l 259 -14 m 217 -428 l 141 -428 l 192 -278 l 137 -278 l 137 -126 l 296 -126 l 296 -262 l 217 -428 z "},"ŀ":{"ha":415,"x_min":82,"x_max":429,"o":"m 259 -14 q 156 10 195 -14 q 100 74 117 35 q 82 158 82 113 l 82 1042 l 227 1042 l 227 229 q 234 145 227 172 q 263 111 242 119 q 326 103 284 103 l 309 -14 l 259 -14 m 296 505 l 296 648 l 429 648 l 429 505 l 296 505 z "},"ḷ":{"ha":344,"x_min":82,"x_max":326,"o":"m 259 -14 q 156 10 195 -14 q 100 74 117 35 q 82 158 82 113 l 82 1042 l 227 1042 l 227 229 q 234 145 227 172 q 263 111 242 119 q 326 103 284 103 l 309 -14 l 259 -14 z "},"ǉ":{"ha":655,"x_min":82,"x_max":572,"o":"m 259 -14 q 156 10 195 -14 q 100 74 117 35 q 82 158 82 113 l 82 1042 l 227 1042 l 227 229 q 234 145 227 172 q 263 111 242 119 q 326 103 284 103 l 309 -14 l 259 -14 m 347 -336 l 333 -221 q 391 -208 370 -219 q 419 -170 411 -197 q 426 -94 426 -143 l 426 686 l 572 686 l 572 -151 q 546 -258 572 -219 q 481 -312 521 -296 q 394 -332 440 -329 l 347 -336 m 426 819 l 426 972 l 572 972 l 572 819 l 426 819 z "},"ḻ":{"ha":344,"x_min":-10,"x_max":440,"o":"m 259 -14 q 156 10 195 -14 q 100 74 117 35 q 82 158 82 113 l 82 1042 l 227 1042 l 227 229 q 234 145 227 172 q 263 111 242 119 q 326 103 284 103 l 309 -14 l 259 -14 z "},"ł":{"ha":340,"x_min":-19,"x_max":329,"o":"m 251 -14 q 148 10 187 -14 q 91 74 109 35 q 74 158 74 113 l 74 1042 l 219 1042 l 219 229 q 226 145 219 172 q 255 111 233 119 q 317 103 276 103 l 301 -14 l 251 -14 m -19 540 l -19 647 l 329 738 l 329 633 l -19 540 z "},"m":{"ha":1213,"x_min":83,"x_max":1138,"o":"m 83 0 l 83 686 l 201 686 l 221 568 l 183 594 q 294 673 236 647 q 422 699 353 699 q 519 683 475 699 q 598 631 564 667 q 653 535 633 594 l 616 548 q 711 659 648 619 q 871 699 775 699 q 1020 664 960 699 q 1108 561 1079 629 q 1138 395 1138 494 l 1138 0 l 992 0 l 992 389 q 958 530 992 485 q 845 575 924 575 q 764 559 796 575 q 714 517 732 544 q 690 458 697 490 q 683 391 683 425 l 683 0 l 538 0 l 538 374 q 520 494 538 450 q 469 556 503 538 q 389 575 436 575 q 276 546 324 575 q 206 458 228 517 l 228 537 l 228 0 l 83 0 z "},"ṃ":{"ha":1213,"x_min":83,"x_max":1138,"o":"m 83 0 l 83 686 l 201 686 l 221 568 l 183 594 q 294 673 236 647 q 422 699 353 699 q 519 683 475 699 q 598 631 564 667 q 653 535 633 594 l 616 548 q 711 659 648 619 q 871 699 775 699 q 1020 664 960 699 q 1108 561 1079 629 q 1138 395 1138 494 l 1138 0 l 992 0 l 992 389 q 958 530 992 485 q 845 575 924 575 q 764 559 796 575 q 714 517 732 544 q 690 458 697 490 q 683 391 683 425 l 683 0 l 538 0 l 538 374 q 520 494 538 450 q 469 556 503 538 q 389 575 436 575 q 276 546 324 575 q 206 458 228 517 l 228 537 l 228 0 l 83 0 z "},"n":{"ha":772,"x_min":83,"x_max":697,"o":"m 83 0 l 83 686 l 207 686 l 224 556 l 180 591 q 297 674 236 649 q 425 699 358 699 q 632 612 567 699 q 697 381 697 525 l 697 0 l 551 0 l 551 374 q 515 526 551 478 q 390 575 478 575 q 277 545 326 575 q 206 458 228 516 l 228 538 l 228 0 l 83 0 z "},"ń":{"ha":772,"x_min":83,"x_max":697,"o":"m 83 0 l 83 686 l 207 686 l 224 556 l 180 591 q 297 674 236 649 q 425 699 358 699 q 632 612 567 699 q 697 381 697 525 l 697 0 l 551 0 l 551 374 q 515 526 551 478 q 390 575 478 575 q 277 545 326 575 q 206 458 228 516 l 228 538 l 228 0 l 83 0 m 276 791 l 276 886 l 541 1040 l 541 894 l 276 791 z "},"ŉ":{"ha":967,"x_min":69,"x_max":891,"o":"m 277 0 l 277 686 l 401 686 l 419 556 l 374 591 q 492 674 431 649 q 619 699 553 699 q 826 612 762 699 q 891 381 891 525 l 891 0 l 746 0 l 746 374 q 709 526 746 478 q 585 575 672 575 q 471 545 520 575 q 400 458 422 516 l 422 538 l 422 0 l 277 0 z "},"ň":{"ha":772,"x_min":83,"x_max":697,"o":"m 83 0 l 83 686 l 207 686 l 224 556 l 180 591 q 297 674 236 649 q 425 699 358 699 q 632 612 567 699 q 697 381 697 525 l 697 0 l 551 0 l 551 374 q 515 526 551 478 q 390 575 478 575 q 277 545 326 575 q 206 458 228 516 l 228 538 l 228 0 l 83 0 m 408 770 l 228 924 l 228 1019 l 408 906 l 587 1019 l 587 924 l 408 770 z "},"ņ":{"ha":772,"x_min":83,"x_max":697,"o":"m 83 0 l 83 686 l 207 686 l 224 556 l 180 591 q 297 674 236 649 q 425 699 358 699 q 632 612 567 699 q 697 381 697 525 l 697 0 l 551 0 l 551 374 q 515 526 551 478 q 390 575 478 575 q 277 545 326 575 q 206 458 228 516 l 228 538 l 228 0 l 83 0 m 392 -428 l 316 -428 l 367 -278 l 312 -278 l 312 -126 l 471 -126 l 471 -262 l 392 -428 z "},"ṅ":{"ha":772,"x_min":83,"x_max":697,"o":"m 83 0 l 83 686 l 207 686 l 224 556 l 180 591 q 297 674 236 649 q 425 699 358 699 q 632 612 567 699 q 697 381 697 525 l 697 0 l 551 0 l 551 374 q 515 526 551 478 q 390 575 478 575 q 277 545 326 575 q 206 458 228 516 l 228 538 l 228 0 l 83 0 m 339 822 l 339 951 l 476 951 l 476 822 l 339 822 z "},"ṇ":{"ha":772,"x_min":83,"x_max":697,"o":"m 83 0 l 83 686 l 207 686 l 224 556 l 180 591 q 297 674 236 649 q 425 699 358 699 q 632 612 567 699 q 697 381 697 525 l 697 0 l 551 0 l 551 374 q 515 526 551 478 q 390 575 478 575 q 277 545 326 575 q 206 458 228 516 l 228 538 l 228 0 l 83 0 z "},"ŋ":{"ha":772,"x_min":83,"x_max":697,"o":"m 697 29 q 659 -126 697 -65 q 558 -218 622 -187 q 411 -249 494 -249 q 353 -244 382 -249 q 299 -233 325 -240 l 317 -112 q 415 -124 365 -124 q 514 -90 476 -124 q 551 15 551 -55 l 551 374 q 515 526 551 478 q 390 575 478 575 q 296 556 338 575 q 228 499 253 537 l 228 0 l 83 0 l 83 686 l 207 686 l 217 624 q 318 682 266 665 q 425 699 369 699 q 632 612 567 699 q 697 381 697 525 l 697 29 z "},"ǌ":{"ha":1083,"x_min":83,"x_max":1000,"o":"m 83 0 l 83 686 l 207 686 l 224 556 l 180 591 q 297 674 236 649 q 425 699 358 699 q 632 612 567 699 q 697 381 697 525 l 697 0 l 551 0 l 551 374 q 515 526 551 478 q 390 575 478 575 q 277 545 326 575 q 206 458 228 516 l 228 538 l 228 0 l 83 0 m 776 -336 l 761 -221 q 819 -208 799 -219 q 847 -170 840 -197 q 855 -94 855 -143 l 855 686 l 1000 686 l 1000 -151 q 975 -258 1000 -219 q 909 -312 949 -296 q 823 -332 869 -329 l 776 -336 m 855 819 l 855 972 l 1000 972 l 1000 819 l 855 819 z "},"ṉ":{"ha":772,"x_min":83,"x_max":697,"o":"m 83 0 l 83 686 l 207 686 l 224 556 l 180 591 q 297 674 236 649 q 425 699 358 699 q 632 612 567 699 q 697 381 697 525 l 697 0 l 551 0 l 551 374 q 515 526 551 478 q 390 575 478 575 q 277 545 326 575 q 206 458 228 516 l 228 538 l 228 0 l 83 0 z "},"ñ":{"ha":772,"x_min":83,"x_max":697,"o":"m 83 0 l 83 686 l 207 686 l 224 556 l 180 591 q 297 674 236 649 q 425 699 358 699 q 632 612 567 699 q 697 381 697 525 l 697 0 l 551 0 l 551 374 q 515 526 551 478 q 390 575 478 575 q 277 545 326 575 q 206 458 228 516 l 228 538 l 228 0 l 83 0 m 522 799 q 454 815 487 799 q 391 847 422 831 q 331 863 360 863 q 284 810 284 863 l 174 810 q 208 929 178 888 q 294 970 238 970 q 361 954 328 970 q 424 922 394 938 q 484 906 455 906 q 531 959 531 906 l 641 959 q 608 840 638 881 q 522 799 578 799 z "},"o":{"ha":776,"x_min":42,"x_max":733,"o":"m 388 -14 q 201 34 278 -14 q 83 164 124 83 q 42 342 42 244 q 83 522 42 441 q 201 652 124 603 q 388 700 278 700 q 575 652 497 700 q 693 522 652 603 q 733 342 733 441 q 693 164 733 244 q 575 34 652 83 q 388 -14 497 -14 m 388 110 q 534 173 483 110 q 585 342 585 235 q 534 513 585 450 q 388 576 483 576 q 242 513 293 576 q 190 342 190 450 q 242 173 190 235 q 388 110 293 110 z "},"ó":{"ha":776,"x_min":42,"x_max":733,"o":"m 388 -14 q 201 34 278 -14 q 83 164 124 83 q 42 342 42 244 q 83 522 42 441 q 201 652 124 603 q 388 700 278 700 q 575 652 497 700 q 693 522 652 603 q 733 342 733 441 q 693 164 733 244 q 575 34 652 83 q 388 -14 497 -14 m 388 110 q 534 173 483 110 q 585 342 585 235 q 534 513 585 450 q 388 576 483 576 q 242 513 293 576 q 190 342 190 450 q 242 173 190 235 q 388 110 293 110 m 256 797 l 256 892 l 521 1046 l 521 899 l 256 797 z "},"ŏ":{"ha":776,"x_min":42,"x_max":733,"o":"m 388 -14 q 201 34 278 -14 q 83 164 124 83 q 42 342 42 244 q 83 522 42 441 q 201 652 124 603 q 388 700 278 700 q 575 652 497 700 q 693 522 652 603 q 733 342 733 441 q 693 164 733 244 q 575 34 652 83 q 388 -14 497 -14 m 388 110 q 534 173 483 110 q 585 342 585 235 q 534 513 585 450 q 388 576 483 576 q 242 513 293 576 q 190 342 190 450 q 242 173 190 235 q 388 110 293 110 m 388 806 q 273 832 319 806 q 203 899 227 858 q 180 990 180 941 l 294 990 q 320 926 294 948 q 388 903 347 903 q 455 926 428 903 q 481 990 481 948 l 595 990 q 572 899 595 941 q 502 832 548 858 q 388 806 456 806 z "},"ô":{"ha":776,"x_min":42,"x_max":733,"o":"m 388 -14 q 201 34 278 -14 q 83 164 124 83 q 42 342 42 244 q 83 522 42 441 q 201 652 124 603 q 388 700 278 700 q 575 652 497 700 q 693 522 652 603 q 733 342 733 441 q 693 164 733 244 q 575 34 652 83 q 388 -14 497 -14 m 388 110 q 534 173 483 110 q 585 342 585 235 q 534 513 585 450 q 388 576 483 576 q 242 513 293 576 q 190 342 190 450 q 242 173 190 235 q 388 110 293 110 m 208 778 l 208 873 l 388 1026 l 567 873 l 567 778 l 388 890 l 208 778 z "},"ố":{"ha":776,"x_min":42,"x_max":733,"o":"m 388 -14 q 201 34 278 -14 q 83 164 124 83 q 42 342 42 244 q 83 522 42 441 q 201 652 124 603 q 388 700 278 700 q 575 652 497 700 q 693 522 652 603 q 733 342 733 441 q 693 164 733 244 q 575 34 652 83 q 388 -14 497 -14 m 388 110 q 534 173 483 110 q 585 342 585 235 q 534 513 585 450 q 388 576 483 576 q 242 513 293 576 q 190 342 190 450 q 242 173 190 235 q 388 110 293 110 m 208 756 l 208 848 l 388 974 l 567 848 l 567 756 l 388 851 l 208 756 m 492 961 l 584 1129 l 730 1129 l 592 961 l 492 961 z "},"ộ":{"ha":776,"x_min":42,"x_max":733,"o":"m 388 -14 q 201 34 278 -14 q 83 164 124 83 q 42 342 42 244 q 83 522 42 441 q 201 652 124 603 q 388 700 278 700 q 575 652 497 700 q 693 522 652 603 q 733 342 733 441 q 693 164 733 244 q 575 34 652 83 q 388 -14 497 -14 m 388 110 q 534 173 483 110 q 585 342 585 235 q 534 513 585 450 q 388 576 483 576 q 242 513 293 576 q 190 342 190 450 q 242 173 190 235 q 388 110 293 110 m 208 778 l 208 873 l 388 1026 l 567 873 l 567 778 l 388 890 l 208 778 z "},"ồ":{"ha":776,"x_min":42,"x_max":733,"o":"m 388 -14 q 201 34 278 -14 q 83 164 124 83 q 42 342 42 244 q 83 522 42 441 q 201 652 124 603 q 388 700 278 700 q 575 652 497 700 q 693 522 652 603 q 733 342 733 441 q 693 164 733 244 q 575 34 652 83 q 388 -14 497 -14 m 388 110 q 534 173 483 110 q 585 342 585 235 q 534 513 585 450 q 388 576 483 576 q 242 513 293 576 q 190 342 190 450 q 242 173 190 235 q 388 110 293 110 m 208 756 l 208 848 l 388 974 l 567 848 l 567 756 l 388 851 l 208 756 m 517 961 l 399 1129 l 538 1129 l 613 961 l 517 961 z "},"ổ":{"ha":776,"x_min":42,"x_max":733,"o":"m 388 -14 q 201 34 278 -14 q 83 164 124 83 q 42 342 42 244 q 83 522 42 441 q 201 652 124 603 q 388 700 278 700 q 575 652 497 700 q 693 522 652 603 q 733 342 733 441 q 693 164 733 244 q 575 34 652 83 q 388 -14 497 -14 m 388 110 q 534 173 483 110 q 585 342 585 235 q 534 513 585 450 q 388 576 483 576 q 242 513 293 576 q 190 342 190 450 q 242 173 190 235 q 388 110 293 110 m 208 756 l 208 848 l 388 974 l 567 848 l 567 756 l 388 851 l 208 756 m 521 925 l 507 983 q 544 1003 532 991 q 557 1035 557 1015 q 542 1066 557 1056 q 502 1076 528 1076 q 459 1069 481 1076 q 416 1050 438 1062 l 392 1127 q 444 1147 416 1140 q 503 1153 472 1153 q 601 1125 561 1153 q 641 1043 641 1097 q 613 967 641 996 q 521 925 584 939 z "},"ỗ":{"ha":776,"x_min":42,"x_max":733,"o":"m 388 -14 q 201 34 278 -14 q 83 164 124 83 q 42 342 42 244 q 83 522 42 441 q 201 652 124 603 q 388 700 278 700 q 575 652 497 700 q 693 522 652 603 q 733 342 733 441 q 693 164 733 244 q 575 34 652 83 q 388 -14 497 -14 m 388 110 q 534 173 483 110 q 585 342 585 235 q 534 513 585 450 q 388 576 483 576 q 242 513 293 576 q 190 342 190 450 q 242 173 190 235 q 388 110 293 110 m 208 756 l 208 848 l 388 974 l 567 848 l 567 756 l 388 851 l 208 756 m 505 1028 q 438 1042 473 1028 q 370 1071 403 1057 q 310 1085 337 1085 q 264 1036 264 1085 l 167 1036 q 194 1142 167 1106 q 270 1178 220 1178 q 337 1164 302 1178 q 405 1135 372 1149 q 465 1120 438 1120 q 511 1169 511 1120 l 608 1169 q 582 1065 608 1101 q 505 1028 556 1028 z "},"ȍ":{"ha":776,"x_min":42,"x_max":733,"o":"m 388 -14 q 201 34 278 -14 q 83 164 124 83 q 42 342 42 244 q 83 522 42 441 q 201 652 124 603 q 388 700 278 700 q 575 652 497 700 q 693 522 652 603 q 733 342 733 441 q 693 164 733 244 q 575 34 652 83 q 388 -14 497 -14 m 388 110 q 534 173 483 110 q 585 342 585 235 q 534 513 585 450 q 388 576 483 576 q 242 513 293 576 q 190 342 190 450 q 242 173 190 235 q 388 110 293 110 m 542 808 l 442 808 l 305 1047 l 451 1047 l 542 808 m 343 808 l 244 808 l 97 1047 l 244 1047 l 343 808 z "},"ö":{"ha":776,"x_min":42,"x_max":733,"o":"m 388 -14 q 201 34 278 -14 q 83 164 124 83 q 42 342 42 244 q 83 522 42 441 q 201 652 124 603 q 388 700 278 700 q 575 652 497 700 q 693 522 652 603 q 733 342 733 441 q 693 164 733 244 q 575 34 652 83 q 388 -14 497 -14 m 388 110 q 534 173 483 110 q 585 342 585 235 q 534 513 585 450 q 388 576 483 576 q 242 513 293 576 q 190 342 190 450 q 242 173 190 235 q 388 110 293 110 m 461 821 l 461 938 l 586 938 l 586 821 l 461 821 m 189 821 l 189 938 l 314 938 l 314 821 l 189 821 z "},"ȫ":{"ha":776,"x_min":42,"x_max":733,"o":"m 388 -14 q 201 34 278 -14 q 83 164 124 83 q 42 342 42 244 q 83 522 42 441 q 201 652 124 603 q 388 700 278 700 q 575 652 497 700 q 693 522 652 603 q 733 342 733 441 q 693 164 733 244 q 575 34 652 83 q 388 -14 497 -14 m 388 110 q 534 173 483 110 q 585 342 585 235 q 534 513 585 450 q 388 576 483 576 q 242 513 293 576 q 190 342 190 450 q 242 173 190 235 q 388 110 293 110 m 189 810 l 189 921 l 314 921 l 314 810 l 189 810 m 461 810 l 461 921 l 586 921 l 586 810 l 461 810 m 163 1032 l 163 1131 l 612 1131 l 612 1032 l 163 1032 z "},"ȱ":{"ha":776,"x_min":42,"x_max":733,"o":"m 388 -14 q 201 34 278 -14 q 83 164 124 83 q 42 342 42 244 q 83 522 42 441 q 201 652 124 603 q 388 700 278 700 q 575 652 497 700 q 693 522 652 603 q 733 342 733 441 q 693 164 733 244 q 575 34 652 83 q 388 -14 497 -14 m 388 110 q 534 173 483 110 q 585 342 585 235 q 534 513 585 450 q 388 576 483 576 q 242 513 293 576 q 190 342 190 450 q 242 173 190 235 q 388 110 293 110 m 319 813 l 319 942 l 456 942 l 456 813 l 319 813 m 163 1054 l 163 1153 l 612 1153 l 612 1054 l 163 1054 z "},"ọ":{"ha":776,"x_min":42,"x_max":733,"o":"m 388 -14 q 201 34 278 -14 q 83 164 124 83 q 42 342 42 244 q 83 522 42 441 q 201 652 124 603 q 388 700 278 700 q 575 652 497 700 q 693 522 652 603 q 733 342 733 441 q 693 164 733 244 q 575 34 652 83 q 388 -14 497 -14 m 388 110 q 534 173 483 110 q 585 342 585 235 q 534 513 585 450 q 388 576 483 576 q 242 513 293 576 q 190 342 190 450 q 242 173 190 235 q 388 110 293 110 z "},"ò":{"ha":776,"x_min":42,"x_max":733,"o":"m 388 -14 q 201 34 278 -14 q 83 164 124 83 q 42 342 42 244 q 83 522 42 441 q 201 652 124 603 q 388 700 278 700 q 575 652 497 700 q 693 522 652 603 q 733 342 733 441 q 693 164 733 244 q 575 34 652 83 q 388 -14 497 -14 m 388 110 q 534 173 483 110 q 585 342 585 235 q 534 513 585 450 q 388 576 483 576 q 242 513 293 576 q 190 342 190 450 q 242 173 190 235 q 388 110 293 110 m 519 797 l 254 899 l 254 1046 l 519 892 l 519 797 z "},"ỏ":{"ha":776,"x_min":42,"x_max":733,"o":"m 388 -14 q 201 34 278 -14 q 83 164 124 83 q 42 342 42 244 q 83 522 42 441 q 201 652 124 603 q 388 700 278 700 q 575 652 497 700 q 693 522 652 603 q 733 342 733 441 q 693 164 733 244 q 575 34 652 83 q 388 -14 497 -14 m 388 110 q 534 173 483 110 q 585 342 585 235 q 534 513 585 450 q 388 576 483 576 q 242 513 293 576 q 190 342 190 450 q 242 173 190 235 q 388 110 293 110 m 409 735 l 360 783 q 405 830 390 812 q 420 874 420 849 q 406 909 420 897 q 365 921 391 921 q 322 914 344 921 q 279 894 301 906 l 256 972 q 307 991 279 984 q 367 998 335 998 q 464 967 424 998 q 504 878 504 936 q 480 802 504 833 q 409 735 456 770 z "},"ơ":{"ha":776,"x_min":42,"x_max":733,"o":"m 388 -14 q 201 34 278 -14 q 83 164 124 83 q 42 342 42 244 q 83 522 42 441 q 201 652 124 603 q 388 700 278 700 q 575 652 497 700 q 693 522 652 603 q 733 342 733 441 q 693 164 733 244 q 575 34 652 83 q 388 -14 497 -14 m 388 110 q 534 173 483 110 q 585 342 585 235 q 534 513 585 450 q 388 576 483 576 q 242 513 293 576 q 190 342 190 450 q 242 173 190 235 q 388 110 293 110 m 478 583 l 478 686 q 560 710 531 686 q 590 789 590 734 l 721 789 q 687 684 721 731 q 599 610 653 637 q 478 583 544 583 z "},"ớ":{"ha":776,"x_min":42,"x_max":733,"o":"m 388 -14 q 201 34 278 -14 q 83 164 124 83 q 42 342 42 244 q 83 522 42 441 q 201 652 124 603 q 388 700 278 700 q 575 652 497 700 q 693 522 652 603 q 733 342 733 441 q 693 164 733 244 q 575 34 652 83 q 388 -14 497 -14 m 388 110 q 534 173 483 110 q 585 342 585 235 q 534 513 585 450 q 388 576 483 576 q 242 513 293 576 q 190 342 190 450 q 242 173 190 235 q 388 110 293 110 m 478 583 l 478 686 q 560 710 531 686 q 590 789 590 734 l 721 789 q 687 684 721 731 q 599 610 653 637 q 478 583 544 583 m 256 797 l 256 892 l 521 1046 l 521 899 l 256 797 z "},"ợ":{"ha":776,"x_min":42,"x_max":733,"o":"m 388 -14 q 201 34 278 -14 q 83 164 124 83 q 42 342 42 244 q 83 522 42 441 q 201 652 124 603 q 388 700 278 700 q 575 652 497 700 q 693 522 652 603 q 733 342 733 441 q 693 164 733 244 q 575 34 652 83 q 388 -14 497 -14 m 388 110 q 534 173 483 110 q 585 342 585 235 q 534 513 585 450 q 388 576 483 576 q 242 513 293 576 q 190 342 190 450 q 242 173 190 235 q 388 110 293 110 m 478 583 l 478 686 q 560 710 531 686 q 590 789 590 734 l 721 789 q 687 684 721 731 q 599 610 653 637 q 478 583 544 583 z "},"ờ":{"ha":776,"x_min":42,"x_max":733,"o":"m 388 -14 q 201 34 278 -14 q 83 164 124 83 q 42 342 42 244 q 83 522 42 441 q 201 652 124 603 q 388 700 278 700 q 575 652 497 700 q 693 522 652 603 q 733 342 733 441 q 693 164 733 244 q 575 34 652 83 q 388 -14 497 -14 m 388 110 q 534 173 483 110 q 585 342 585 235 q 534 513 585 450 q 388 576 483 576 q 242 513 293 576 q 190 342 190 450 q 242 173 190 235 q 388 110 293 110 m 478 583 l 478 686 q 560 710 531 686 q 590 789 590 734 l 721 789 q 687 684 721 731 q 599 610 653 637 q 478 583 544 583 m 519 797 l 254 899 l 254 1046 l 519 892 l 519 797 z "},"ở":{"ha":776,"x_min":42,"x_max":733,"o":"m 388 -14 q 201 34 278 -14 q 83 164 124 83 q 42 342 42 244 q 83 522 42 441 q 201 652 124 603 q 388 700 278 700 q 575 652 497 700 q 693 522 652 603 q 733 342 733 441 q 693 164 733 244 q 575 34 652 83 q 388 -14 497 -14 m 388 110 q 534 173 483 110 q 585 342 585 235 q 534 513 585 450 q 388 576 483 576 q 242 513 293 576 q 190 342 190 450 q 242 173 190 235 q 388 110 293 110 m 478 583 l 478 686 q 560 710 531 686 q 590 789 590 734 l 721 789 q 687 684 721 731 q 599 610 653 637 q 478 583 544 583 m 409 735 l 360 783 q 405 830 390 812 q 420 874 420 849 q 406 909 420 897 q 365 921 391 921 q 322 914 344 921 q 279 894 301 906 l 256 972 q 307 991 279 984 q 367 998 335 998 q 464 967 424 998 q 504 878 504 936 q 480 802 504 833 q 409 735 456 770 z "},"ỡ":{"ha":776,"x_min":42,"x_max":733,"o":"m 388 -14 q 201 34 278 -14 q 83 164 124 83 q 42 342 42 244 q 83 522 42 441 q 201 652 124 603 q 388 700 278 700 q 575 652 497 700 q 693 522 652 603 q 733 342 733 441 q 693 164 733 244 q 575 34 652 83 q 388 -14 497 -14 m 388 110 q 534 173 483 110 q 585 342 585 235 q 534 513 585 450 q 388 576 483 576 q 242 513 293 576 q 190 342 190 450 q 242 173 190 235 q 388 110 293 110 m 478 583 l 478 686 q 560 710 531 686 q 590 789 590 734 l 721 789 q 687 684 721 731 q 599 610 653 637 q 478 583 544 583 m 501 804 q 434 820 467 804 q 371 852 401 836 q 311 868 340 868 q 264 815 264 868 l 154 815 q 188 934 158 893 q 274 976 217 976 q 341 960 308 976 q 404 928 374 944 q 464 912 435 912 q 511 965 511 912 l 621 965 q 588 845 618 887 q 501 804 558 804 z "},"ő":{"ha":776,"x_min":42,"x_max":733,"o":"m 388 -14 q 201 34 278 -14 q 83 164 124 83 q 42 342 42 244 q 83 522 42 441 q 201 652 124 603 q 388 700 278 700 q 575 652 497 700 q 693 522 652 603 q 733 342 733 441 q 693 164 733 244 q 575 34 652 83 q 388 -14 497 -14 m 388 110 q 534 173 483 110 q 585 342 585 235 q 534 513 585 450 q 388 576 483 576 q 242 513 293 576 q 190 342 190 450 q 242 173 190 235 q 388 110 293 110 m 435 808 l 551 1047 l 697 1047 l 534 808 l 435 808 m 236 808 l 343 1047 l 490 1047 l 335 808 l 236 808 z "},"ȏ":{"ha":776,"x_min":42,"x_max":733,"o":"m 388 -14 q 201 34 278 -14 q 83 164 124 83 q 42 342 42 244 q 83 522 42 441 q 201 652 124 603 q 388 700 278 700 q 575 652 497 700 q 693 522 652 603 q 733 342 733 441 q 693 164 733 244 q 575 34 652 83 q 388 -14 497 -14 m 388 110 q 534 173 483 110 q 585 342 585 235 q 534 513 585 450 q 388 576 483 576 q 242 513 293 576 q 190 342 190 450 q 242 173 190 235 q 388 110 293 110 m 388 990 q 502 965 456 990 q 572 897 548 939 q 595 806 595 856 l 481 806 q 455 871 481 849 q 388 893 428 893 q 320 871 347 893 q 294 806 294 849 l 180 806 q 203 897 180 856 q 273 965 227 939 q 388 990 319 990 z "},"ō":{"ha":776,"x_min":42,"x_max":733,"o":"m 388 -14 q 201 34 278 -14 q 83 164 124 83 q 42 342 42 244 q 83 522 42 441 q 201 652 124 603 q 388 700 278 700 q 575 652 497 700 q 693 522 652 603 q 733 342 733 441 q 693 164 733 244 q 575 34 652 83 q 388 -14 497 -14 m 388 110 q 534 173 483 110 q 585 342 585 235 q 534 513 585 450 q 388 576 483 576 q 242 513 293 576 q 190 342 190 450 q 242 173 190 235 q 388 110 293 110 m 163 826 l 163 931 l 612 931 l 612 826 l 163 826 z "},"ṓ":{"ha":776,"x_min":42,"x_max":733,"o":"m 388 -14 q 201 34 278 -14 q 83 164 124 83 q 42 342 42 244 q 83 522 42 441 q 201 652 124 603 q 388 700 278 700 q 575 652 497 700 q 693 522 652 603 q 733 342 733 441 q 693 164 733 244 q 575 34 652 83 q 388 -14 497 -14 m 388 110 q 534 173 483 110 q 585 342 585 235 q 534 513 585 450 q 388 576 483 576 q 242 513 293 576 q 190 342 190 450 q 242 173 190 235 q 388 110 293 110 m 163 815 l 163 915 l 612 915 l 612 815 l 163 815 m 256 1011 l 256 1098 l 521 1230 l 521 1092 l 256 1011 z "},"ṑ":{"ha":776,"x_min":42,"x_max":733,"o":"m 388 -14 q 201 34 278 -14 q 83 164 124 83 q 42 342 42 244 q 83 522 42 441 q 201 652 124 603 q 388 700 278 700 q 575 652 497 700 q 693 522 652 603 q 733 342 733 441 q 693 164 733 244 q 575 34 652 83 q 388 -14 497 -14 m 388 110 q 534 173 483 110 q 585 342 585 235 q 534 513 585 450 q 388 576 483 576 q 242 513 293 576 q 190 342 190 450 q 242 173 190 235 q 388 110 293 110 m 163 815 l 163 915 l 612 915 l 612 815 l 163 815 m 519 1011 l 254 1092 l 254 1230 l 519 1098 l 519 1011 z "},"ǫ":{"ha":776,"x_min":42,"x_max":733,"o":"m 388 -14 q 201 34 278 -14 q 83 164 124 83 q 42 342 42 244 q 83 522 42 441 q 201 652 124 603 q 388 700 278 700 q 575 652 497 700 q 693 522 652 603 q 733 342 733 441 q 693 164 733 244 q 575 34 652 83 q 388 -14 497 -14 m 388 110 q 534 173 483 110 q 585 342 585 235 q 534 513 585 450 q 388 576 483 576 q 242 513 293 576 q 190 342 190 450 q 242 173 190 235 q 388 110 293 110 m 410 0 l 488 0 q 410 -72 440 -37 q 381 -146 381 -108 q 399 -197 381 -180 q 447 -214 417 -214 q 492 -208 472 -214 q 533 -192 513 -202 l 555 -264 q 505 -283 535 -274 q 438 -291 476 -291 q 338 -260 378 -291 q 297 -170 297 -228 q 333 -70 297 -115 q 410 0 369 -25 z "},"ø":{"ha":776,"x_min":42,"x_max":733,"o":"m 583 736 l 699 736 l 192 -56 l 77 -56 l 583 736 m 388 -14 q 201 34 278 -14 q 83 164 124 83 q 42 342 42 244 q 83 522 42 441 q 201 652 124 603 q 388 700 278 700 q 575 652 497 700 q 693 522 652 603 q 733 342 733 441 q 693 164 733 244 q 575 34 652 83 q 388 -14 497 -14 m 388 110 q 534 173 483 110 q 585 342 585 235 q 534 513 585 450 q 388 576 483 576 q 242 513 293 576 q 190 342 190 450 q 242 173 190 235 q 388 110 293 110 z "},"ǿ":{"ha":776,"x_min":42,"x_max":733,"o":"m 583 736 l 699 736 l 192 -56 l 77 -56 l 583 736 m 388 -14 q 201 34 278 -14 q 83 164 124 83 q 42 342 42 244 q 83 522 42 441 q 201 652 124 603 q 388 700 278 700 q 575 652 497 700 q 693 522 652 603 q 733 342 733 441 q 693 164 733 244 q 575 34 652 83 q 388 -14 497 -14 m 388 110 q 534 173 483 110 q 585 342 585 235 q 534 513 585 450 q 388 576 483 576 q 242 513 293 576 q 190 342 190 450 q 242 173 190 235 q 388 110 293 110 m 256 797 l 256 892 l 521 1046 l 521 899 l 256 797 z "},"õ":{"ha":776,"x_min":42,"x_max":733,"o":"m 388 -14 q 201 34 278 -14 q 83 164 124 83 q 42 342 42 244 q 83 522 42 441 q 201 652 124 603 q 388 700 278 700 q 575 652 497 700 q 693 522 652 603 q 733 342 733 441 q 693 164 733 244 q 575 34 652 83 q 388 -14 497 -14 m 388 110 q 534 173 483 110 q 585 342 585 235 q 534 513 585 450 q 388 576 483 576 q 242 513 293 576 q 190 342 190 450 q 242 173 190 235 q 388 110 293 110 m 501 804 q 434 820 467 804 q 371 852 401 836 q 311 868 340 868 q 264 815 264 868 l 154 815 q 188 934 158 893 q 274 976 217 976 q 341 960 308 976 q 404 928 374 944 q 464 912 435 912 q 511 965 511 912 l 621 965 q 588 845 618 887 q 501 804 558 804 z "},"ṍ":{"ha":776,"x_min":42,"x_max":733,"o":"m 388 -14 q 201 34 278 -14 q 83 164 124 83 q 42 342 42 244 q 83 522 42 441 q 201 652 124 603 q 388 700 278 700 q 575 652 497 700 q 693 522 652 603 q 733 342 733 441 q 693 164 733 244 q 575 34 652 83 q 388 -14 497 -14 m 388 110 q 534 173 483 110 q 585 342 585 235 q 534 513 585 450 q 388 576 483 576 q 242 513 293 576 q 190 342 190 450 q 242 173 190 235 q 388 110 293 110 m 505 802 q 438 817 473 802 q 370 845 403 831 q 310 860 337 860 q 264 810 264 860 l 167 810 q 194 916 167 880 q 270 952 220 952 q 337 938 302 952 q 405 909 372 924 q 465 894 438 894 q 511 944 511 894 l 608 944 q 582 839 608 876 q 505 802 556 802 m 256 1010 l 256 1097 l 521 1228 l 521 1090 l 256 1010 z "},"ṏ":{"ha":776,"x_min":42,"x_max":733,"o":"m 388 -14 q 201 34 278 -14 q 83 164 124 83 q 42 342 42 244 q 83 522 42 441 q 201 652 124 603 q 388 700 278 700 q 575 652 497 700 q 693 522 652 603 q 733 342 733 441 q 693 164 733 244 q 575 34 652 83 q 388 -14 497 -14 m 388 110 q 534 173 483 110 q 585 342 585 235 q 534 513 585 450 q 388 576 483 576 q 242 513 293 576 q 190 342 190 450 q 242 173 190 235 q 388 110 293 110 m 505 802 q 438 817 473 802 q 370 845 403 831 q 310 860 337 860 q 264 810 264 860 l 167 810 q 194 916 167 880 q 270 952 220 952 q 337 938 302 952 q 405 909 372 924 q 465 894 438 894 q 511 944 511 894 l 608 944 q 582 839 608 876 q 505 802 556 802 m 189 1048 l 189 1158 l 314 1158 l 314 1048 l 189 1048 m 461 1048 l 461 1158 l 586 1158 l 586 1048 l 461 1048 z "},"ȭ":{"ha":776,"x_min":42,"x_max":733,"o":"m 388 -14 q 201 34 278 -14 q 83 164 124 83 q 42 342 42 244 q 83 522 42 441 q 201 652 124 603 q 388 700 278 700 q 575 652 497 700 q 693 522 652 603 q 733 342 733 441 q 693 164 733 244 q 575 34 652 83 q 388 -14 497 -14 m 388 110 q 534 173 483 110 q 585 342 585 235 q 534 513 585 450 q 388 576 483 576 q 242 513 293 576 q 190 342 190 450 q 242 173 190 235 q 388 110 293 110 m 505 802 q 438 817 473 802 q 370 845 403 831 q 310 860 337 860 q 264 810 264 860 l 167 810 q 194 916 167 880 q 270 952 220 952 q 337 938 302 952 q 405 909 372 924 q 465 894 438 894 q 511 944 511 894 l 608 944 q 582 839 608 876 q 505 802 556 802 m 163 1053 l 163 1152 l 612 1152 l 612 1053 l 163 1053 z "},"œ":{"ha":1249,"x_min":42,"x_max":1209,"o":"m 388 -14 q 201 34 278 -14 q 83 164 124 83 q 42 342 42 244 q 83 522 42 441 q 201 652 124 603 q 388 700 278 700 q 561 654 488 700 q 674 532 633 608 l 633 530 q 743 652 672 606 q 913 699 814 699 q 1070 663 1004 699 q 1173 560 1137 626 q 1209 406 1209 494 q 1207 368 1209 388 q 1201 327 1205 349 l 726 327 q 770 198 736 246 q 855 131 805 151 q 962 110 905 110 q 1065 123 1010 110 q 1165 158 1121 136 l 1178 39 q 1081 3 1139 20 q 949 -14 1023 -14 q 751 38 831 -14 q 631 171 672 89 l 682 169 q 568 37 643 88 q 388 -14 493 -14 m 388 110 q 534 173 483 110 q 585 342 585 235 q 534 513 585 450 q 388 576 483 576 q 242 513 293 576 q 190 342 190 450 q 242 173 190 235 q 388 110 293 110 m 735 426 l 1060 426 q 1045 501 1060 467 q 997 555 1029 535 q 911 575 964 575 q 793 535 835 575 q 735 426 751 494 z "},"p":{"ha":783,"x_min":83,"x_max":740,"o":"m 83 -336 l 83 686 l 198 686 l 225 548 l 183 570 q 288 664 228 629 q 436 699 349 699 q 601 651 533 699 q 704 522 669 603 q 740 342 740 441 q 705 164 740 244 q 603 34 671 83 q 436 -14 536 -14 q 295 15 355 -14 q 197 103 236 44 l 228 132 l 228 -336 l 83 -336 m 411 110 q 543 173 496 110 q 591 342 591 235 q 543 513 591 450 q 411 575 496 575 q 311 548 353 575 q 244 469 268 521 q 220 342 220 417 q 244 215 220 266 q 311 137 268 163 q 411 110 353 110 z "},"þ":{"ha":808,"x_min":82,"x_max":765,"o":"m 82 -335 l 82 1042 l 227 1042 l 227 562 l 194 584 q 303 670 244 642 q 443 699 363 699 q 618 650 546 699 q 727 520 690 601 q 765 342 765 439 q 728 165 765 247 q 619 35 691 84 q 443 -14 547 -14 q 299 16 357 -14 q 197 103 240 46 l 227 128 l 227 -335 l 82 -335 m 422 103 q 567 171 517 103 q 617 342 617 239 q 567 511 617 447 q 422 575 517 575 q 310 547 356 575 q 242 466 265 518 q 218 342 218 414 q 242 218 218 272 q 310 134 265 164 q 422 103 356 103 z "},"q":{"ha":783,"x_min":43,"x_max":699,"o":"m 554 -336 l 554 132 l 585 104 q 492 16 551 46 q 353 -14 433 -14 q 182 34 251 -14 q 78 164 113 83 q 43 342 43 244 q 79 519 43 438 q 184 650 115 600 q 353 699 253 699 q 500 665 442 699 q 599 570 557 631 l 558 548 l 588 686 l 699 686 l 699 -336 l 554 -336 m 375 110 q 473 137 431 110 q 539 215 515 163 q 562 342 562 266 q 511 515 562 455 q 375 575 460 575 q 240 513 288 575 q 191 342 191 450 q 240 173 191 235 q 375 110 288 110 z "},"r":{"ha":447,"x_min":83,"x_max":444,"o":"m 83 0 l 83 686 l 210 686 l 221 590 q 310 670 263 640 q 413 700 358 700 q 444 697 430 700 l 432 546 q 408 550 420 549 q 383 551 396 551 q 291 529 333 551 q 233 478 250 506 l 233 0 l 83 0 z "},"ŕ":{"ha":447,"x_min":83,"x_max":444,"o":"m 83 0 l 83 686 l 210 686 l 221 590 q 310 670 263 640 q 413 700 358 700 q 444 697 430 700 l 432 546 q 408 550 420 549 q 383 551 396 551 q 291 529 333 551 q 233 478 250 506 l 233 0 l 83 0 m 165 797 l 165 892 l 430 1046 l 430 899 l 165 797 z "},"ř":{"ha":447,"x_min":83,"x_max":476,"o":"m 83 0 l 83 686 l 210 686 l 221 590 q 310 670 263 640 q 413 700 358 700 q 444 697 430 700 l 432 546 q 408 550 420 549 q 383 551 396 551 q 291 529 333 551 q 233 478 250 506 l 233 0 l 83 0 m 297 776 l 117 930 l 117 1025 l 297 912 l 476 1025 l 476 930 l 297 776 z "},"ŗ":{"ha":447,"x_min":80,"x_max":444,"o":"m 83 0 l 83 686 l 210 686 l 221 590 q 310 670 263 640 q 413 700 358 700 q 444 697 430 700 l 432 546 q 408 550 420 549 q 383 551 396 551 q 291 529 333 551 q 233 478 250 506 l 233 0 l 83 0 m 160 -428 l 84 -428 l 135 -278 l 80 -278 l 80 -126 l 239 -126 l 239 -262 l 160 -428 z "},"ȑ":{"ha":447,"x_min":6,"x_max":450,"o":"m 83 0 l 83 686 l 210 686 l 221 590 q 310 670 263 640 q 413 700 358 700 q 444 697 430 700 l 432 546 q 408 550 420 549 q 383 551 396 551 q 291 529 333 551 q 233 478 250 506 l 233 0 l 83 0 m 450 808 l 351 808 l 213 1047 l 359 1047 l 450 808 m 251 808 l 152 808 l 6 1047 l 152 1047 l 251 808 z "},"ṛ":{"ha":447,"x_min":83,"x_max":444,"o":"m 83 0 l 83 686 l 210 686 l 221 590 q 310 670 263 640 q 413 700 358 700 q 444 697 430 700 l 432 546 q 408 550 420 549 q 383 551 396 551 q 291 529 333 551 q 233 478 250 506 l 233 0 l 83 0 z "},"ȓ":{"ha":447,"x_min":83,"x_max":504,"o":"m 83 0 l 83 686 l 210 686 l 221 590 q 310 670 263 640 q 413 700 358 700 q 444 697 430 700 l 432 546 q 408 550 420 549 q 383 551 396 551 q 291 529 333 551 q 233 478 250 506 l 233 0 l 83 0 m 297 990 q 411 965 365 990 q 481 897 457 939 q 504 806 504 856 l 390 806 q 364 871 390 849 q 297 893 337 893 q 230 871 256 893 q 203 806 203 849 l 89 806 q 113 897 89 856 q 182 965 136 939 q 297 990 228 990 z "},"ṟ":{"ha":447,"x_min":-67,"x_max":444,"o":"m 83 0 l 83 686 l 210 686 l 221 590 q 310 670 263 640 q 413 700 358 700 q 444 697 430 700 l 432 546 q 408 550 420 549 q 383 551 396 551 q 291 529 333 551 q 233 478 250 506 l 233 0 l 83 0 z "},"s":{"ha":581,"x_min":44,"x_max":543,"o":"m 278 -14 q 139 4 197 -14 q 44 42 81 22 l 59 174 q 149 127 94 150 q 272 105 203 105 q 364 125 332 105 q 395 183 395 144 q 376 235 395 215 q 327 268 358 255 q 263 292 297 281 q 161 333 209 310 q 84 394 114 356 q 55 497 55 433 q 83 599 55 552 q 167 673 110 645 q 311 700 224 700 q 425 686 378 700 q 508 652 472 672 l 493 524 q 414 571 456 552 q 314 590 371 590 q 230 570 261 590 q 199 508 199 549 q 235 443 199 463 q 350 397 272 423 q 419 368 385 385 q 482 329 453 352 q 526 272 510 306 q 543 191 543 238 q 517 90 543 137 q 433 15 491 44 q 278 -14 375 -14 z "},"ś":{"ha":581,"x_min":44,"x_max":543,"o":"m 278 -14 q 139 4 197 -14 q 44 42 81 22 l 59 174 q 149 127 94 150 q 272 105 203 105 q 364 125 332 105 q 395 183 395 144 q 376 235 395 215 q 327 268 358 255 q 263 292 297 281 q 161 333 209 310 q 84 394 114 356 q 55 497 55 433 q 83 599 55 552 q 167 673 110 645 q 311 700 224 700 q 425 686 378 700 q 508 652 472 672 l 493 524 q 414 571 456 552 q 314 590 371 590 q 230 570 261 590 q 199 508 199 549 q 235 443 199 463 q 350 397 272 423 q 419 368 385 385 q 482 329 453 352 q 526 272 510 306 q 543 191 543 238 q 517 90 543 137 q 433 15 491 44 q 278 -14 375 -14 m 175 797 l 175 892 l 440 1046 l 440 899 l 175 797 z "},"ṥ":{"ha":581,"x_min":44,"x_max":543,"o":"m 278 -14 q 139 4 197 -14 q 44 42 81 22 l 59 174 q 149 127 94 150 q 272 105 203 105 q 364 125 332 105 q 395 183 395 144 q 376 235 395 215 q 327 268 358 255 q 263 292 297 281 q 161 333 209 310 q 84 394 114 356 q 55 497 55 433 q 83 599 55 552 q 167 673 110 645 q 311 700 224 700 q 425 686 378 700 q 508 652 472 672 l 493 524 q 414 571 456 552 q 314 590 371 590 q 230 570 261 590 q 199 508 199 549 q 235 443 199 463 q 350 397 272 423 q 419 368 385 385 q 482 329 453 352 q 526 272 510 306 q 543 191 543 238 q 517 90 543 137 q 433 15 491 44 q 278 -14 375 -14 m 175 772 l 175 859 l 440 991 l 440 853 l 175 772 m 238 1052 l 238 1181 l 376 1181 l 376 1052 l 238 1052 z "},"š":{"ha":581,"x_min":44,"x_max":543,"o":"m 278 -14 q 139 4 197 -14 q 44 42 81 22 l 59 174 q 149 127 94 150 q 272 105 203 105 q 364 125 332 105 q 395 183 395 144 q 376 235 395 215 q 327 268 358 255 q 263 292 297 281 q 161 333 209 310 q 84 394 114 356 q 55 497 55 433 q 83 599 55 552 q 167 673 110 645 q 311 700 224 700 q 425 686 378 700 q 508 652 472 672 l 493 524 q 414 571 456 552 q 314 590 371 590 q 230 570 261 590 q 199 508 199 549 q 235 443 199 463 q 350 397 272 423 q 419 368 385 385 q 482 329 453 352 q 526 272 510 306 q 543 191 543 238 q 517 90 543 137 q 433 15 491 44 q 278 -14 375 -14 m 307 776 l 128 930 l 128 1025 l 307 912 l 486 1025 l 486 930 l 307 776 z "},"ṧ":{"ha":581,"x_min":44,"x_max":543,"o":"m 278 -14 q 139 4 197 -14 q 44 42 81 22 l 59 174 q 149 127 94 150 q 272 105 203 105 q 364 125 332 105 q 395 183 395 144 q 376 235 395 215 q 327 268 358 255 q 263 292 297 281 q 161 333 209 310 q 84 394 114 356 q 55 497 55 433 q 83 599 55 552 q 167 673 110 645 q 311 700 224 700 q 425 686 378 700 q 508 652 472 672 l 493 524 q 414 571 456 552 q 314 590 371 590 q 230 570 261 590 q 199 508 199 549 q 235 443 199 463 q 350 397 272 423 q 419 368 385 385 q 482 329 453 352 q 526 272 510 306 q 543 191 543 238 q 517 90 543 137 q 433 15 491 44 q 278 -14 375 -14 m 238 1070 l 238 1199 l 376 1199 l 376 1070 l 238 1070 z "},"ş":{"ha":581,"x_min":44,"x_max":543,"o":"m 278 -14 q 139 4 197 -14 q 44 42 81 22 l 59 174 q 149 127 94 150 q 272 105 203 105 q 364 125 332 105 q 395 183 395 144 q 376 235 395 215 q 327 268 358 255 q 263 292 297 281 q 161 333 209 310 q 84 394 114 356 q 55 497 55 433 q 83 599 55 552 q 167 673 110 645 q 311 700 224 700 q 425 686 378 700 q 508 652 472 672 l 493 524 q 414 571 456 552 q 314 590 371 590 q 230 570 261 590 q 199 508 199 549 q 235 443 199 463 q 350 397 272 423 q 419 368 385 385 q 482 329 453 352 q 526 272 510 306 q 543 191 543 238 q 517 90 543 137 q 433 15 491 44 q 278 -14 375 -14 m 295 -110 l 245 -89 q 278 -79 262 -83 q 313 -75 294 -75 q 405 -106 372 -75 q 438 -191 438 -137 q 394 -288 438 -255 q 287 -322 351 -322 q 223 -314 251 -322 q 176 -295 196 -306 l 199 -222 q 242 -239 221 -232 q 288 -245 264 -245 q 336 -232 318 -245 q 354 -195 354 -219 q 337 -156 354 -170 q 284 -142 319 -142 q 253 -145 269 -142 q 219 -153 238 -147 l 256 0 l 329 0 l 295 -110 z "},"ŝ":{"ha":581,"x_min":44,"x_max":543,"o":"m 278 -14 q 139 4 197 -14 q 44 42 81 22 l 59 174 q 149 127 94 150 q 272 105 203 105 q 364 125 332 105 q 395 183 395 144 q 376 235 395 215 q 327 268 358 255 q 263 292 297 281 q 161 333 209 310 q 84 394 114 356 q 55 497 55 433 q 83 599 55 552 q 167 673 110 645 q 311 700 224 700 q 425 686 378 700 q 508 652 472 672 l 493 524 q 414 571 456 552 q 314 590 371 590 q 230 570 261 590 q 199 508 199 549 q 235 443 199 463 q 350 397 272 423 q 419 368 385 385 q 482 329 453 352 q 526 272 510 306 q 543 191 543 238 q 517 90 543 137 q 433 15 491 44 q 278 -14 375 -14 m 128 778 l 128 873 l 307 1026 l 486 873 l 486 778 l 307 890 l 128 778 z "},"ș":{"ha":581,"x_min":44,"x_max":543,"o":"m 278 -14 q 139 4 197 -14 q 44 42 81 22 l 59 174 q 149 127 94 150 q 272 105 203 105 q 364 125 332 105 q 395 183 395 144 q 376 235 395 215 q 327 268 358 255 q 263 292 297 281 q 161 333 209 310 q 84 394 114 356 q 55 497 55 433 q 83 599 55 552 q 167 673 110 645 q 311 700 224 700 q 425 686 378 700 q 508 652 472 672 l 493 524 q 414 571 456 552 q 314 590 371 590 q 230 570 261 590 q 199 508 199 549 q 235 443 199 463 q 350 397 272 423 q 419 368 385 385 q 482 329 453 352 q 526 272 510 306 q 543 191 543 238 q 517 90 543 137 q 433 15 491 44 q 278 -14 375 -14 m 292 -428 l 215 -428 l 266 -278 l 211 -278 l 211 -126 l 370 -126 l 370 -262 l 292 -428 z "}}}
